<?xml version="1.0" standalone="no"?>
<!DOCTYPE svg PUBLIC "-//W3C//DTD SVG 20010904//EN"
 "http://www.w3.org/TR/2001/REC-SVG-20010904/DTD/svg10.dtd">
<svg version="1.0" xmlns="http://www.w3.org/2000/svg"
  viewBox="-170 0 1264.000000 1280.000000"
 preserveAspectRatio="xMidYMid meet" width="50px" height="50px" style='fill: white;'>
<metadata>
Created by potrace 1.15, written by Peter Selinger 2001-2017
</metadata>
<g transform="translate(0.000000,1280.000000) scale(0.100000,-0.100000)" stroke="none">
<path d="M5858 12780 c-134 -28 -181 -47 -260 -104 -96 -69 -104 -72 -140 -41
-16 14 -42 25 -57 25 -42 0 -96 -63 -135 -158 -19 -46 -58 -119 -87 -164 -71
-111 -92 -174 -79 -233 6 -26 11 -108 11 -183 1 -126 -1 -143 -26 -207 -85
-221 -99 -305 -65 -381 34 -78 72 -315 52 -328 -6 -4 -46 11 -89 33 -105 52
-173 71 -258 71 -94 0 -161 -21 -214 -67 -59 -50 -81 -101 -81 -188 0 -89 14
-114 106 -193 39 -33 78 -75 87 -94 33 -70 74 -588 63 -802 -8 -153 -32 -297
-87 -536 -42 -180 -69 -264 -183 -575 -96 -260 -96 -262 -103 -492 l-6 -203
67 -132 c73 -144 90 -203 62 -214 -24 -9 -50 18 -204 211 -172 216 -256 309
-362 402 -185 163 -432 310 -618 369 -121 38 -152 58 -152 99 0 39 -24 78 -80
128 -59 53 -134 84 -230 96 -78 10 -105 24 -125 67 -33 71 -121 122 -324 190
-137 46 -255 74 -311 74 -56 0 -80 16 -115 77 -70 120 -144 181 -303 248 -119
50 -172 61 -211 46 -55 -23 -76 -105 -46 -178 31 -74 21 -82 -135 -108 -112
-19 -194 -45 -273 -87 -63 -34 -87 -58 -195 -201 l-72 -96 -47 24 c-52 28
-104 32 -127 10 -21 -22 -31 -95 -29 -214 3 -133 -15 -220 -65 -313 -61 -112
-162 -380 -198 -523 -11 -43 -18 -157 -24 -395 -12 -443 -33 -579 -137 -893
-29 -88 -47 -159 -47 -187 0 -45 57 -213 127 -375 18 -44 46 -117 61 -162 38
-115 64 -136 160 -131 74 4 126 24 261 102 33 20 63 32 67 28 4 -4 11 -49 16
-100 8 -76 14 -98 33 -119 32 -34 104 -65 214 -93 75 -19 107 -22 195 -17 119
6 178 24 269 86 127 86 158 150 167 341 l6 115 -63 120 -62 119 39 31 c60 46
103 93 125 136 28 57 53 63 146 37 61 -17 102 -21 191 -20 l113 2 20 -48 c11
-26 42 -112 69 -192 75 -224 118 -475 139 -810 10 -160 6 -214 -24 -284 -11
-25 -20 -92 -26 -195 -23 -381 -27 -414 -57 -497 -120 -330 -266 -690 -292
-719 -10 -11 -30 -45 -45 -75 -40 -79 -117 -201 -282 -448 -80 -119 -172 -270
-203 -334 -60 -120 -65 -140 -89 -346 -7 -52 -18 -103 -26 -115 -13 -21 -43
-119 -139 -465 -31 -111 -60 -189 -89 -245 -140 -262 -161 -291 -400 -545
-147 -155 -153 -169 -162 -347 -10 -183 -17 -209 -80 -288 -32 -40 -60 -87
-69 -116 -36 -124 -28 -279 21 -380 34 -70 69 -86 228 -101 142 -14 194 -5
331 59 65 31 99 55 158 114 159 159 172 284 44 423 -23 25 -38 47 -35 51 4 3
33 7 64 8 74 2 146 38 201 100 53 60 69 112 88 270 44 393 60 454 142 579 60
91 299 331 432 432 124 95 191 166 245 259 39 66 88 115 116 115 19 0 77 36
112 68 33 31 33 31 5 -116 -28 -152 -31 -333 -6 -378 28 -51 76 -93 121 -105
34 -9 59 -8 127 5 114 23 206 72 275 148 45 51 62 62 109 74 31 8 79 16 108
17 l51 2 19 -83 c24 -111 35 -133 109 -231 82 -110 88 -139 96 -441 6 -256 -2
-360 -38 -454 -31 -85 -72 -120 -177 -152 -48 -14 -94 -33 -103 -40 -9 -9 -19
-39 -23 -70 -8 -66 -16 -84 -65 -144 -21 -25 -46 -58 -57 -75 -26 -40 -8 -32
88 40 69 51 80 65 98 114 24 64 42 81 82 81 57 0 151 64 194 131 45 71 94 314
94 465 0 82 9 122 21 102 5 -8 9 13 9 52 1 100 17 246 30 270 l12 22 20 -20
c18 -17 22 -40 29 -158 5 -75 11 -139 14 -142 13 -14 18 19 24 168 6 131 10
164 24 177 32 33 40 3 48 -189 7 -188 20 -297 41 -345 11 -26 12 -23 18 42 4
39 5 167 2 285 -5 233 0 308 25 317 22 9 31 -13 25 -65 -5 -43 -4 -46 12 -33
9 8 19 11 22 8 7 -7 21 -117 34 -270 5 -71 14 -136 19 -145 14 -28 23 -92 13
-92 -13 0 -39 65 -47 116 -12 72 -15 84 -27 84 -14 0 -5 -124 21 -273 16 -90
26 -118 61 -177 84 -139 126 -315 81 -340 -53 -28 -106 -1 -150 79 -19 33 -44
64 -55 67 -37 12 -147 5 -171 -10 -26 -17 -39 -70 -29 -122 4 -21 26 -60 51
-90 88 -109 102 -150 56 -159 -16 -4 -95 -24 -178 -46 -82 -22 -185 -46 -228
-53 -43 -7 -80 -16 -84 -19 -3 -4 0 -14 7 -23 11 -13 32 -15 114 -12 123 4
133 -11 41 -57 -47 -24 -76 -31 -135 -33 -112 -5 -170 20 -275 119 -47 43 -89
79 -94 79 -23 0 -55 -75 -55 -127 0 -93 57 -130 244 -158 52 -8 150 -15 217
-15 l121 0 59 61 c32 33 73 82 90 109 37 54 79 76 168 86 67 8 105 34 105 72
0 62 -29 164 -57 199 -48 60 -48 62 -35 75 16 16 30 2 67 -67 43 -80 50 -85
119 -85 106 1 183 43 232 125 l26 45 -46 97 c-49 106 -56 140 -102 468 -31
225 -47 682 -24 710 22 27 50 16 109 -40 82 -78 156 -110 252 -110 44 0 86 6
101 13 47 25 82 98 112 235 6 27 7 27 84 27 42 0 122 -7 177 -15 345 -52 743
-70 1354 -62 551 7 838 31 1258 102 111 19 229 35 263 35 59 0 61 -1 66 -29 8
-38 32 -48 174 -68 118 -16 120 -16 202 6 155 41 168 44 175 37 10 -10 -14
-138 -42 -223 -28 -82 -69 -148 -173 -274 -121 -148 -157 -218 -177 -340 -11
-69 -57 -124 -163 -192 -192 -125 -286 -283 -287 -482 0 -77 4 -97 26 -140
l25 -50 80 -3 c117 -5 336 17 441 44 100 26 294 95 356 125 33 18 37 23 37 59
0 41 -21 72 -147 220 -29 33 -53 65 -53 70 0 5 17 24 37 43 33 32 37 42 44
105 12 113 49 160 98 125 12 -8 36 -38 55 -67 61 -96 155 -119 234 -60 56 43
62 66 60 226 -3 162 5 197 94 438 71 191 130 301 199 371 33 34 62 74 69 96
17 52 20 54 62 41 35 -11 42 -9 117 35 44 26 87 47 94 47 8 0 22 -9 32 -20 29
-32 109 -28 168 10 61 38 97 46 296 65 126 12 167 13 178 4 57 -48 143 -284
199 -551 50 -235 53 -371 10 -535 -32 -120 -32 -113 14 -193 12 -21 20 -53 20
-82 l0 -48 -81 -63 c-58 -46 -97 -69 -138 -80 -108 -30 -188 -113 -212 -223
-23 -101 30 -336 81 -361 82 -41 539 27 634 94 21 16 56 53 78 83 35 50 40 64
50 154 10 92 13 101 48 142 70 80 86 166 45 245 -8 15 -15 42 -15 59 0 44 36
110 60 110 10 0 72 -20 136 -45 64 -25 124 -45 134 -45 35 0 140 150 166 238
20 69 14 97 -40 208 -23 49 -46 101 -49 115 -4 14 -30 61 -58 105 -185 283
-348 776 -274 830 10 8 29 14 42 14 13 0 65 15 116 34 115 43 176 59 213 54
26 -3 29 -6 27 -38 -15 -208 -2 -347 48 -498 20 -59 30 -72 176 -215 144 -141
193 -203 193 -242 0 -44 99 -192 135 -201 15 -4 57 10 126 42 l104 48 120 -2
c139 -3 137 -4 179 90 24 54 56 185 56 228 0 12 -12 32 -27 46 l-27 25 17 47
c22 61 31 235 19 341 l-10 84 -69 60 c-144 129 -203 205 -203 263 0 41 62 93
181 151 58 28 119 63 137 78 37 31 92 132 92 169 0 26 -39 85 -155 234 -141
182 -237 363 -346 652 -34 91 -77 199 -95 242 -19 42 -34 83 -34 91 0 59 -249
823 -354 1085 -174 436 -370 819 -495 971 -21 25 -59 78 -85 117 -57 88 -269
306 -356 366 -179 124 -405 238 -609 307 -124 43 -136 49 -154 81 -32 59 -66
99 -120 141 l-51 41 -105 -4 c-132 -4 -168 -20 -230 -102 l-44 -58 -76 8
c-120 14 -205 8 -371 -25 -199 -41 -325 -75 -425 -116 -44 -17 -113 -45 -153
-60 -41 -15 -94 -43 -119 -62 -25 -19 -56 -39 -70 -46 -22 -10 -28 -8 -49 16
-13 16 -24 34 -24 41 0 17 -71 82 -98 90 -12 4 -60 -2 -107 -13 -101 -24 -115
-25 -138 -8 -24 17 -51 155 -77 392 -12 105 -23 199 -26 210 -5 19 10 43 77
127 21 26 21 30 9 104 -6 43 -14 83 -17 91 -6 14 -117 80 -243 143 l-85 43
-160 -7 c-88 -4 -189 -9 -224 -13 l-64 -6 6 429 c5 382 8 453 32 644 30 245
38 290 57 301 7 5 50 9 96 9 76 0 85 2 109 26 l26 26 -6 186 c-6 209 -14 257
-82 477 -59 189 -97 271 -190 412 -101 151 -216 271 -335 348 -101 66 -136 98
-142 129 -3 21 5 27 111 89 104 61 123 126 72 246 -54 127 -57 197 -16 406 18
91 14 136 -23 245 -116 350 -292 543 -556 610 -96 24 -154 24 -268 0z m225
-45 c148 -31 243 -102 363 -269 l64 -89 0 -141 c-1 -214 -15 -360 -50 -506
l-32 -132 25 -26 c36 -39 66 -93 60 -108 -7 -20 -79 -18 -144 5 -195 67 -385
226 -542 455 -33 48 -90 118 -126 155 -54 55 -81 73 -144 99 -89 37 -165 57
-250 67 -34 4 -60 12 -63 20 -3 7 11 36 31 63 20 28 47 79 61 114 26 62 49 98
65 98 5 0 16 -14 24 -31 27 -50 155 -125 247 -144 40 -8 66 -42 73 -94 23
-172 168 -435 322 -586 86 -84 126 -107 201 -113 66 -6 68 8 5 44 -156 88
-249 172 -324 294 -78 127 -135 290 -146 420 -8 99 -23 114 -123 124 -81 7
-123 23 -128 47 -5 25 70 112 134 154 133 89 248 112 397 80z m-745 -657 c7
-7 12 -27 12 -45 0 -19 9 -60 19 -91 22 -65 37 -197 27 -237 -10 -38 -28 -20
-62 63 -39 93 -51 110 -96 133 -54 28 -48 79 9 79 31 0 37 19 19 55 -11 21
-12 32 -4 42 13 16 60 17 76 1z m240 -53 c82 -38 141 -85 170 -135 34 -57 219
-296 286 -367 28 -30 95 -85 150 -121 54 -37 99 -71 100 -77 0 -5 -30 -13 -68
-17 -115 -11 -306 -115 -402 -220 -23 -24 -94 -111 -158 -192 -153 -192 -173
-204 -281 -168 l-50 17 1 67 c1 41 15 114 38 195 20 71 45 181 55 245 22 127
41 417 41 630 0 75 3 143 6 152 9 23 51 20 112 -9z m1010 -211 l-12 -29 -4 41
c-1 22 3 53 10 70 l12 29 4 -41 c1 -22 -3 -53 -10 -70z m-1280 -107 c18 -31
42 -61 52 -67 17 -9 20 -21 20 -83 0 -94 -14 -223 -42 -375 -25 -142 -31 -149
-123 -138 -69 8 -78 23 -70 113 4 47 2 86 -5 108 -11 33 -9 40 15 76 38 58 31
74 -30 74 -48 0 -50 1 -53 29 -8 65 66 176 118 176 25 0 50 37 50 75 0 44 11
76 24 72 6 -2 25 -29 44 -60z m1280 -179 c15 -15 16 -55 0 -64 -14 -9 -38 23
-38 53 0 25 19 30 38 11z m-32 -130 c19 -30 -66 -50 -102 -24 -18 14 -18 15 6
25 34 14 87 13 96 -1z m-134 -166 c98 -43 73 -67 -92 -87 -182 -23 -280 -59
-492 -179 -95 -55 -57 23 57 113 80 64 173 120 264 158 48 20 68 23 137 20 51
-3 97 -12 126 -25z m55 -173 c40 -15 18 -24 -92 -38 -120 -16 -195 -34 -317
-76 -57 -19 -107 -35 -112 -35 -5 0 1 11 13 24 27 28 163 94 246 117 68 20
219 25 262 8z m-1547 -59 c137 -56 186 -103 215 -205 38 -131 47 -155 57 -155
7 0 8 15 4 40 -8 50 7 80 38 80 13 0 53 -17 87 -39 48 -28 65 -44 67 -63 3
-25 -110 -260 -128 -266 -5 -2 -16 32 -25 75 -28 128 -39 114 -29 -37 12 -205
11 -313 -3 -317 -12 -4 -13 -2 -39 212 -29 241 -78 448 -115 481 -18 16 -19
16 -19 -18 0 -19 9 -60 19 -91 51 -149 90 -426 77 -551 -5 -40 -11 -65 -17
-59 -5 5 -14 67 -19 138 -13 158 -42 340 -75 463 -42 156 -97 242 -179 281
-52 24 -62 37 -46 56 15 17 38 13 130 -25z m348 -78 c4 -49 -10 -72 -43 -72
-33 0 -48 23 -40 62 10 45 24 60 54 56 23 -3 26 -8 29 -46z m-613 19 c49 -22
144 -121 175 -181 28 -55 74 -234 96 -376 20 -133 24 -666 5 -809 -35 -266
-96 -505 -247 -967 -103 -315 -144 -458 -144 -509 0 -41 28 -123 55 -160 13
-19 33 -50 44 -69 10 -19 51 -70 89 -114 78 -86 76 -80 31 -168 l-23 -43 -9
33 c-8 26 -22 39 -61 59 -28 14 -64 35 -80 46 -43 30 -103 130 -133 221 -24
72 -27 97 -27 226 -1 137 2 153 36 280 21 74 57 194 82 265 24 72 61 177 80
234 68 196 141 601 167 916 12 145 6 393 -12 520 -25 183 -65 273 -180 405
-44 52 -85 105 -90 118 -12 31 4 60 44 77 42 19 54 18 102 -4z m1988 0 c32
-12 36 -36 7 -44 -15 -4 -20 -14 -20 -40 0 -65 18 -81 59 -55 17 10 28 6 78
-27 32 -21 52 -40 45 -43 -11 -3 -259 40 -304 54 -14 4 -18 17 -18 57 0 52
-13 88 -26 74 -4 -3 -11 -30 -15 -59 -5 -29 -16 -58 -25 -65 -19 -14 -105 -26
-154 -21 -35 3 -35 3 -41 61 -11 104 -33 91 -34 -20 l0 -75 -100 -30 c-55 -16
-129 -38 -165 -49 -61 -18 -66 -18 -77 -2 -20 26 -26 79 -13 103 13 24 66 50
105 50 22 0 25 -4 25 -35 0 -43 14 -45 29 -5 6 17 16 44 22 61 8 19 26 37 49
49 51 26 181 59 276 70 95 11 259 6 297 -9z m-1673 -305 c0 -46 -21 -17 -26
35 -5 43 -5 43 10 19 8 -14 15 -38 16 -54z m1591 64 c28 -16 26 -68 -4 -79
-30 -12 -315 -49 -322 -43 -3 3 -5 22 -5 43 0 51 22 71 73 67 35 -3 42 -7 47
-28 9 -39 36 -36 77 9 31 35 42 41 75 41 22 0 48 -5 59 -10z m-797 -52 c28
-63 21 -83 -32 -98 -51 -14 -51 -13 -62 16 -9 22 -13 24 -25 14 -8 -7 -22 -35
-30 -62 -21 -73 -33 -84 -61 -57 -28 26 -40 19 -54 -33 -19 -67 -151 -190
-177 -164 -16 16 22 91 70 141 29 29 60 65 70 79 10 15 42 40 70 56 29 16 84
59 122 94 39 36 73 65 78 66 4 0 18 -24 31 -52z m1001 2 c31 -12 43 -39 24
-51 -16 -10 -109 -12 -133 -3 -23 9 -20 30 6 48 26 18 65 20 103 6z m-633 -27
c10 -9 18 -30 18 -47 0 -27 -6 -33 -43 -48 -63 -26 -84 -24 -92 11 -15 69 68
129 117 84z m-198 -85 c3 -7 7 -31 10 -54 6 -40 5 -41 -39 -62 -66 -32 -68
-31 -63 39 3 45 10 65 23 75 24 17 64 18 69 2z m623 -26 c-9 -10 -23 -36 -30
-57 -19 -53 -55 -79 -114 -79 -47 -1 -48 -1 -51 33 -8 79 18 111 91 112 29 1
66 4 82 8 38 9 42 6 22 -17z m192 -17 c2 -10 -4 -33 -13 -50 -8 -16 -20 -42
-25 -57 -14 -38 -53 -37 -91 1 -26 25 -28 32 -20 61 16 57 37 69 110 66 26 -1
36 -6 39 -21z m-451 -3 c10 -7 10 -14 -3 -38 -8 -16 -15 -47 -15 -69 0 -22 -4
-45 -8 -52 -10 -15 -91 -35 -128 -31 -26 3 -29 7 -32 45 -3 36 2 47 34 82 24
27 52 46 83 55 56 18 53 17 69 8z m543 -52 c13 -45 10 -90 -6 -96 -20 -8 -57
17 -75 51 -14 26 -13 28 14 52 34 29 58 27 67 -7z m-1088 -3 c6 -17 -21 -95
-45 -130 -13 -19 -27 -27 -42 -25 -17 2 -21 9 -19 38 1 19 -3 38 -9 41 -15 9
1 34 42 64 37 27 65 32 73 12z m307 -69 c0 -93 -68 -159 -114 -112 -36 36 -12
92 52 121 43 19 62 16 62 -9z m-490 -78 c0 -33 -59 -104 -107 -129 -34 -17
-205 -72 -210 -67 -7 7 24 60 49 82 32 30 218 123 246 123 12 1 22 -4 22 -9z
m305 -11 c14 -22 9 -79 -10 -99 -36 -40 -64 -18 -65 49 0 44 56 81 75 50z
m815 -4 c33 -17 43 -43 38 -101 l-3 -39 -157 -3 -157 -3 -6 45 c-13 85 -55
103 -55 23 0 -75 -7 -85 -64 -97 -28 -7 -67 -10 -86 -8 -34 3 -35 5 -38 46 -2
27 3 53 12 67 38 58 434 112 516 70z m186 -16 c8 -6 21 -34 29 -63 14 -47 14
-52 -2 -63 -19 -14 -61 -17 -80 -5 -15 10 -46 119 -39 139 5 12 15 14 42 10
20 -3 42 -11 50 -18z m110 -66 c25 -59 30 -103 11 -103 -36 0 -67 71 -52 119
10 31 24 26 41 -16z m-1258 -10 c5 -32 -25 -83 -48 -83 -27 0 -42 32 -31 64
18 46 73 60 79 19z m354 -43 c10 -14 21 -42 24 -62 l6 -36 -83 -40 c-59 -28
-86 -37 -91 -29 -12 18 -9 116 3 139 11 21 85 59 108 55 8 -1 22 -13 33 -27z
m-482 -60 c0 -43 -14 -60 -52 -60 -52 0 -45 74 11 117 22 17 41 -10 41 -57z
m-162 -43 c3 -21 -5 -35 -28 -57 -35 -33 -61 -38 -80 -15 -19 23 -3 63 33 85
43 27 71 23 75 -13z m410 21 c7 -7 12 -31 12 -54 0 -77 -29 -123 -79 -124 -22
0 -23 2 -17 54 5 33 3 56 -3 60 -6 4 6 22 27 41 42 39 43 40 60 23z m924 -33
c128 -17 209 -37 242 -59 43 -28 38 -96 -7 -96 -23 0 -229 49 -237 57 -3 3 -5
21 -5 41 0 34 -2 37 -30 37 -27 0 -30 -3 -35 -39 -3 -22 -13 -44 -23 -50 -27
-17 -69 11 -80 54 -5 19 -14 38 -20 42 -18 11 -37 -21 -37 -62 0 -49 -15 -66
-77 -90 -62 -23 -63 -21 -63 80 l0 68 33 11 c17 5 41 12 52 14 44 10 180 6
287 -8z m-448 -47 c11 -15 16 -45 16 -90 0 -76 -5 -82 -80 -94 -55 -9 -70 9
-70 85 0 81 8 100 44 110 51 15 74 12 90 -11z m-624 -33 c0 -54 -24 -119 -42
-113 -21 7 -23 122 -3 142 30 30 45 20 45 -29z m429 -42 c-26 -140 -52 -184
-110 -186 -42 -2 -59 27 -59 104 0 41 5 60 18 71 20 18 143 68 153 62 4 -2 3
-25 -2 -51z m-540 13 c17 -20 10 -67 -11 -80 -13 -8 -22 -5 -41 12 l-24 22
-39 -52 -40 -53 -102 1 c-87 0 -106 3 -130 21 -35 26 -40 57 -10 77 17 12 48
16 128 16 84 1 119 6 175 25 85 29 80 28 94 11z m307 -102 c9 -35 -3 -113 -21
-141 -18 -27 -37 -29 -55 -8 -19 22 -8 129 15 155 25 28 53 26 61 -6z m-148
-94 c3 -67 1 -77 -19 -92 -29 -24 -71 -23 -103 3 -30 23 -42 18 -48 -21 -4
-31 -28 -38 -148 -39 -140 -1 -249 34 -258 84 -6 27 16 35 95 35 123 0 396 63
425 97 6 8 21 13 32 11 19 -3 21 -11 24 -78z m1047 -45 c0 -11 -11 -25 -25
-32 -22 -11 -28 -10 -44 7 -16 16 -17 21 -6 35 19 23 75 16 75 -10z m-163 -20
c9 -21 9 -29 -5 -42 -16 -16 -19 -15 -48 12 -35 34 -30 36 -82 -44 -24 -38
-52 -59 -63 -48 -9 9 40 84 79 120 40 37 102 39 119 2z m107 -192 c-13 -72
-33 -98 -55 -68 -8 10 -14 38 -14 62 0 34 6 50 26 70 22 22 28 24 40 12 11
-12 12 -26 3 -76z m91 36 c0 -51 -13 -89 -30 -89 -13 0 -13 55 1 103 14 53 29
46 29 -14z m-666 -4 c-1 -22 -6 -59 -13 -82 l-12 -43 -77 0 c-105 0 -344 18
-416 31 -33 6 -77 18 -99 26 -65 26 -24 34 222 43 225 7 227 8 296 38 88 40
100 38 99 -13z m-4651 4 c35 -17 198 -192 194 -209 -2 -12 -17 -15 -67 -14
-81 0 -106 16 -160 96 -43 65 -51 110 -22 127 22 13 29 13 55 0z m5103 -4 c3
-8 -1 -24 -10 -37 -9 -12 -16 -35 -16 -51 0 -16 -5 -37 -11 -48 -8 -16 -13
-18 -25 -8 -33 28 -3 159 37 159 11 0 22 -7 25 -15z m-1255 -35 c23 -13 25
-36 3 -44 -48 -18 -103 5 -90 39 6 17 58 20 87 5z m1123 -27 c7 -18 -2 -93
-13 -112 -4 -6 -21 -13 -37 -14 -40 -3 -43 29 -8 93 28 52 47 62 58 33z m-114
-21 c0 -23 -26 -59 -36 -50 -8 9 15 68 27 68 5 0 9 -8 9 -18z m-667 -97 c303
-37 357 -47 357 -70 0 -24 -67 -28 -235 -16 -271 19 -455 60 -463 104 -5 23
-2 23 341 -18z m625 -17 c-3 -35 -28 -52 -28 -20 0 28 10 52 22 52 5 0 8 -14
6 -32z m-4983 -63 c240 -25 389 -57 431 -90 33 -26 27 -55 -10 -55 -114 0
-263 -365 -287 -703 -13 -184 3 -477 35 -657 13 -74 23 -136 22 -137 -1 -1
-31 2 -66 7 -120 18 -112 21 -164 -82 -53 -110 -89 -218 -90 -273 -1 -37 2
-41 42 -62 73 -36 75 -40 69 -108 -3 -33 -12 -78 -20 -100 l-14 -40 -154 -6
c-85 -3 -155 -7 -156 -7 -2 -1 -3 -7 -3 -13 0 -22 77 -41 192 -46 158 -8 157
-9 187 138 31 154 28 175 -31 219 -27 19 -48 42 -48 52 0 25 56 184 77 221 19
31 21 32 92 32 64 0 75 -3 91 -23 10 -12 42 -93 71 -180 59 -177 120 -325 203
-490 l57 -114 -33 7 c-75 15 -287 110 -303 135 -17 28 -24 0 -23 -92 2 -90 -1
-109 -21 -152 -29 -58 -84 -97 -164 -115 -31 -7 -58 -19 -61 -27 -3 -9 12 -45
34 -82 56 -92 92 -207 97 -312 5 -79 3 -89 -24 -140 -50 -95 -188 -170 -314
-170 -32 0 -61 4 -64 10 -3 5 -13 69 -21 142 -9 73 -29 195 -45 271 -44 208
-42 216 42 177 48 -21 94 -26 104 -10 11 17 27 213 20 247 -7 39 -50 93 -75
93 -50 0 -50 -69 1 -96 31 -16 31 -17 25 -71 -14 -119 -36 -121 -241 -18 -222
112 -255 112 -255 -1 0 -72 18 -87 40 -34 7 17 16 30 20 30 21 0 44 -105 55
-246 l7 -91 -73 -78 c-40 -42 -86 -84 -103 -92 -37 -19 -122 -12 -166 14 -42
24 -97 107 -111 168 -6 28 -24 73 -39 100 -50 91 -64 151 -64 265 1 105 28
247 69 360 40 111 45 163 55 516 14 518 21 565 128 834 66 164 99 231 119 237
7 3 50 -31 96 -75 46 -43 104 -89 129 -100 59 -29 162 -29 251 -2 65 20 118
53 105 65 -3 4 -60 17 -126 30 -66 13 -143 33 -171 46 -105 45 -221 216 -221
326 0 86 17 93 167 71 75 -11 99 -10 231 11 81 12 200 26 264 31 128 9 178 26
197 66 9 20 8 26 -5 31 -30 11 -174 -7 -374 -47 -224 -45 -258 -48 -267 -23
-8 21 40 114 86 166 41 46 146 102 251 133 91 28 74 27 245 9z m3969 -1 c18
-17 22 -99 6 -124 -15 -24 -43 1 -59 53 -13 43 -13 48 4 67 22 24 29 25 49 4z
m1381 -3 c7 -23 -9 -132 -24 -160 -12 -22 -99 -44 -153 -39 -32 3 -33 4 -30
47 3 48 26 111 40 111 5 0 21 -27 35 -59 14 -32 30 -62 36 -65 18 -11 39 36
46 104 4 36 9 68 12 73 8 14 32 7 38 -12z m75 -151 c-11 -21 -45 -28 -38 -7 3
6 13 43 24 80 l19 69 3 -61 c2 -33 -2 -70 -8 -81z m-1274 99 c3 -6 -2 -35 -12
-64 -14 -44 -16 -59 -6 -80 17 -37 45 -29 52 15 9 50 27 79 55 86 37 9 58 -2
52 -29 -3 -12 -9 -51 -13 -87 -4 -36 -9 -68 -11 -72 -2 -5 -21 0 -41 11 -20
10 -66 21 -100 25 -55 5 -68 3 -89 -14 -14 -11 -32 -20 -40 -20 -7 0 -32 -9
-54 -20 -46 -24 -59 -20 -59 20 0 39 -15 46 -28 12 -20 -52 -62 -233 -62 -267
0 -14 -37 -35 -59 -35 -39 0 -55 22 -48 67 10 62 121 276 162 311 41 37 49 38
100 16 20 -8 49 -14 64 -12 24 3 26 8 32 60 4 32 12 65 19 73 14 17 76 20 86
4z m889 -39 c10 -11 20 -41 23 -68 4 -44 1 -53 -24 -80 -56 -59 -99 -50 -99
20 2 124 49 185 100 128z m-487 -16 c14 -4 22 -14 22 -29 0 -12 9 -30 20 -40
12 -11 20 -31 20 -51 0 -35 -18 -84 -31 -84 -9 0 -19 26 -19 50 0 28 -19 35
-36 14 -14 -18 -14 -18 -30 1 -10 13 -13 31 -9 53 13 72 -55 40 -70 -33 -12
-57 -16 -65 -35 -65 -28 0 -40 30 -40 96 0 82 14 94 109 94 42 0 86 -3 99 -6z
m-3750 -19 c89 -18 149 -42 156 -62 6 -13 -1 -15 -41 -9 -27 4 -70 9 -98 12
-48 5 -49 4 -25 -10 14 -9 81 -34 150 -56 131 -42 170 -61 170 -86 0 -8 -33
-50 -74 -94 -136 -145 -343 -452 -452 -670 -73 -145 -144 -402 -163 -589 -6
-61 -13 -86 -25 -93 -15 -8 -16 -26 -10 -164 5 -116 4 -154 -5 -154 -37 0
-133 346 -177 640 -21 146 -30 518 -14 650 24 215 103 454 166 510 54 47 164
98 164 75 0 -2 -17 -49 -39 -102 -100 -251 -136 -554 -129 -1083 3 -270 8
-330 27 -330 3 0 6 116 7 258 0 202 5 297 23 441 69 574 155 871 252 871 23 0
24 9 2 25 -9 7 -13 17 -9 23 10 16 61 15 144 -3z m4062 0 c8 -10 11 -41 9 -94
-4 -67 -8 -83 -28 -105 -31 -33 -86 -36 -94 -6 -6 23 16 139 32 169 26 49 59
63 81 36z m537 -176 c16 -31 17 -101 1 -117 -7 -7 -22 -12 -35 -12 -27 0 -30
27 -12 110 12 54 25 60 46 19z m-157 -95 c0 -47 -5 -75 -13 -82 -18 -16 -55
-4 -63 20 -9 31 4 100 27 138 20 32 22 33 35 15 9 -12 14 -45 14 -91z m-1143
5 c44 -28 89 -80 104 -126 7 -21 13 -82 14 -136 0 -98 0 -99 -31 -127 -65 -57
-164 -48 -241 23 -104 96 -119 214 -40 319 59 77 119 92 194 47z m341 -5 c30
-20 30 -92 0 -169 -29 -76 -98 -146 -98 -100 0 9 11 20 25 25 30 11 34 54 10
101 -16 31 -24 127 -11 147 10 17 47 15 74 -4z m611 -11 c6 -16 17 -56 25 -91
13 -57 13 -64 -1 -69 -19 -8 -62 17 -87 50 -18 25 -18 26 7 81 14 31 30 56 35
56 5 0 15 -12 21 -27z m-143 -68 c-6 -51 0 -79 29 -147 6 -15 1 -18 -32 -18
-57 0 -83 22 -83 71 0 58 48 149 78 149 12 0 14 -10 8 -55z m-3506 0 c39 -20
70 -44 70 -56 0 -4 -48 -43 -107 -87 -125 -91 -260 -212 -366 -328 -189 -206
-262 -340 -345 -639 -48 -168 -60 -263 -67 -491 -3 -115 -8 -225 -11 -244 l-6
-35 -13 26 c-8 14 -32 75 -55 135 l-42 109 6 145 c15 380 125 791 267 1001 73
110 218 296 307 396 l85 96 121 -5 c89 -4 130 -10 156 -23z m3344 -17 c15 -82
25 -193 17 -201 -23 -23 -111 55 -111 99 0 49 46 124 77 124 7 0 15 -10 17
-22z m-1254 -87 c-6 -23 -15 -41 -20 -41 -16 0 -11 56 8 96 16 36 17 36 20 11
2 -14 -2 -44 -8 -66z m1841 23 c8 -10 13 -38 12 -75 -3 -97 -35 -129 -60 -58
-19 54 -16 126 5 138 23 14 27 14 43 -5z m118 -73 c9 -47 10 -66 1 -75 -19
-19 -30 14 -30 94 1 85 11 78 29 -19z m-1822 3 c7 -18 -12 -111 -27 -134 -9
-13 -12 -12 -25 4 -21 27 -19 75 5 114 22 35 37 41 47 16z m1550 -23 c14 -21
23 -49 23 -72 0 -35 -4 -41 -40 -59 -23 -11 -46 -18 -52 -14 -12 7 -7 152 6
173 13 20 39 8 63 -28z m-1381 -46 c4 -9 -3 -38 -15 -65 -11 -27 -21 -64 -21
-82 0 -51 -12 -63 -37 -36 -34 38 -43 64 -43 123 0 48 3 57 23 65 36 14 87 12
93 -5z m1212 -21 c44 -30 25 -109 -41 -172 -45 -44 -73 -40 -70 8 10 148 15
165 56 173 12 2 24 5 27 6 3 0 16 -6 28 -15z m-177 -75 c20 -38 -14 -142 -64
-196 -45 -50 -57 -22 -45 110 3 43 12 84 18 92 19 23 77 19 91 -6z m-967 -11
c7 -13 19 -41 26 -63 18 -57 25 -61 60 -31 39 32 41 32 80 0 41 -35 57 -68 75
-156 9 -39 23 -80 32 -90 15 -17 15 -20 -6 -42 -33 -35 -130 -75 -199 -82 -90
-10 -125 0 -159 44 -26 34 -28 43 -28 127 l0 90 90 -3 c50 -2 107 -8 128 -13
l37 -10 0 -69 c0 -71 11 -95 29 -61 14 25 14 122 0 158 -13 35 -25 43 -69 43
-47 1 -112 31 -139 66 -16 21 -20 35 -15 58 12 57 35 70 58 34z m784 -43 c2
-40 -15 -87 -33 -89 -16 -2 -55 65 -55 94 0 36 8 42 50 38 33 -3 35 -5 38 -43z
m-2984 16 c13 -21 -58 -48 -83 -32 -26 17 -4 41 38 41 22 0 42 -4 45 -9z
m3676 -18 c16 -21 20 -38 18 -77 -3 -47 -5 -51 -28 -51 -22 0 -25 6 -33 50 -4
27 -13 55 -19 62 -14 18 -2 43 21 43 11 0 29 -12 41 -27z m126 -60 c6 -43 -1
-83 -16 -83 -5 0 -11 30 -15 68 -4 37 -9 76 -11 87 -5 17 -2 16 15 -5 11 -14
23 -44 27 -67z m-4061 18 c26 10 41 10 53 3 40 -26 90 -172 63 -188 -6 -4 -24
0 -41 9 -39 20 -180 160 -180 179 0 23 23 25 47 4 19 -18 25 -19 58 -7z m3799
6 c14 -10 19 -28 20 -73 1 -59 1 -59 -29 -62 -28 -2 -32 1 -53 55 -30 78 -30
75 -2 84 37 11 44 10 64 -4z m-1597 -27 c59 -44 74 -83 71 -182 -4 -117 -20
-111 -82 27 -53 119 -69 185 -44 185 8 0 32 -14 55 -30z m-1835 -2 c19 -19 20
-23 7 -26 -25 -5 -69 16 -69 33 0 22 37 18 62 -7z m2448 -2 c-25 -13 -49 -21
-54 -18 -17 10 36 42 68 42 l31 -1 -45 -23z m846 -38 c14 -46 8 -117 -13 -146
-31 -41 -49 -40 -56 5 -8 50 6 119 28 143 23 26 32 25 41 -2z m-627 -34 c45
-52 51 -69 21 -61 -28 7 -82 -9 -113 -33 -42 -33 -61 -160 -23 -160 6 0 52 36
101 80 49 43 93 76 97 72 14 -15 78 -135 74 -139 -2 -3 -29 -8 -60 -12 -61 -8
-71 -17 -107 -88 -21 -43 -23 -94 -4 -100 6 -2 50 35 99 82 48 47 93 84 100
82 14 -4 85 -136 86 -159 0 -22 -1 -22 -44 -1 -29 13 -39 14 -65 3 -36 -15
-52 -38 -75 -107 -10 -29 -22 -53 -27 -53 -12 0 -68 76 -85 116 -7 17 -20 36
-28 43 -9 7 -46 70 -82 139 -116 220 -108 199 -94 233 15 36 62 73 116 93 60
22 69 20 113 -30z m-2457 9 c10 -20 23 -29 47 -33 56 -8 49 -28 -23 -60 -36
-17 -74 -30 -84 -30 -26 0 -116 80 -104 92 11 11 122 57 139 58 7 0 18 -12 25
-27z m-660 -45 c40 -35 99 -83 133 -108 33 -25 61 -53 63 -63 3 -16 -51 -158
-68 -180 -7 -9 -79 74 -110 126 -13 21 -39 44 -63 56 -55 28 -157 118 -157
140 0 29 80 91 117 91 7 0 45 -28 85 -62z m330 31 c14 -11 38 -33 52 -50 23
-27 26 -39 26 -112 0 -106 -7 -118 -55 -93 -20 11 -52 37 -71 58 -33 37 -34
40 -34 126 0 49 3 92 7 95 9 10 42 -1 75 -24z m3276 -31 c16 -16 15 -55 -4
-111 -30 -87 -59 -78 -85 26 -12 51 -5 71 36 87 29 12 39 12 53 -2z m-3873
-88 c10 -19 15 -57 15 -114 0 -47 4 -87 9 -91 18 -10 51 46 51 86 0 24 5 39
12 39 7 0 34 -24 60 -52 46 -51 48 -55 48 -114 0 -76 -22 -111 -63 -100 -20 5
-29 16 -37 47 -8 29 -20 45 -42 57 -108 59 -147 163 -93 246 10 14 19 26 21
26 2 0 10 -13 19 -30z m1080 -2 c47 -21 66 -88 26 -88 -10 0 -30 -9 -44 -20
-33 -27 -46 -25 -87 8 l-34 29 32 11 c18 6 35 19 39 29 8 24 23 43 34 43 4 0
20 -5 34 -12z m3275 -39 c0 -27 -30 -69 -49 -69 -26 0 -21 70 7 102 20 24 42
6 42 -33z m505 41 c9 -14 -29 -28 -126 -44 -104 -17 -195 -55 -240 -102 -18
-19 -29 -34 -23 -34 5 0 41 16 80 36 94 48 221 67 399 61 149 -4 226 -27 270
-78 32 -38 31 -47 -2 -60 -21 -8 -42 -5 -97 12 -136 42 -488 36 -591 -10 -22
-10 -56 -35 -74 -55 -40 -42 -61 -46 -61 -12 0 15 -7 26 -20 29 -55 14 12 129
110 189 86 52 355 101 375 68z m-636 -24 c7 -8 11 -30 9 -48 -4 -40 -48 -69
-74 -48 -17 15 -19 81 -2 98 16 16 53 15 67 -2z m-3402 -44 c39 -36 53 -82 59
-202 7 -121 -2 -140 -60 -116 -47 20 -46 20 -46 -1 0 -10 18 -40 40 -68 21
-27 82 -113 135 -190 52 -77 110 -157 127 -178 45 -53 44 -99 -1 -162 -43 -61
-30 -77 29 -34 62 45 83 35 136 -66 63 -120 63 -120 11 -143 -48 -21 -81 -60
-94 -112 -5 -18 -14 -35 -20 -37 -24 -8 -102 141 -103 195 0 15 -17 40 -43 66
-49 48 -97 139 -97 186 0 36 11 60 51 111 32 41 36 59 15 59 -20 0 -63 -54
-71 -90 -4 -16 -12 -30 -19 -30 -19 0 -55 43 -91 107 l-33 56 39 71 c38 69 48
106 30 106 -9 0 -62 -53 -99 -99 l-19 -25 -38 56 c-63 96 -64 155 -4 238 56
78 78 138 85 235 3 50 7 96 10 103 5 16 29 4 71 -36z m3273 -34 c10 -23 16
-46 14 -50 -3 -5 -38 -30 -78 -57 -40 -27 -80 -60 -89 -73 -16 -22 -17 -23
-32 -4 -20 26 -30 85 -17 98 8 8 18 6 36 -6 36 -23 46 -20 47 17 2 58 13 81
49 99 19 10 39 18 43 18 4 0 16 -19 27 -42z m-2724 -88 c26 0 6 -15 -37 -29
-19 -6 -51 -27 -69 -46 -48 -50 -83 -46 -123 15 -16 22 -15 25 2 45 11 11 21
29 23 39 2 15 11 20 33 20 17 1 32 6 33 11 17 47 22 47 72 -5 27 -27 57 -50
66 -50z m-816 14 c39 -26 110 -97 110 -110 0 -6 -13 -17 -29 -24 -45 -18 -62
-44 -70 -101 -3 -29 -11 -54 -17 -56 -13 -4 -59 51 -98 119 -26 45 -26 47 -11
84 20 48 62 104 78 104 7 0 24 -7 37 -16z m2585 6 c7 -11 -81 -57 -185 -95
-59 -22 -93 -28 -162 -29 -76 -1 -110 5 -97 18 2 2 45 11 94 20 90 15 157 34
265 75 62 23 76 25 85 11z m-2130 -54 c80 -105 106 -329 46 -389 l-21 -21 -31
29 c-40 40 -89 114 -89 137 0 10 7 30 16 43 11 17 18 58 22 130 6 118 14 128
57 71z m-1111 11 c16 -12 16 -15 -3 -67 -45 -118 -70 -138 -107 -83 -15 23
-15 27 -1 35 9 5 19 25 23 46 12 73 46 99 88 69z m5118 -57 c119 -17 113 -8
114 -178 2 -247 57 -755 86 -789 16 -20 -11 -44 -110 -97 -122 -65 -214 -137
-278 -217 -30 -38 -59 -69 -64 -69 -18 0 -59 68 -131 218 l-73 154 18 71 c35
134 47 168 59 164 18 -6 19 -46 4 -120 -7 -37 -11 -67 -7 -67 13 0 80 206 80
247 0 12 -7 23 -17 25 -14 3 -11 8 13 20 17 9 36 24 43 32 15 18 86 22 96 6 4
-6 -7 -26 -24 -45 -35 -41 -75 -155 -53 -155 4 0 15 23 25 51 10 27 31 64 47
82 25 28 29 30 35 14 22 -55 -26 -169 -138 -326 -37 -51 -67 -98 -67 -102 0
-36 98 56 193 179 l75 97 -9 95 c-14 156 -48 240 -97 240 -40 0 -138 -23 -172
-40 -55 -28 -89 -68 -132 -155 -43 -85 -64 -115 -82 -114 -6 0 -28 35 -49 77
-20 42 -60 106 -87 142 -27 36 -49 71 -50 78 0 13 132 103 208 141 53 27 56
57 11 124 -54 82 -36 141 56 184 30 13 83 28 117 32 90 12 281 12 360 1z
m-2495 -17 c77 -24 67 -37 -23 -30 -83 6 -89 9 -81 32 8 19 37 19 104 -2z
m1598 -7 c11 -16 15 -41 13 -73 -3 -46 -4 -48 -34 -51 -28 -3 -32 0 -38 29 -8
41 -8 104 1 112 14 15 43 6 58 -17z m-3774 -60 c13 -48 8 -211 -8 -227 -14
-14 -113 97 -113 127 0 12 9 41 20 65 11 24 20 53 20 65 0 61 62 39 81 -30z
m2855 62 c10 -16 -18 -33 -115 -68 -98 -36 -206 -46 -206 -20 0 9 15 18 40 23
48 10 111 29 185 56 63 23 86 26 96 9z m-3196 -23 c26 -13 77 -72 69 -79 -2
-1 -20 -7 -39 -12 -29 -8 -39 -18 -59 -62 -39 -83 -71 -62 -71 48 0 105 33
140 100 105z m1406 -16 c23 -14 34 -28 34 -44 0 -27 -54 -95 -75 -95 -7 0 -32
23 -56 51 l-43 52 32 28 c38 34 63 36 108 8z m-170 -145 c47 -97 41 -220 -14
-285 -29 -35 -52 -37 -88 -5 l-28 23 17 79 c9 43 19 128 23 187 l7 108 29 -28
c16 -15 40 -51 54 -79z m1402 86 c48 -30 62 -72 62 -192 0 -172 -19 -210 -168
-341 -53 -46 -144 -128 -202 -182 -130 -121 -180 -159 -194 -145 -29 29 64
243 161 370 77 101 178 269 198 331 9 27 26 55 36 62 24 15 24 23 -2 55 l-20
27 21 17 c29 24 67 23 108 -2z m677 -21 c60 -53 86 -129 49 -143 -24 -9 -297
-7 -312 3 -17 10 -7 73 17 102 16 19 145 66 188 68 12 1 38 -13 58 -30z m679
15 c16 -6 23 -34 9 -34 -5 0 -17 -3 -29 -6 -23 -6 -58 21 -49 37 7 10 46 12
69 3z m-4216 -114 c30 -60 37 -89 40 -147 3 -40 8 -73 13 -73 18 0 39 47 39
87 0 24 4 43 9 43 22 0 196 -233 207 -277 14 -53 -33 -184 -67 -191 -10 -2
-30 18 -50 50 -50 75 -52 83 -25 115 34 41 46 68 46 102 0 41 -10 39 -49 -9
-45 -56 -69 -54 -117 12 -20 29 -66 85 -101 125 -34 40 -63 76 -63 80 1 5 7
19 15 33 8 14 14 44 15 67 0 23 5 54 11 70 10 27 11 28 26 8 8 -11 32 -54 51
-95z m3808 66 c8 -20 -13 -147 -26 -160 -7 -7 -22 2 -51 29 -60 59 -66 73 -33
85 15 6 40 22 56 35 34 29 46 31 54 11z m-3093 -46 c29 -34 47 -106 47 -189 0
-48 -4 -61 -24 -80 -34 -32 -64 -24 -103 27 -41 54 -52 91 -31 103 9 5 21 37
28 76 19 101 39 116 83 63z m1061 6 c3 -13 24 -39 46 -56 l40 -32 -41 -47
c-45 -54 -54 -97 -25 -115 12 -7 20 -7 22 -1 2 6 14 26 26 45 15 25 22 31 26
20 7 -22 64 -80 79 -80 21 0 93 -71 93 -92 0 -27 -19 -60 -31 -53 -5 4 -9 22
-9 41 0 56 -25 55 -77 -5 l-46 -52 -23 22 c-13 12 -41 56 -63 99 -22 42 -48
83 -57 91 -20 16 -94 128 -94 141 0 4 16 8 35 8 31 0 35 3 35 26 0 58 51 90
64 40z m1381 -1 c30 -29 32 -73 10 -160 -35 -134 -118 -228 -420 -479 -213
-178 -292 -251 -352 -328 -24 -32 -51 -58 -60 -58 -43 0 28 145 116 237 22 23
85 74 139 112 177 127 354 300 434 425 33 51 33 51 30 163 l-3 113 41 0 c30 0
47 -7 65 -25z m-2779 -29 c40 -40 42 -53 10 -66 -32 -12 -46 -39 -46 -89 0
-29 -4 -41 -14 -41 -14 0 -106 97 -106 113 0 11 45 80 65 100 25 26 54 20 91
-17z m3619 0 c100 -24 230 -29 375 -15 203 19 204 19 208 -12 2 -14 -6 -36
-17 -51 -26 -32 -228 -162 -385 -245 -65 -35 -132 -75 -148 -88 -16 -14 -34
-25 -40 -25 -6 0 -62 -29 -124 -65 -62 -36 -119 -65 -125 -65 -7 0 -37 19 -66
42 l-54 41 60 55 c109 96 191 231 212 348 19 107 11 101 104 80z m-1687 -93
c7 -50 -86 -365 -168 -568 -27 -66 -70 -174 -96 -240 -25 -66 -85 -199 -133
-296 -140 -282 -268 -465 -476 -678 -270 -277 -558 -461 -855 -546 -215 -62
-351 -58 -396 10 -30 46 -3 59 176 89 367 61 499 124 758 359 229 207 369 377
567 687 140 219 210 360 300 610 37 102 91 246 120 320 28 74 60 157 70 185
25 67 56 97 98 93 24 -2 33 -8 35 -25z m166 12 c3 -8 0 -28 -6 -45 -9 -27 -7
-34 12 -55 l22 -23 -26 -38 c-14 -21 -26 -44 -26 -50 0 -7 -6 -14 -13 -17 -8
-3 -24 -27 -36 -54 -13 -26 -36 -65 -52 -86 -17 -20 -35 -51 -41 -67 -5 -17
-19 -35 -31 -41 -18 -10 -20 -9 -14 18 9 43 114 338 147 410 28 61 52 79 64
48z m-876 -72 c53 -68 65 -100 52 -139 -7 -20 -15 -85 -19 -146 -6 -87 -11
-113 -25 -123 -37 -28 -93 10 -133 90 -14 28 -34 62 -45 77 -22 31 -19 39 29
81 40 35 59 68 68 122 9 46 22 75 35 75 4 0 22 -17 38 -37z m-1106 -12 c9 -18
25 -43 36 -55 11 -11 25 -32 32 -45 11 -21 9 -26 -13 -45 -23 -19 -30 -37 -52
-130 -6 -29 -7 -28 -56 45 -87 129 -86 124 -45 173 19 24 41 55 47 70 15 33
29 29 51 -13z m3077 24 c124 -7 171 -23 171 -58 0 -40 -23 -51 -93 -44 -69 7
-293 69 -310 86 -20 20 13 31 73 26 30 -2 102 -7 159 -10z m-2706 -33 c27 -29
47 -88 47 -136 0 -49 -40 -170 -63 -194 -13 -13 -19 -9 -49 33 -19 26 -43 62
-53 81 l-18 34 42 45 c30 33 41 53 41 77 0 74 20 96 53 60z m2484 -114 c4 -7
10 -40 13 -73 6 -70 28 -82 47 -25 l11 35 79 -2 c43 -1 92 -5 110 -8 l32 -6
-40 -36 c-56 -51 -66 -79 -39 -114 11 -16 20 -33 20 -39 0 -15 -26 -12 -40 5
-7 8 -89 55 -184 105 -184 98 -221 124 -196 140 10 6 23 4 39 -6 22 -15 25
-15 50 10 28 28 83 36 98 14z m-3357 -28 c27 -27 25 -49 -5 -60 -14 -5 -45
-28 -70 -51 -37 -35 -47 -39 -60 -29 -19 15 -20 100 -2 122 33 41 104 51 137
18z m1769 -60 c33 -62 34 -66 34 -184 1 -111 -2 -129 -31 -213 -35 -101 -40
-132 -18 -114 36 30 67 130 77 248 5 64 11 119 14 121 9 9 52 -38 75 -82 l23
-42 -38 -109 c-48 -141 -109 -273 -131 -282 -24 -9 -33 6 -115 203 l-72 174
50 53 50 53 7 104 c11 166 20 174 75 70z m5841 41 c36 -17 47 -42 36 -86 -8
-33 -82 -60 -138 -51 -52 8 -139 50 -169 82 -19 20 -21 28 -11 48 7 15 22 26
39 29 55 8 208 -5 243 -22z m-6585 -80 c27 -38 30 -51 30 -114 0 -59 -5 -83
-29 -130 -19 -40 -25 -62 -18 -69 18 -18 49 10 77 68 14 30 32 54 38 52 20 -6
77 -128 77 -164 0 -73 -76 -214 -116 -214 -22 0 -63 63 -100 156 -19 49 -56
133 -81 187 l-47 97 42 43 c24 24 49 63 58 90 9 26 21 46 28 44 6 -2 25 -23
41 -46z m3369 21 c41 -37 187 -274 602 -979 118 -200 280 -472 362 -605 192
-315 244 -403 522 -888 128 -223 326 -562 440 -755 114 -192 256 -438 315
-545 60 -107 201 -355 314 -550 113 -195 215 -375 228 -399 29 -56 30 -104 2
-130 -80 -74 -157 -11 -359 289 -144 215 -287 440 -460 725 -142 233 -486 758
-577 880 -41 55 -93 132 -115 170 -128 222 -568 909 -679 1061 -24 33 -87 133
-139 222 -343 584 -553 918 -737 1173 -52 72 -86 130 -90 151 -5 31 -1 38 33
67 40 32 196 117 243 132 33 10 71 2 95 -19z m-3723 -13 c43 -46 46 -71 14
-113 -29 -38 -41 -90 -31 -132 8 -29 19 -24 40 18 8 17 21 24 49 26 32 3 43
-2 72 -31 47 -47 46 -77 -4 -125 -28 -26 -43 -52 -52 -85 -6 -27 -17 -46 -23
-44 -6 2 -25 37 -42 78 -17 41 -43 92 -58 114 -41 58 -73 126 -81 166 -12 66
30 159 71 159 9 0 29 -14 45 -31z m6483 21 c47 -18 31 -37 -41 -49 -131 -23
-387 -83 -494 -117 -213 -68 -345 -137 -459 -241 -72 -66 -98 -79 -116 -61 -8
7 -19 39 -25 71 -9 46 -9 60 2 73 39 47 225 150 357 198 241 86 689 159 776
126z m-5166 -89 c4 -70 -11 -86 -44 -48 -34 40 -42 77 -18 94 10 8 28 12 39
11 17 -3 21 -12 23 -57z m-1885 16 c66 -70 111 -146 225 -374 98 -196 125
-260 126 -294 1 -23 -4 -44 -10 -46 -6 -2 -28 10 -49 27 -21 17 -50 33 -64 36
-58 12 -80 28 -115 78 -41 60 -45 92 -15 130 17 22 28 26 70 26 56 0 61 10 22
38 -36 26 -96 42 -156 42 -43 0 -49 3 -67 33 -28 46 -25 78 10 112 17 16 30
34 30 41 0 24 -39 26 -80 3 -47 -27 -56 -22 -90 51 -22 47 -23 51 -6 69 47 52
133 66 169 28z m3104 8 l36 -15 -21 -23 c-12 -13 -28 -41 -35 -62 -18 -53 -39
-55 -128 -9 -68 34 -72 37 -54 50 10 8 24 14 30 14 6 0 22 14 37 30 30 35 75
40 135 15z m-2778 -59 c37 -64 38 -95 7 -161 -45 -98 -77 -97 -131 6 -20 39
-35 72 -33 73 1 2 17 11 34 19 29 15 37 28 64 100 13 35 21 30 59 -37z m7393
18 c67 -34 108 -64 108 -80 0 -7 -16 -16 -35 -20 -39 -7 -72 12 -124 71 -54
61 -34 72 51 29z m-502 -22 c0 -37 -41 -155 -74 -212 -53 -94 -136 -358 -136
-434 0 -56 15 -59 244 -53 202 6 344 26 413 59 52 24 42 82 -71 433 -30 93
-53 171 -51 173 8 8 53 -30 86 -75 48 -63 80 -127 151 -306 101 -257 106 -262
212 -262 98 1 297 70 359 126 l42 37 -20 37 c-25 49 -240 267 -283 289 -35 18
-38 41 -6 40 20 0 259 -145 326 -197 21 -15 47 -42 59 -59 l22 -30 -34 7 -34
8 36 -44 c20 -24 41 -54 48 -66 6 -12 35 -53 63 -90 68 -89 128 -197 306 -553
220 -441 305 -656 501 -1260 94 -292 209 -620 226 -647 8 -12 22 -57 31 -100
8 -43 33 -121 54 -173 22 -52 42 -108 46 -125 11 -48 90 -198 117 -223 19 -18
27 -38 32 -85 5 -41 20 -84 46 -134 41 -77 51 -133 24 -133 -17 0 -55 56 -55
81 0 9 -16 46 -36 83 -69 130 -233 524 -292 701 -17 50 -90 272 -162 495 -131
402 -288 839 -373 1040 -59 140 -129 291 -134 287 -6 -7 34 -111 70 -182 19
-39 40 -90 46 -113 7 -23 25 -72 42 -109 17 -38 38 -90 46 -118 8 -27 81 -257
163 -510 82 -253 158 -496 170 -540 30 -113 164 -510 217 -640 64 -158 166
-364 202 -409 36 -45 35 -54 -6 -32 -46 23 -125 99 -239 227 -102 115 -159
167 -171 155 -3 -3 2 -25 11 -49 21 -56 21 -54 -16 -65 -85 -26 -88 -25 -88
11 0 45 27 132 45 147 8 7 15 21 15 31 0 9 -41 89 -90 176 -110 192 -327 622
-399 793 -81 190 -199 407 -324 595 -175 263 -285 397 -309 377 -16 -13 -177
-54 -188 -47 -4 3 -11 17 -15 32 -3 16 -13 43 -22 60 -8 18 -13 40 -9 48 10
26 76 18 154 -20 40 -19 72 -30 72 -25 0 5 -26 38 -58 72 -32 35 -80 90 -106
123 -95 118 -279 229 -380 230 -49 0 -51 -1 -48 -25 1 -14 30 -90 63 -170 80
-191 187 -509 233 -690 21 -80 50 -185 66 -235 27 -86 120 -432 285 -1060 42
-159 85 -310 97 -335 11 -25 20 -58 19 -73 -2 -37 15 -67 39 -67 26 0 30 -10
39 -101 5 -46 15 -87 24 -97 8 -9 20 -40 25 -68 6 -28 32 -90 57 -139 76 -144
57 -189 -78 -183 l-67 4 -71 69 c-82 82 -109 123 -149 234 -76 208 -145 291
-242 291 -36 0 -135 -56 -172 -98 -16 -19 -17 -23 -4 -36 8 -8 18 -37 21 -65
3 -28 28 -104 55 -168 59 -141 78 -199 93 -276 19 -105 -17 -158 -93 -137
-108 30 -189 161 -227 365 -12 65 -57 141 -104 176 -34 25 -143 43 -204 34
-29 -4 -54 -17 -78 -39 -33 -31 -35 -38 -35 -94 0 -38 8 -81 21 -114 26 -65
55 -202 70 -330 14 -111 8 -128 -45 -128 -34 0 -125 39 -142 61 -11 14 -101
182 -306 574 -58 110 -139 259 -180 330 -41 72 -115 200 -163 285 -48 85 -145
247 -215 360 -70 113 -167 277 -215 365 -101 184 -162 289 -250 430 -34 55
-81 138 -105 184 -56 112 -187 350 -265 481 -34 58 -81 137 -104 175 -22 39
-59 99 -81 135 -23 36 -39 74 -38 84 2 13 39 39 113 79 219 118 348 239 469
439 26 43 59 87 73 98 31 25 103 27 183 5 140 -38 386 -67 579 -69 l135 -1 12
65 c22 121 132 403 193 499 49 76 134 151 170 151 27 0 31 -3 31 -28z m-212
-4 c-2 -7 -42 -25 -88 -40 -73 -24 -86 -26 -99 -14 -34 35 25 63 137 65 39 1
53 -2 50 -11z m-3727 -24 c63 -29 68 -34 43 -55 -20 -17 -50 -75 -59 -117 l-7
-32 -38 30 c-21 17 -43 45 -49 63 -16 50 10 137 41 137 6 0 37 -12 69 -26z
m4168 -10 c36 -8 41 -32 11 -59 -14 -13 -44 -19 -110 -24 -49 -3 -90 -3 -90 0
0 12 63 61 95 75 34 15 50 16 94 8z m-4604 -41 c-21 -123 -45 -159 -93 -142
-29 10 -79 55 -71 63 28 28 147 116 157 116 9 0 11 -10 7 -37z m2830 4 c39
-39 50 -96 43 -240 -4 -88 -7 -97 -60 -207 -89 -183 -173 -280 -310 -359 -76
-43 -201 -91 -237 -91 -27 0 -35 7 -59 51 -15 28 -53 93 -85 145 -69 111 -73
94 55 229 96 102 167 152 282 196 111 43 152 65 161 86 4 10 6 57 6 105 -2 85
-1 87 26 102 16 8 54 15 87 16 53 0 61 -3 91 -33z m989 17 c29 -11 17 -42 -29
-74 -27 -19 -45 -39 -45 -50 0 -26 -24 -31 -140 -29 -52 1 -106 0 -120 -2 -35
-6 -34 30 2 50 23 13 33 14 60 3 35 -13 32 -14 103 42 20 16 60 38 88 47 60
21 60 21 81 13z m-6806 -95 c32 -44 71 -104 85 -132 51 -99 156 -337 167 -378
6 -23 27 -78 47 -122 41 -94 45 -142 14 -185 -24 -34 -109 -112 -122 -112 -12
0 -49 126 -49 164 0 22 13 51 41 90 36 51 63 126 44 126 -4 0 -21 -11 -37 -25
-27 -23 -33 -24 -52 -12 -26 18 -66 85 -66 113 0 12 7 27 16 35 25 21 44 66
44 106 l0 37 -38 -37 c-21 -20 -43 -37 -49 -37 -14 0 -39 38 -63 100 l-20 51
25 43 c43 74 27 121 -25 71 -28 -27 -28 -27 -39 -6 -15 26 -25 132 -17 165 3
14 13 26 21 26 7 0 40 -36 73 -81z m3625 46 c27 -7 55 -22 63 -33 7 -11 37
-34 64 -51 53 -33 70 -61 70 -115 0 -34 21 -63 38 -52 6 3 13 21 16 41 9 48
27 54 105 39 113 -21 163 -51 198 -117 32 -63 -9 -71 -180 -36 -233 47 -375
92 -434 138 -14 11 -40 23 -59 27 -28 5 -34 11 -34 31 0 72 53 162 88 148 9
-4 39 -13 65 -20z m3332 5 c3 -5 -1 -20 -8 -32 -8 -13 -17 -35 -21 -50 -10
-44 -101 -61 -143 -27 -15 13 35 90 69 107 29 13 95 15 103 2z m152 -1 c15
-15 -3 -53 -46 -93 -25 -24 -36 -28 -67 -23 -20 3 -39 9 -42 11 -9 10 31 87
52 102 25 17 87 19 103 3z m-3072 -30 c36 -32 71 -86 61 -96 -18 -18 -221 42
-247 73 -17 21 45 54 103 54 39 0 54 -6 83 -31z m4065 1 c19 -17 40 -30 47
-30 32 0 7 -30 -59 -73 l-71 -46 -44 56 c-24 30 -43 59 -43 64 0 12 91 58 115
58 11 0 36 -13 55 -29z m-7511 -66 c50 -136 55 -170 33 -208 -10 -17 -31 -37
-46 -45 -25 -12 -31 -11 -55 6 -14 11 -37 40 -50 65 l-25 46 27 31 c25 30 33
51 57 149 6 23 15 42 19 42 5 0 23 -39 40 -86z m2524 56 c29 -18 49 -39 53
-56 8 -29 0 -170 -11 -196 -15 -37 -93 -9 -125 45 -36 58 -21 237 19 237 9 0
38 -13 64 -30z m4531 -32 c26 -62 86 -233 86 -245 0 -20 -38 -53 -61 -53 -20
0 -21 4 -14 47 l7 46 -72 -62 c-67 -57 -76 -62 -114 -59 -34 2 -43 8 -54 31
l-14 29 -19 -21 c-48 -51 -107 -30 -93 34 8 42 30 55 88 55 101 1 266 32 266
50 0 6 -35 10 -80 10 -57 0 -80 4 -80 13 0 22 58 114 86 136 37 29 52 26 68
-11z m-163 -18 c-5 -37 -38 -98 -60 -110 -21 -11 -74 -14 -84 -4 -24 24 85
148 126 142 17 -2 21 -8 18 -28z m-4701 -47 c14 -9 91 -80 171 -157 105 -102
172 -157 240 -199 135 -83 136 -84 119 -101 -18 -17 -265 -126 -286 -126 -18
0 -29 26 -49 113 -8 38 -26 92 -40 120 -32 68 -192 268 -228 285 -34 16 -34
35 -1 61 32 25 42 26 74 4z m-1194 -11 c15 -10 38 -56 59 -120 l17 -54 -35
-36 c-50 -53 -57 -72 -57 -154 0 -148 -38 -132 -98 43 -51 146 -51 189 -5 247
27 34 88 82 102 82 3 0 11 -4 17 -8z m4434 -83 c0 -79 -29 -197 -66 -271 -35
-70 -137 -211 -194 -268 -74 -75 -309 -220 -403 -250 -29 -9 -41 -9 -52 0 -28
23 -18 48 23 59 50 14 217 100 293 151 173 118 328 357 354 547 4 26 11 66 17
87 14 56 28 28 28 -55z m-2669 49 c30 -12 77 -37 106 -55 29 -18 75 -44 104
-58 44 -23 50 -30 44 -48 -3 -12 -12 -53 -19 -92 -14 -80 -28 -89 -91 -59 -46
21 -65 59 -65 126 0 81 -8 100 -38 96 -21 -2 -28 -11 -35 -38 -20 -78 -28 -91
-56 -88 -40 5 -75 83 -80 177 l-3 74 39 -6 c22 -4 64 -17 94 -29z m3135 1 c12
-11 25 -37 29 -57 9 -48 22 -72 40 -72 21 0 19 33 -6 91 -12 27 -20 52 -17 54
2 3 42 0 89 -5 46 -5 136 -10 199 -10 177 0 220 -13 173 -51 -9 -8 -22 -29
-30 -46 -7 -18 -18 -33 -23 -33 -6 0 -20 20 -32 45 -12 25 -26 45 -30 45 -4 0
-8 -29 -8 -65 l0 -65 -35 0 c-24 0 -39 7 -50 23 -9 12 -30 42 -47 67 -36 51
-46 41 -29 -27 8 -31 9 -49 2 -56 -16 -16 -92 -9 -231 19 -69 14 -149 30 -179
34 -62 11 -81 24 -81 55 0 25 17 35 60 35 17 0 41 11 57 25 24 22 35 25 77 21
31 -4 57 -13 72 -27z m1760 1 c23 -12 49 -31 58 -44 14 -23 14 -24 -19 -29
-19 -3 -50 -17 -69 -32 -40 -30 -94 -42 -123 -26 -46 24 -27 111 29 136 46 20
75 18 124 -5z m-6042 -93 c-9 -28 -43 -114 -75 -190 -126 -294 -232 -477 -398
-685 -95 -119 -278 -309 -288 -299 -3 4 29 44 73 90 241 249 384 475 593 939
98 219 106 233 109 214 2 -9 -4 -40 -14 -69z m-1227 19 c32 -66 27 -98 -19
-117 -18 -7 -46 -26 -61 -43 -37 -39 -47 -25 -47 72 0 82 9 105 48 126 42 24
50 20 79 -38z m1735 -4 c51 -57 138 -212 179 -317 19 -49 32 -103 36 -154 6
-75 5 -80 -19 -104 -37 -37 -118 -59 -243 -64 -127 -6 -173 3 -241 50 -101 69
-139 170 -95 259 24 51 238 327 277 357 39 31 57 26 106 -27z m-1394 -39 c53
-137 56 -156 38 -191 -23 -45 -76 -102 -104 -113 -31 -12 -25 -43 10 -47 38
-4 93 47 116 110 26 69 31 50 45 -147 l11 -160 21 49 21 48 28 -37 c35 -45 32
-51 -53 -157 -95 -118 -116 -116 -157 21 -34 114 -62 200 -118 354 l-46 129
50 56 c27 30 59 79 72 109 12 29 25 53 29 53 4 0 21 -35 37 -77z m-608 -49
c14 -27 32 -65 41 -84 9 -19 28 -57 42 -85 34 -63 57 -188 39 -213 -6 -9 -19
-32 -28 -50 -19 -38 -78 -87 -93 -77 -10 5 -51 125 -51 146 0 5 16 26 35 48
53 58 78 131 45 131 -4 0 -17 -15 -28 -34 -11 -19 -33 -42 -47 -52 -26 -17
-28 -17 -45 5 -9 13 -25 47 -35 75 -10 28 -20 56 -22 63 -3 7 15 31 39 55 34
33 46 53 52 86 8 55 23 51 56 -14z m7640 17 c0 -5 -9 -13 -20 -16 -12 -4 -31
-24 -45 -44 -21 -34 -75 -71 -103 -71 -5 0 -15 7 -22 15 -19 23 8 55 76 93 57
30 114 42 114 23z m-1992 -17 c32 -22 29 -68 -7 -105 -32 -31 -50 -35 -84 -18
-29 16 -37 28 -37 62 0 60 77 97 128 61z m-4088 -43 c0 -28 5 -53 10 -56 17
-11 11 -53 -14 -103 -14 -26 -28 -69 -31 -97 -10 -72 -14 -85 -32 -85 -13 0
-14 8 -8 53 4 28 10 106 14 172 7 121 19 165 46 165 11 0 15 -13 15 -49z
m1547 14 c59 -19 141 -41 181 -50 77 -18 92 -31 92 -81 0 -15 11 -47 25 -71
23 -38 24 -44 10 -50 -23 -8 -150 3 -174 17 -28 14 -51 61 -51 102 0 45 -10
78 -23 78 -45 0 -62 -85 -27 -130 11 -14 20 -28 20 -32 1 -25 -197 15 -227 45
-13 13 -14 23 -4 61 6 25 11 59 11 77 0 34 24 69 46 69 7 0 61 -16 121 -35z
m4602 -2 c15 -27 -13 -68 -62 -92 -42 -20 -77 -27 -77 -15 0 29 85 124 112
124 9 0 21 -8 27 -17z m-1863 -14 c55 -14 64 -32 34 -64 -30 -32 -70 -47 -116
-43 -37 3 -39 5 -42 40 -6 75 25 92 124 67z m-4859 -21 c24 -27 53 -81 53
-101 0 -17 -110 -185 -138 -210 -19 -17 -21 -17 -47 6 l-28 24 21 21 c24 24
26 31 46 150 21 123 50 157 93 110z m5065 6 c37 -12 55 -13 85 -5 63 18 66 16
60 -29 -3 -23 -11 -48 -18 -56 -11 -13 -17 -10 -48 20 l-37 36 -35 -29 c-62
-51 -119 -50 -119 2 0 19 45 77 60 77 4 0 27 -7 52 -16z m1003 -14 c17 -27
-27 -70 -71 -70 -8 0 -36 -9 -61 -21 -34 -15 -63 -20 -116 -19 -40 1 -90 -3
-112 -9 -52 -14 -103 -5 -110 20 -10 31 3 39 70 39 35 0 67 5 70 10 3 6 21 10
38 11 18 0 75 11 127 24 107 25 156 30 165 15z m988 -28 c8 -9 20 -28 26 -42
6 -14 20 -36 31 -50 13 -16 18 -33 14 -43 -8 -22 -23 -22 -31 1 -4 9 -16 31
-28 47 -18 24 -45 86 -45 101 0 10 19 2 33 -14z m-7687 -17 c37 -38 31 -86
-13 -97 -39 -10 -58 -37 -72 -97 -19 -85 -57 -73 -54 17 2 41 -3 67 -18 95
-11 22 -18 45 -15 52 6 18 87 55 119 55 16 0 38 -10 53 -25z m3232 -2 c14 -11
29 -32 34 -48 4 -15 22 -43 40 -62 43 -45 30 -53 -84 -53 -114 0 -128 12 -128
103 0 37 5 68 13 76 17 18 93 8 125 -16z m-5666 -48 c42 -29 45 -37 117 -317
56 -214 59 -246 34 -289 -24 -41 -64 -55 -114 -40 -62 19 -73 45 -66 152 4 55
3 108 -4 134 -9 36 -8 53 7 97 21 64 24 169 4 193 -8 10 -24 21 -37 26 -33 12
-33 69 0 69 12 0 39 -11 59 -25z m1872 -90 c59 -34 71 -59 129 -255 62 -210
94 -338 117 -476 27 -160 27 -189 -6 -211 -35 -22 -136 -30 -151 -12 -27 33
-70 350 -47 349 5 -1 20 -7 34 -15 64 -36 67 -3 6 51 -25 22 -57 48 -71 59
-20 15 -33 44 -55 119 -16 55 -27 103 -25 106 3 4 27 10 55 12 28 3 54 8 58
12 13 14 -57 66 -99 72 -25 4 -46 15 -54 28 -22 33 -66 176 -59 188 12 19 118
3 168 -27z m662 -72 c17 -57 12 -93 -12 -93 -23 0 -74 -55 -74 -80 0 -32 23
-34 79 -6 58 30 57 31 85 -63 24 -81 22 -87 -26 -103 -36 -11 -47 -21 -65 -58
-12 -25 -25 -71 -28 -102 -4 -38 -11 -58 -20 -58 -16 0 -40 61 -49 125 -4 28
-21 115 -38 195 l-31 146 23 63 c19 50 32 70 69 97 l45 35 13 -23 c7 -13 20
-47 29 -75z m954 -13 c-5 -36 -14 -102 -19 -146 -6 -47 -19 -96 -30 -115 -26
-44 -59 -166 -67 -248 -9 -83 8 -75 35 17 11 37 29 100 41 140 21 72 41 95 63
73 9 -9 7 -28 -6 -79 -29 -109 -152 -504 -257 -827 -132 -403 -148 -456 -230
-775 -39 -151 -103 -390 -142 -530 -81 -288 -80 -276 -64 -617 l9 -192 -28
-11 c-33 -13 -121 -3 -140 16 -26 27 -61 328 -50 434 16 145 140 543 330 1056
308 830 406 1108 404 1156 0 14 -9 0 -23 -37 -53 -138 -190 -473 -211 -515
-12 -25 -37 -88 -55 -140 -18 -52 -47 -124 -65 -160 -18 -36 -47 -112 -65
-170 -18 -58 -84 -240 -148 -405 -63 -165 -134 -356 -158 -424 -27 -76 -53
-134 -69 -151 -14 -15 -69 -51 -123 -80 -168 -92 -228 -136 -276 -203 -88
-123 -145 -261 -153 -368 -5 -58 -3 -69 16 -88 35 -35 137 -22 325 40 177 58
205 55 259 -30 35 -54 88 -76 182 -76 68 0 89 4 138 28 34 17 74 48 98 76 l41
47 121 -24 c102 -20 138 -23 217 -17 52 4 111 8 130 9 l35 1 7 -85 c6 -81 33
-217 100 -510 40 -175 45 -323 12 -367 -29 -39 -53 -39 -109 -1 -69 46 -97
108 -124 272 -13 82 -29 141 -42 162 -65 105 -216 166 -283 113 -14 -11 -54
-76 -88 -145 l-62 -124 12 -83 c18 -122 15 -186 -8 -224 -23 -38 -67 -63 -110
-63 -42 0 -129 42 -180 88 l-43 38 -8 154 c-13 222 -33 303 -93 368 -35 39
-112 72 -180 79 -57 5 -65 3 -85 -18 -71 -75 -114 -166 -126 -264 -18 -148
-73 -252 -151 -287 -57 -25 -93 -17 -146 30 -87 79 -103 149 -77 350 21 161
20 183 -20 256 -27 52 -97 106 -136 106 -28 0 -81 -37 -205 -144 -140 -122
-193 -159 -286 -203 -73 -35 -86 -38 -169 -38 -122 0 -182 26 -318 138 l-48
40 6 71 c16 167 70 300 195 476 119 169 224 329 276 423 28 51 67 119 88 152
51 83 152 293 161 335 9 43 113 322 154 414 43 94 49 124 66 300 15 157 25
196 48 196 7 0 63 -9 124 -21 l113 -21 107 21 c234 47 481 149 634 262 264
194 548 491 706 736 33 51 98 167 144 257 46 90 85 163 86 162 1 -1 -2 -31 -7
-66z m6835 -65 c43 -74 83 -145 88 -157 4 -13 19 -39 32 -58 30 -44 200 -412
267 -580 28 -69 70 -183 94 -254 25 -70 51 -140 58 -155 8 -14 35 -96 61 -181
25 -85 64 -200 85 -255 21 -55 44 -127 50 -160 7 -33 29 -105 50 -160 22 -55
48 -138 60 -185 12 -46 32 -110 46 -142 26 -62 30 -88 14 -88 -24 0 -138 315
-301 830 -67 214 -171 506 -247 695 -106 265 -278 648 -322 720 -23 38 -49 87
-56 108 -8 22 -30 57 -49 78 -35 39 -46 79 -22 78 6 0 48 -60 92 -134z m-8054
-60 c16 -59 4 -139 -31 -212 -48 -97 -94 -98 -120 -3 -19 67 -13 89 35 134 34
32 47 52 55 90 6 27 14 54 17 59 9 14 32 -20 44 -68z m3599 53 c12 -13 66 -95
122 -182 76 -122 98 -164 91 -175 -13 -22 -228 -113 -339 -145 -141 -41 -248
-56 -384 -55 -127 0 -161 6 -355 65 -44 13 -95 18 -195 18 -126 1 -139 -1
-192 -26 -32 -15 -92 -50 -133 -79 -41 -29 -78 -50 -81 -46 -4 3 7 28 25 55
52 81 73 155 75 258 1 110 7 118 110 170 49 24 79 46 96 72 18 26 40 42 75 55
54 19 132 19 555 -3 190 -9 312 -2 440 24 36 8 66 14 67 15 1 1 12 -9 23 -21z
m-2147 -101 c98 -74 140 -93 237 -108 66 -10 148 -5 283 17 49 9 48 -8 -1 -40
-98 -61 -265 -81 -407 -47 -120 29 -146 46 -184 122 -30 59 -41 119 -22 119 5
0 47 -29 94 -63z m-1974 -71 c6 -8 16 -41 22 -74 13 -73 9 -81 -78 -181 -66
-74 -74 -91 -47 -91 32 0 90 42 119 85 34 50 45 52 57 9 22 -80 27 -147 14
-178 -16 -38 -73 -88 -134 -116 -35 -17 -41 -24 -32 -34 16 -20 55 -27 84 -16
14 5 46 28 71 51 25 23 48 40 51 37 3 -3 8 -46 11 -95 4 -67 3 -92 -7 -98 -19
-12 -180 -18 -225 -8 l-40 9 -7 114 c-4 63 -14 193 -23 289 -8 96 -12 178 -8
181 5 4 38 35 75 68 37 34 72 62 77 62 4 0 14 -6 20 -14z m593 -94 c10 -29 20
-76 24 -104 5 -50 3 -56 -36 -108 -45 -60 -130 -118 -141 -97 -4 7 -12 44 -18
82 -10 66 -10 71 10 88 12 9 30 17 40 17 25 0 45 34 59 95 23 104 35 110 62
27z m2038 -28 c17 -20 36 -48 41 -63 14 -35 -3 -90 -36 -121 l-26 -24 -35 19
c-35 19 -104 88 -104 104 0 12 108 121 119 121 5 0 23 -16 41 -36z m-1719 -15
c9 -17 7 -27 -13 -54 -27 -38 -118 -118 -126 -111 -2 3 1 27 8 53 7 26 14 56
16 65 16 60 91 91 115 47z m1086 -30 c65 -17 158 -33 208 -36 122 -8 134 -20
190 -193 37 -113 46 -317 21 -464 -38 -221 -113 -389 -320 -720 -188 -299
-202 -325 -236 -434 -33 -106 -70 -272 -70 -314 0 -14 -3 -34 -6 -43 -10 -26
-89 -55 -148 -55 -43 0 -63 7 -113 38 -33 20 -73 47 -88 60 l-28 22 6 98 c7
113 48 401 82 577 65 340 130 646 184 875 151 637 147 620 180 620 11 0 73
-14 138 -31z m2418 -124 c0 -25 -5 -30 -36 -37 -20 -4 -76 -25 -126 -46 -213
-95 -333 -116 -653 -116 -195 -1 -238 2 -320 20 -52 12 -117 25 -145 29 -27 3
-65 11 -82 16 -115 36 92 40 269 5 142 -29 404 -51 493 -43 77 7 230 56 360
114 236 107 240 107 240 58z m-3775 -49 c0 -12 7 -31 15 -42 8 -10 15 -24 15
-30 0 -17 -165 -134 -188 -134 -35 0 -45 65 -14 93 9 8 36 23 59 32 30 12 46
26 59 53 30 66 54 78 54 28z m7168 -9 c23 -17 42 -34 42 -38 0 -12 -35 -29
-59 -29 -23 0 -71 63 -71 93 0 24 30 15 88 -26z m-4998 -62 c0 -17 -44 -49
-60 -43 -15 5 27 58 46 58 8 0 14 -7 14 -15z m1513 -192 l32 -17 -90 -17 c-49
-10 -96 -18 -103 -18 -20 -1 17 49 51 70 32 19 45 16 110 -18z m-3349 -4 c-26
-28 -101 -72 -116 -67 -16 6 92 88 116 88 19 0 19 0 0 -21z m2213 -3 c15 -13
37 -41 47 -61 17 -31 18 -38 5 -46 -20 -13 -276 -11 -301 2 -15 8 -18 17 -13
37 10 40 24 52 60 52 25 0 39 -7 53 -27 19 -26 19 -26 37 -6 73 85 71 84 112
49z m679 16 c6 -4 14 -19 18 -34 9 -39 44 -36 96 7 23 19 45 35 49 35 12 0
104 -61 99 -65 -9 -9 -147 -33 -223 -39 -44 -3 -98 -2 -120 2 -33 6 -41 12
-48 39 -15 52 -5 63 60 63 32 0 63 -4 69 -8z m-489 -13 c15 -5 44 -26 65 -46
35 -34 36 -35 47 -15 6 11 11 30 11 41 0 11 4 22 9 25 15 10 110 -24 138 -49
50 -43 26 -50 -189 -53 l-190 -3 7 48 c4 26 12 51 18 55 17 11 51 10 84 -3z
m4715 -66 c26 -23 24 -78 -4 -97 -12 -9 -33 -16 -47 -16 -21 0 -23 3 -18 35 8
49 -10 44 -33 -10 -18 -43 -56 -72 -71 -56 -4 3 -11 28 -17 54 -8 38 -7 51 5
62 8 8 17 15 21 15 4 1 30 7 57 15 67 18 85 18 107 -2z m-3509 -44 c47 -58 38
-67 -91 -93 -88 -18 -96 -17 -157 30 -17 12 -42 27 -58 33 -58 22 -30 37 108
57 127 18 164 13 198 -27z m-3793 -17 c0 -10 -140 -102 -207 -136 -28 -14
-112 -46 -185 -71 -275 -95 -393 -114 -473 -76 -22 11 -35 20 -30 20 6 1 60 3
120 5 196 7 375 63 642 202 129 67 133 69 133 56z m3459 -41 c23 -27 41 -53
41 -59 0 -12 -26 -19 -103 -28 -53 -6 -57 -5 -57 14 0 34 -48 82 -81 82 -36 0
-37 -15 -4 -60 33 -44 22 -53 -64 -58 l-68 -4 -9 43 c-7 35 -14 45 -32 47 -26
4 -27 -6 -5 -53 23 -48 15 -52 -106 -59 -53 -4 -120 -9 -149 -11 -51 -5 -53
-4 -70 27 -26 49 -58 78 -87 78 -34 0 -32 -17 7 -57 27 -28 30 -35 18 -43 -28
-18 -80 -22 -112 -9 -27 11 -88 88 -88 110 0 11 61 17 216 24 l131 5 34 -52
c41 -62 59 -71 59 -30 0 21 -9 38 -31 56 -38 32 -36 33 116 41 66 4 170 15
230 25 170 27 167 28 214 -29z m681 -303 c113 -172 232 -351 266 -398 33 -47
64 -94 68 -105 7 -20 50 -89 311 -505 153 -243 449 -696 715 -1095 196 -293
200 -301 200 -357 0 -24 9 -72 20 -106 25 -80 26 -152 3 -181 -16 -19 -22 -20
-61 -10 -77 21 -163 142 -202 286 -22 80 -93 204 -151 265 -40 42 -50 48 -87
48 -55 0 -107 -22 -123 -52 -7 -14 -18 -116 -26 -258 -16 -267 -15 -264 -102
-313 -56 -32 -154 -46 -225 -33 -53 10 -85 61 -144 229 -75 215 -120 429 -173
832 -43 336 -94 628 -174 1003 -50 230 -103 411 -192 647 -145 386 -155 415
-135 415 4 0 99 -141 212 -312z m3274 266 c8 -20 8 -98 0 -118 -3 -8 -37 -27
-75 -41 -75 -29 -91 -43 -65 -57 12 -7 15 -18 10 -51 -5 -42 -5 -42 13 -21 10
12 25 35 35 52 13 25 25 32 63 37 71 11 136 1 157 -25 17 -21 17 -23 -3 -51
-12 -17 -24 -42 -28 -57 -7 -24 -14 -27 -82 -38 -88 -14 -149 -37 -149 -58 0
-22 45 -70 58 -62 6 4 9 13 6 20 -8 20 35 46 75 46 26 0 41 -7 57 -27 12 -16
26 -25 30 -21 4 4 1 14 -5 22 -9 11 -9 17 1 25 7 6 30 24 51 42 32 27 39 29
54 18 24 -20 73 -100 73 -120 0 -28 -24 -39 -149 -69 -66 -15 -144 -36 -172
-45 l-52 -18 -18 24 c-27 35 -59 124 -59 166 0 19 -14 75 -30 123 -30 88 -31
109 -3 142 13 14 11 21 -21 54 -20 21 -33 41 -28 45 4 3 48 16 98 28 50 12
101 28 115 36 32 18 36 18 43 -1z m-4999 -13 c3 -11 24 -38 45 -60 22 -23 40
-45 40 -50 0 -12 -36 -21 -86 -21 -52 0 -77 20 -103 83 l-21 48 23 9 c12 5 39
9 59 9 28 1 38 -4 43 -18z m-455 -14 c51 -15 140 -76 140 -97 0 -12 -102 -23
-139 -15 -25 5 -33 13 -38 36 -7 35 -29 57 -44 42 -8 -8 -6 -20 5 -41 24 -47
21 -52 -34 -52 -27 0 -50 2 -50 5 0 12 40 84 50 90 6 4 16 18 21 32 5 14 15
23 22 20 6 -2 37 -11 67 -20z m262 -7 c56 -37 78 -78 52 -97 -24 -18 -85 -16
-112 3 -27 19 -65 91 -58 110 9 24 69 16 118 -16z m1656 -45 c2 -22 -6 -43
-31 -75 -19 -25 -37 -57 -41 -72 -4 -17 -18 -34 -36 -43 -42 -22 -161 -45
-231 -45 -56 0 -60 2 -54 20 3 11 17 58 30 106 13 47 25 87 27 89 10 9 260 53
293 52 37 -2 40 -4 43 -32z m-379 -34 c12 -8 10 -15 -11 -40 -15 -17 -38 -66
-53 -110 -31 -94 -11 -87 -277 -97 -163 -6 -178 -6 -184 10 -11 29 15 96 55
138 39 42 82 57 168 58 l42 0 -24 -35 c-13 -20 -31 -56 -41 -81 -15 -41 -16
-47 -2 -60 14 -14 18 -12 41 18 31 41 67 112 67 132 0 38 179 92 219 67z m426
-67 c8 -20 15 -42 15 -49 0 -16 -81 -38 -94 -25 -12 12 0 52 25 83 27 36 36
34 54 -9z m-980 -3 c3 -5 -6 -31 -20 -57 -14 -26 -25 -63 -25 -83 0 -20 -4
-41 -8 -47 -10 -16 -182 -35 -205 -22 -18 9 -17 12 11 41 16 18 44 60 61 95
19 37 41 67 54 72 29 12 124 12 132 1z m-215 -11 c13 -9 13 -12 -3 -21 -24
-14 -67 -105 -67 -141 0 -17 -8 -31 -19 -38 -21 -11 -100 -14 -125 -4 -28 11
-17 105 20 167 21 37 156 62 194 37z m-258 -5 c3 -3 -6 -41 -19 -83 -20 -62
-23 -82 -14 -106 l10 -29 -69 6 c-97 8 -114 19 -107 69 7 52 50 116 90 133 32
14 99 20 109 10z m-478 -21 c21 -8 20 -31 -3 -61 -11 -13 -25 -48 -31 -78
l-11 -53 -112 -4 c-62 -2 -114 -3 -116 -2 -6 5 128 172 151 189 22 15 92 20
122 9z m246 -8 c0 -8 -4 -17 -9 -20 -18 -12 -34 -104 -23 -136 l11 -30 -79 0
c-43 0 -85 3 -94 6 -20 8 -21 49 -1 105 30 84 36 89 120 89 59 0 75 -3 75 -14z
m1773 -157 c17 -36 43 -156 35 -164 -6 -6 -243 -33 -394 -45 -167 -14 -184
-10 -223 50 -33 51 -65 70 -84 51 -8 -8 -4 -18 15 -38 14 -16 33 -42 42 -60
l16 -32 -43 -5 c-248 -32 -401 -46 -553 -52 l-182 -7 -7 40 c-7 43 -45 90 -97
120 -15 10 -28 20 -28 24 0 6 63 12 266 25 80 5 103 4 112 -7 7 -8 32 -42 57
-76 67 -93 109 -77 46 18 -38 55 -28 69 47 69 60 0 51 7 151 -110 16 -19 33
-32 37 -28 10 10 -22 79 -52 111 -28 31 -29 33 -8 41 22 9 417 64 474 67 86 4
91 1 157 -67 59 -61 90 -76 76 -36 -11 32 -55 83 -79 92 -69 27 13 60 141 56
59 -1 60 -2 78 -37z m-3309 -124 c-3 -49 -30 -236 -59 -415 -29 -179 -63 -400
-76 -492 -22 -156 -25 -168 -44 -168 -52 0 -51 5 30 434 55 289 67 400 43 410
-9 3 -7 9 7 20 41 32 45 38 44 74 l-1 37 -13 -35 -13 -35 -1 41 c-1 43 12 64
41 64 16 0 18 10 18 83 0 46 3 87 7 90 16 17 23 -25 17 -108z m6386 66 c9 -31
-3 -54 -14 -25 -7 19 -8 69 -1 62 3 -3 10 -19 15 -37z m-4673 -50 c33 -6 53
-19 90 -61 60 -66 83 -100 83 -122 0 -16 -10 -18 -70 -18 l-70 0 -21 43 c-31
60 -55 89 -97 114 -66 40 -70 24 -13 -45 49 -60 66 -91 53 -104 -5 -5 -39 -8
-76 -6 l-68 3 -13 39 c-8 22 -38 64 -71 97 -53 54 -55 58 -33 62 42 8 263 6
306 -2z m-571 -33 c58 -40 114 -110 114 -145 0 -24 -1 -25 -51 -18 -92 13
-103 18 -125 66 -12 24 -31 53 -43 63 -21 19 -27 46 -14 59 17 17 74 5 119
-25z m207 1 c54 -36 94 -81 114 -127 18 -43 11 -52 -42 -52 -66 0 -90 14 -129
72 -19 29 -47 67 -62 85 -32 40 -25 53 30 53 31 0 55 -8 89 -31z m-385 -34
c12 -9 34 -36 48 -61 22 -38 25 -48 13 -55 -16 -11 -154 -8 -165 4 -8 7 14 61
42 105 17 26 32 28 62 7z m6075 -37 c19 -15 67 -102 67 -123 0 -23 -194 -75
-279 -75 -21 0 -64 -11 -96 -26 -67 -29 -85 -26 -85 14 0 20 -9 35 -30 50 -16
13 -30 29 -30 37 0 20 49 55 76 55 27 0 29 -7 9 -34 -8 -10 -12 -23 -9 -28 3
-5 27 13 52 39 45 46 51 49 152 72 58 13 110 25 115 26 22 7 42 4 58 -7z
m-3643 -63 c0 -14 -7 -36 -15 -49 -14 -21 -14 -24 0 -30 12 -4 15 -17 13 -48
-3 -39 -6 -43 -32 -46 -27 -3 -28 -2 -24 32 5 47 -8 46 -30 -1 -21 -48 -29
-53 -73 -53 -45 0 -50 11 -33 75 17 65 17 75 -1 75 -20 0 -66 -82 -67 -120 -1
-36 -24 -54 -79 -64 -72 -13 -85 13 -49 93 11 24 18 46 15 49 -3 3 -23 -12
-45 -33 -32 -32 -40 -46 -40 -76 0 -20 -6 -41 -12 -47 -20 -16 -170 -44 -181
-33 -12 12 0 33 64 117 39 50 48 69 39 77 -16 17 -100 -76 -134 -147 -14 -30
-34 -57 -44 -61 -29 -9 -139 -11 -148 -3 -4 4 9 43 29 86 20 43 39 91 43 106
4 17 17 31 33 37 14 6 118 19 231 30 112 11 222 24 244 30 55 15 149 26 229
28 65 1 67 0 67 -24z m-2380 -106 c74 -6 138 -13 143 -16 15 -9 -75 -163 -104
-178 -37 -20 -148 -20 -155 -1 -3 8 8 41 25 75 35 69 36 71 17 71 -16 0 -74
-64 -97 -107 -13 -24 -26 -32 -58 -38 -22 -4 -55 -4 -72 0 -27 6 -30 10 -24
33 7 28 67 134 94 165 12 15 24 17 56 13 22 -3 101 -11 175 -17z m1530 15 c0
-15 -87 -168 -108 -191 -22 -24 -29 -25 -88 -20 -35 2 -71 10 -79 17 -21 17
-19 49 5 85 21 31 27 75 11 75 -21 0 -82 -86 -88 -123 -3 -22 -15 -50 -27 -64
-21 -24 -23 -24 -95 -14 -41 5 -78 14 -82 18 -12 12 39 161 61 183 12 12 41
20 87 25 37 3 75 8 83 9 29 7 320 6 320 0z m-547 -20 c4 -4 -3 -19 -14 -35
-27 -39 -49 -105 -49 -150 l0 -39 -252 2 -253 3 3 25 c2 14 14 43 26 65 13 22
31 56 42 75 10 19 20 37 22 40 8 12 464 25 475 14z m-584 -20 c39 -8 39 -21 0
-70 -17 -22 -40 -57 -51 -79 -12 -22 -26 -43 -32 -47 -17 -11 -135 -9 -157 2
-27 15 -24 29 18 114 l37 75 70 4 c39 1 74 4 77 5 4 1 21 -1 38 -4z m5726 -14
c14 -22 10 -119 -5 -135 -12 -11 -177 -55 -208 -55 -2 0 -2 13 1 30 9 45 -10
46 -32 1 -16 -31 -30 -43 -68 -56 -27 -9 -58 -21 -71 -26 -35 -14 -60 -11 -65
9 -38 136 -34 146 58 164 33 6 119 26 190 44 137 34 190 41 200 24z m-7255
-31 c0 -12 -9 -36 -19 -53 -11 -17 -24 -58 -30 -91 -10 -66 -29 -121 -37 -112
-7 7 33 196 44 211 5 6 12 23 16 39 8 32 26 36 26 6z m3589 -82 c23 -38 37
-102 23 -111 -5 -3 -29 10 -53 28 -44 34 -96 56 -130 56 -29 0 -22 -19 13 -38
17 -9 54 -37 82 -62 28 -25 62 -52 76 -61 l25 -16 -51 -11 c-28 -6 -121 -21
-207 -33 l-157 -21 -57 59 c-67 70 -112 95 -156 91 -31 -3 -32 -3 -12 -20 11
-10 45 -35 75 -56 89 -61 78 -92 -33 -92 -44 0 -52 4 -85 41 -54 60 -182 131
-182 101 0 -11 67 -73 108 -102 41 -28 33 -38 -39 -49 -70 -12 -108 -4 -119
24 -20 52 -126 109 -191 103 l-34 -3 41 -22 c48 -26 142 -108 133 -117 -11
-11 -105 -19 -141 -12 -21 4 -61 29 -102 64 -80 67 -116 92 -133 92 -29 0 -9
-32 60 -94 82 -75 81 -81 -19 -91 -75 -8 -90 -1 -138 64 -21 28 -52 59 -70 70
-18 11 -40 29 -50 40 -17 18 -17 19 1 25 10 3 137 10 283 16 314 12 371 18
730 76 267 43 414 74 447 93 23 13 39 4 62 -32z m3760 -129 c50 -103 23 -148
-62 -102 -60 32 -72 30 -46 -5 26 -35 19 -51 -23 -51 -46 0 -222 -38 -284 -61
-38 -14 -59 -18 -66 -11 -6 6 -12 49 -15 96 -6 96 -14 87 87 101 25 3 76 16
114 28 l68 22 29 -33 c27 -30 29 -31 29 -10 0 35 13 48 61 63 67 21 81 16 108
-37z m-6430 -132 c27 -44 31 -60 22 -69 -16 -16 -229 -16 -256 0 -19 11 -17
13 23 29 23 9 42 22 42 29 0 17 -22 35 -41 35 -37 0 -27 21 33 71 l62 52 41
-45 c22 -25 55 -71 74 -102z m95 130 c59 -24 207 -199 187 -219 -16 -16 -167
7 -191 28 -11 10 -26 39 -35 65 -9 27 -29 67 -46 89 -16 23 -29 43 -29 46 0
11 82 4 114 -9z m256 -27 c8 -11 25 -31 38 -43 82 -76 102 -99 108 -121 13
-51 -40 -70 -111 -41 -26 11 -49 36 -89 99 -45 70 -62 87 -91 97 -61 20 -16
41 75 35 42 -3 58 -9 70 -26z m238 -7 c2 -7 35 -51 73 -99 38 -48 65 -91 60
-96 -15 -15 -80 -20 -108 -8 -18 7 -49 44 -88 104 -33 50 -61 98 -63 106 -3
11 9 13 59 9 36 -3 65 -10 67 -16z m215 9 c26 -10 141 -139 160 -179 14 -29 4
-37 -44 -35 -67 3 -147 31 -160 56 -7 12 -32 47 -56 78 -45 58 -51 74 -30 82
21 9 105 7 130 -2z m264 -22 c39 -19 115 -93 151 -147 13 -20 13 -25 1 -33
-17 -10 -140 -12 -155 -1 -6 4 -29 33 -52 64 -23 31 -60 71 -82 89 -22 17 -37
36 -34 40 11 18 126 10 171 -12z m-2118 -254 c-26 -146 -46 -201 -65 -182 -6
6 57 271 78 326 19 51 15 9 -13 -144z m3781 127 c0 -18 -16 -51 -41 -86 -51
-72 -46 -96 9 -37 l40 44 7 -37 c16 -84 -11 -99 -221 -116 -72 -6 -238 -26
-367 -45 -130 -19 -277 -37 -327 -41 -103 -8 -103 -8 -48 73 41 61 80 147 67
151 -18 7 -59 -29 -104 -90 -25 -33 -45 -68 -45 -79 0 -40 -23 -69 -64 -80
-38 -10 -122 -6 -135 7 -6 6 19 53 86 161 39 62 51 73 87 83 49 14 396 26 396
14 0 -5 -34 -41 -75 -79 -78 -73 -90 -99 -54 -110 32 -11 67 20 129 114 31 46
67 89 81 97 34 17 150 28 168 15 11 -7 3 -22 -43 -73 -32 -34 -65 -73 -73 -85
-16 -24 -10 -43 12 -43 15 0 115 106 152 161 20 31 36 41 82 55 88 25 213 52
249 53 29 1 32 -2 32 -27z m3802 -7 c4 -15 21 -43 39 -61 l32 -33 -27 -36 -27
-35 25 0 c32 0 81 -19 72 -27 -4 -4 -24 -6 -45 -4 -22 1 -69 -7 -107 -18 -37
-12 -70 -19 -73 -16 -3 3 -4 22 -3 43 l1 37 -19 -42 c-18 -39 -23 -43 -87 -62
-37 -11 -104 -28 -147 -37 -83 -17 -140 -54 -118 -76 12 -12 116 6 147 26 12
8 51 16 86 17 l64 3 31 -78 c18 -43 37 -83 43 -89 24 -24 23 7 -3 91 l-27 87
22 18 c39 31 61 18 97 -56 19 -37 36 -85 39 -107 5 -38 4 -41 -28 -54 -44 -19
-387 -86 -404 -80 -7 3 -15 27 -19 53 -3 26 -13 56 -21 67 -8 10 -15 28 -15
38 0 11 -7 27 -16 37 -39 43 -101 287 -77 302 6 4 43 11 84 17 41 6 115 22
164 35 50 13 124 29 165 36 41 6 86 17 100 25 33 17 42 14 52 -21z m-6668 -95
c7 -7 -9 -29 -54 -75 -35 -35 -66 -62 -70 -60 -13 8 -43 124 -36 141 6 15 16
16 78 11 39 -3 76 -11 82 -17z m389 -19 c38 -5 71 -12 74 -15 3 -2 -5 -19 -17
-36 -12 -17 -28 -51 -36 -75 -11 -37 -11 -45 2 -56 21 -17 46 9 84 89 17 37
39 73 48 80 22 17 131 16 138 -1 6 -17 -24 -99 -70 -189 -18 -37 -31 -70 -28
-73 3 -3 31 -5 61 -5 34 0 65 -6 78 -15 26 -18 58 -87 68 -144 l7 -44 -149 5
c-175 7 -213 19 -243 79 -11 21 -20 47 -20 58 0 27 51 53 98 49 31 -3 37 -7
44 -35 10 -40 118 -138 118 -108 0 30 -107 193 -131 200 -11 4 -59 4 -107 0
-138 -10 -160 15 -116 127 15 38 16 50 6 60 -20 20 -45 -2 -63 -56 -22 -67
-31 -73 -68 -47 -17 12 -34 33 -37 45 -6 25 19 96 39 108 16 10 135 9 220 -1z
m1267 -48 c-53 -94 -109 -172 -132 -184 -23 -12 -306 -7 -341 6 -23 9 -22 17
16 110 23 57 40 84 58 92 32 16 176 30 317 32 l114 1 -32 -57z m-516 34 c18
-13 17 -17 -8 -89 -14 -42 -26 -84 -26 -92 0 -21 -40 -36 -96 -36 -51 0 -49
-5 -30 113 7 43 18 83 24 89 10 10 63 24 103 27 8 0 23 -5 33 -12z m-194 -17
c0 -6 -12 -28 -26 -50 -15 -22 -30 -61 -35 -87 -5 -25 -11 -49 -14 -52 -3 -3
-49 -7 -101 -9 l-96 -4 7 23 c15 53 67 149 92 169 21 16 40 20 99 20 44 0 74
-4 74 -10z m-921 -203 c7 -10 22 -17 32 -17 50 0 23 -45 -33 -57 -44 -9 -50
-24 -31 -76 9 -26 14 -49 11 -52 -3 -4 -24 5 -46 20 -30 20 -50 26 -79 23 -30
-2 -38 1 -41 15 -6 28 50 133 110 209 l53 66 5 -57 c3 -32 11 -65 19 -74z
m6786 38 c19 -86 49 -120 93 -108 16 4 24 -1 33 -21 7 -14 10 -29 6 -32 -7 -7
-190 -33 -198 -28 -4 2 -9 22 -13 45 -7 46 -37 109 -60 128 -43 36 3 72 88 68
39 -2 40 -3 51 -52z m-3898 -7 c-6 -47 -50 -116 -88 -137 -33 -18 -71 -8 -84
21 -11 25 -79 67 -91 55 -13 -13 11 -72 34 -82 12 -5 22 -13 22 -16 0 -17
-424 -78 -585 -84 -55 -2 -156 -8 -225 -14 -125 -11 -587 -31 -706 -31 l-62 0
-16 46 c-8 25 -31 68 -51 95 -19 27 -35 54 -35 60 0 14 152 2 192 -15 14 -6
46 -40 70 -75 50 -75 74 -94 88 -71 19 30 -17 95 -65 119 -21 10 -24 15 -14
22 17 11 189 12 205 1 7 -4 19 -25 28 -47 22 -53 44 -75 74 -75 24 0 25 1 20
75 l-5 75 63 0 c53 0 67 -4 94 -26 17 -15 42 -49 56 -75 19 -38 30 -49 48 -49
65 0 75 35 22 75 -45 34 -51 53 -23 65 35 16 431 72 545 77 83 4 107 2 127
-11 13 -9 34 -16 46 -16 22 0 22 1 4 20 -14 16 -16 23 -7 32 11 11 131 22 271
26 l54 2 -6 -42z m-3545 -90 c90 -42 96 -43 183 -41 50 1 108 4 130 5 35 3 40
0 43 -20 4 -27 -20 -57 -63 -79 -35 -19 -182 -12 -256 11 -106 33 -189 91
-189 131 0 48 34 47 152 -7z m-302 -58 c6 -19 20 -88 31 -152 22 -126 22 -219
1 -226 -15 -5 -37 47 -46 110 -14 95 -26 60 -26 -76 0 -126 -8 -162 -25 -118
-10 26 -35 239 -35 297 0 58 10 78 33 69 15 -5 17 3 17 64 0 39 3 78 7 88 6
16 7 16 20 -2 7 -10 18 -34 23 -54z m1869 56 c62 -33 146 -155 122 -179 -15
-15 -111 -21 -143 -8 -16 6 -28 18 -28 28 0 17 -25 63 -64 117 -27 38 -15 56
39 56 25 0 58 -6 74 -14z m-582 -105 c12 -18 20 -38 16 -44 -8 -13 -163 -3
-191 12 -39 21 -26 39 41 55 87 21 107 17 134 -23z m-1745 -13 c13 -11 15 -35
10 -160 l-4 -146 -47 -18 c-25 -10 -107 -45 -181 -79 -179 -83 -175 -82 -196
-50 -22 34 -20 73 8 154 27 78 82 138 198 217 135 92 178 109 212 82z m4348
-7 c11 -22 13 -130 2 -147 -29 -43 -228 -77 -763 -129 -87 -9 -116 11 -59 40
29 15 43 55 20 55 -15 0 -52 -40 -71 -77 -21 -38 -33 -41 -266 -49 -209 -8
-204 -10 -148 71 69 101 120 122 337 136 170 12 222 8 232 -18 6 -14 11 -12
35 11 36 34 61 40 298 66 106 11 218 29 250 39 79 26 120 26 133 2z m-3691
-36 c137 -63 199 -83 299 -96 48 -6 93 -16 100 -21 13 -11 16 -94 6 -148 -15
-71 -117 -90 -240 -44 -37 14 -104 29 -148 34 -44 5 -84 14 -90 20 -11 10 -27
103 -42 238 -5 45 -4 62 5 62 6 0 56 -20 110 -45z m7641 16 c0 -5 -7 -25 -15
-44 -14 -34 -14 -37 11 -66 l26 -31 -24 -9 c-14 -5 -51 -12 -84 -16 -85 -9
-254 -42 -364 -71 -130 -34 -166 -59 -120 -84 16 -8 38 -5 98 14 42 13 124 33
182 45 105 21 404 71 422 71 5 0 -5 -12 -22 -27 l-33 -27 27 -23 c37 -31 50
-29 65 12 13 36 41 59 66 53 20 -5 96 -101 86 -111 -5 -5 -73 -15 -152 -23
-152 -15 -260 -34 -502 -90 -188 -43 -212 -44 -232 -4 -8 16 -15 35 -15 41 0
7 -16 44 -35 84 -45 90 -51 158 -16 186 33 27 71 35 82 18 5 -8 6 -29 3 -47
-7 -37 8 -62 39 -62 17 0 19 5 13 40 -4 26 -1 52 8 74 16 39 30 43 253 81 146
25 233 31 233 16z m-6899 -92 c65 -48 203 -119 233 -119 30 0 123 55 142 84 8
14 29 29 46 35 36 13 105 15 111 4 3 -5 -18 -42 -47 -83 l-51 -75 -89 -3 c-90
-3 -236 14 -378 44 -73 16 -78 18 -78 43 0 30 35 111 48 111 4 0 33 -18 63
-41z m318 22 c14 -4 26 -12 28 -18 4 -11 -81 -83 -98 -83 -13 0 -38 43 -45 78
l-6 32 48 -1 c27 -1 60 -4 73 -8z m1398 -28 c2 -6 -4 -17 -13 -25 -10 -7 -48
-43 -86 -81 -74 -73 -99 -87 -159 -87 -44 0 -45 3 -24 54 25 58 81 113 133
130 81 26 143 30 149 9z m-946 -13 c10 -6 19 -17 19 -25 0 -20 6 -19 43 8 29
20 45 22 192 25 105 3 170 0 190 -8 l30 -12 -30 -23 c-84 -68 -98 -81 -107
-106 -9 -26 -44 -49 -76 -49 -9 0 -34 5 -54 11 -49 13 -49 33 -3 94 43 55 21
47 -55 -20 -28 -25 -63 -51 -80 -60 -50 -26 -150 -15 -150 16 0 5 19 28 42 50
30 28 39 42 31 50 -18 18 -80 -19 -111 -65 -24 -35 -33 -41 -68 -44 -66 -5
-72 14 -33 98 l32 70 84 0 c46 0 93 -5 104 -10z m689 0 c11 -7 1 -22 -50 -73
-36 -36 -73 -74 -82 -86 -15 -18 -29 -21 -87 -21 -71 0 -101 6 -101 20 0 4 11
11 25 14 14 4 25 12 25 19 0 16 76 90 109 107 56 29 132 38 161 20z m-1670
-107 c0 -82 -9 -111 -30 -98 -9 6 -11 25 -6 67 13 130 36 149 36 31z m7854 51
c9 -24 -2 -34 -40 -34 -38 0 -41 5 -17 32 20 22 49 23 57 2z m121 -96 c31 -37
31 -48 1 -48 -44 0 -94 58 -70 82 11 12 45 -5 69 -34z m-4776 -31 c18 -103 16
-117 -17 -117 -30 0 -55 15 -121 72 -73 63 -81 50 -21 -31 23 -30 37 -58 33
-62 -11 -11 -276 -59 -326 -59 -23 0 -85 -5 -139 -12 l-96 -12 -62 57 c-59 55
-103 78 -118 62 -4 -4 0 -10 8 -13 17 -5 100 -91 100 -102 0 -13 -108 -19
-145 -9 -23 7 -40 19 -47 35 -23 50 -158 113 -158 73 0 -12 53 -67 89 -92 14
-9 23 -19 20 -21 -2 -3 -39 -8 -81 -12 l-76 -7 -66 62 c-44 41 -74 61 -91 61
-14 0 -25 -3 -25 -6 0 -4 21 -29 46 -57 57 -60 51 -67 -63 -67 l-81 0 -19 38
c-11 20 -41 51 -67 70 -53 35 -55 36 -76 22 -12 -8 -6 -18 35 -54 43 -38 48
-46 36 -60 -10 -12 -31 -16 -88 -16 -67 0 -76 2 -98 26 -14 15 -25 30 -25 35
0 14 -100 81 -116 77 -13 -2 -5 -17 35 -64 28 -34 51 -65 51 -68 0 -3 -32 -6
-70 -6 l-71 0 -69 65 c-38 36 -72 65 -75 65 -14 0 -1 -23 36 -66 54 -63 50
-80 -21 -76 -79 5 -124 23 -128 49 -3 21 -95 113 -113 113 -17 0 -8 -17 41
-75 28 -33 50 -63 50 -67 0 -5 -37 -8 -82 -6 l-82 3 -32 56 c-32 54 -104 129
-124 129 -25 0 -21 -33 8 -63 33 -35 47 -74 34 -95 -6 -9 -26 -12 -58 -10 -48
3 -50 4 -74 52 -36 71 -54 73 -45 6 l7 -52 -63 7 c-73 8 -84 15 -94 53 -8 32
-34 64 -46 56 -5 -3 -9 -23 -9 -44 0 -21 -4 -41 -9 -44 -4 -3 -62 1 -127 9
-65 7 -152 16 -191 20 l-73 6 0 -82 c0 -45 -3 -79 -7 -75 -11 10 -32 138 -26
154 7 17 50 39 96 47 32 6 39 12 44 36 3 16 9 31 12 34 13 7 91 -34 116 -61
33 -35 32 -28 -7 50 -18 36 -29 69 -25 73 4 4 56 1 115 -5 648 -74 825 -83
1372 -72 457 10 647 20 900 45 144 15 444 57 530 74 25 5 61 9 81 10 l37 1 11
-63z m4413 -149 c102 -75 99 -92 -22 -103 -41 -3 -105 -13 -141 -22 -71 -17
-104 -14 -140 16 -18 14 -23 27 -21 54 3 50 -15 55 -34 10 -32 -77 -40 -87
-67 -94 -22 -6 -33 -3 -48 12 -10 10 -19 25 -19 32 0 25 -21 87 -29 87 -13 0
-31 -57 -31 -95 0 -51 -28 -77 -88 -83 -56 -5 -52 -10 -67 81 -3 20 -10 37
-14 37 -5 0 -20 -27 -35 -60 -28 -63 -62 -95 -89 -84 -9 3 -25 21 -37 41 -11
19 -26 33 -33 31 -16 -6 -22 -57 -8 -71 17 -17 13 -59 -10 -97 -24 -39 -25
-38 -48 47 -6 22 -20 52 -30 65 -18 20 -22 22 -42 10 -15 -10 -24 -11 -32 -3
-16 16 33 63 103 100 88 47 532 130 697 131 83 0 94 -7 118 -80 26 -79 39 -63
32 40 l-6 91 37 -22 c20 -12 67 -44 104 -71z m-1678 -34 c27 -70 28 -79 16
-112 -11 -30 -11 -37 1 -41 39 -13 139 -176 124 -201 -7 -11 -91 -70 -100 -70
-24 0 -99 271 -110 397 -8 86 -4 103 23 103 12 0 26 -23 46 -76z m-2703 -43
c-6 -10 -44 -55 -86 -99 -41 -44 -75 -85 -75 -91 0 -23 39 -10 81 27 51 45 79
61 97 55 19 -7 15 -68 -7 -87 -33 -30 -277 -66 -453 -66 -97 0 -99 7 -28 104
28 38 50 73 50 77 0 5 -11 9 -25 9 -31 0 -90 -57 -129 -125 -49 -86 -62 -95
-127 -95 -32 0 -60 4 -63 9 -7 11 50 96 113 169 34 40 57 56 92 66 76 23 235
39 325 33 68 -4 94 -1 132 14 26 10 62 18 80 19 29 0 32 -2 23 -19z m-2876
-57 c157 -17 195 -24 195 -34 0 -4 -24 -23 -53 -42 -32 -22 -60 -50 -72 -74
-43 -85 -79 -103 -129 -63 -46 36 -32 92 34 134 45 28 51 45 17 45 -32 0 -115
-55 -135 -89 -9 -16 -28 -36 -43 -45 -27 -16 -70 -21 -81 -11 -3 4 1 33 10 65
9 33 14 62 10 65 -3 3 -17 1 -31 -4 -30 -12 -37 -6 -37 29 0 57 14 58 315 24z
m2205 -12 c0 -23 -17 -43 -53 -66 -15 -9 -48 -43 -74 -76 -55 -71 -95 -92
-164 -88 l-51 3 52 65 c66 83 76 100 55 100 -21 0 -86 -61 -120 -112 -16 -24
-36 -49 -44 -55 -17 -15 -157 -18 -165 -4 -4 5 13 24 35 42 40 32 99 103 99
121 0 34 -101 -46 -143 -114 -36 -58 -54 -64 -207 -78 -141 -12 -221 -12 -239
-1 -25 16 -3 58 51 98 29 21 76 59 105 85 59 53 56 53 353 63 138 5 462 27
503 34 4 0 7 -7 7 -17z m-1811 -16 c24 -13 24 -14 3 -20 -31 -10 -98 -90 -127
-152 -25 -52 -27 -54 -66 -54 -79 0 -98 34 -60 108 27 52 69 89 127 112 58 23
90 24 123 6z m187 -41 c30 -30 31 -30 52 -5 20 25 104 36 178 25 l48 -7 -59
-54 c-81 -73 -91 -84 -123 -122 -25 -30 -32 -33 -87 -35 l-60 -2 -3 33 c-2 21
5 47 18 69 11 19 18 38 15 41 -8 9 -53 -38 -80 -85 -14 -23 -32 -46 -41 -51
-18 -10 -124 4 -138 18 -12 12 13 49 88 132 60 67 61 67 114 68 43 0 57 -4 78
-25z m470 10 c4 -8 1 -22 -6 -30 -24 -29 -1 -27 37 4 30 24 52 32 100 37 66 7
153 -2 153 -16 0 -5 -32 -26 -70 -46 -41 -21 -87 -56 -110 -81 -47 -54 -93
-130 -86 -142 3 -5 29 -11 58 -13 39 -3 65 -13 99 -37 26 -19 63 -35 87 -38
52 -7 55 8 7 39 -19 13 -35 27 -35 31 0 5 53 7 118 5 l119 -3 59 -49 c72 -59
100 -74 116 -58 18 18 2 38 -51 68 -28 15 -51 31 -51 35 0 16 60 24 370 49
140 12 284 25 320 30 36 5 104 10 152 10 l87 0 45 -45 c27 -27 55 -45 68 -45
20 0 17 6 -25 48 -26 26 -47 50 -47 54 0 3 21 9 48 13 72 10 126 -7 177 -54
65 -60 86 -52 44 16 -28 44 -15 60 33 44 47 -16 91 -62 86 -92 -2 -20 -8 -24
-36 -21 -18 1 -50 -7 -71 -18 -22 -11 -61 -24 -88 -30 -156 -36 -776 -93 -792
-73 -4 4 -16 29 -25 56 -10 26 -26 52 -36 57 -21 11 -90 14 -90 3 0 -4 19 -26
41 -49 54 -55 48 -73 -23 -76 -29 -1 -199 0 -378 1 -325 3 -325 3 -361 27 -19
13 -52 40 -73 59 -32 29 -36 38 -26 50 16 19 4 35 -26 35 -29 0 -32 26 -10 88
8 23 11 44 6 47 -4 3 -30 -20 -56 -50 -58 -68 -116 -87 -153 -51 -13 14 -13
19 2 50 23 48 83 114 136 148 35 22 57 28 98 28 39 0 55 -4 59 -15z m3951 -16
c64 -40 103 -180 68 -252 -44 -94 -98 -39 -150 156 -34 127 -34 131 13 122 20
-4 51 -15 69 -26z m2343 7 c0 -2 -7 -17 -15 -32 -8 -16 -15 -41 -15 -56 0 -35
-13 -36 -34 -2 -23 33 -17 66 14 81 24 12 50 17 50 9z m-7717 -53 c7 -36 -4
-64 -14 -37 -11 27 -11 76 0 70 5 -3 11 -18 14 -33z m6196 -64 c96 -90 114
-145 45 -137 -21 2 -29 9 -30 23 -1 11 -2 26 -3 33 -1 7 -17 20 -36 29 -33 16
-65 63 -65 97 0 28 21 17 89 -45z m1272 -25 c7 -99 36 -190 95 -301 30 -58 42
-89 35 -96 -15 -15 -38 9 -74 77 -21 43 -32 55 -35 43 -2 -10 -1 -29 2 -42 10
-40 94 -144 156 -192 33 -25 60 -52 60 -60 0 -41 -231 29 -297 90 -26 23 -90
182 -122 302 -30 110 -51 165 -63 165 -15 0 -6 -209 9 -218 6 -4 15 -32 18
-62 12 -91 73 -265 109 -305 29 -34 37 -37 137 -54 58 -10 122 -26 142 -36 58
-27 88 -105 52 -135 -20 -16 -55 0 -130 60 -27 22 -58 40 -68 40 -55 0 -189
112 -242 204 -52 90 -102 260 -122 420 -14 105 -46 77 -44 -38 2 -131 75 -348
161 -479 62 -95 128 -154 222 -201 105 -52 128 -76 128 -136 0 -26 -5 -61 -11
-79 -10 -27 -15 -31 -47 -31 -73 0 -126 59 -107 119 10 32 -10 57 -84 104 -75
49 -193 162 -241 231 -89 130 -113 231 -108 450 3 166 4 167 93 185 28 6 84
17 125 25 41 8 91 19 110 24 19 6 58 10 85 9 l50 -2 6 -81z m111 64 c28 -23
55 -72 71 -129 9 -30 26 -64 37 -74 25 -23 26 -45 2 -45 -49 0 -122 116 -138
220 -7 42 1 49 28 28z m-3439 -51 c14 -9 22 -49 37 -176 21 -170 34 -242 50
-270 11 -21 2 -36 -27 -45 -38 -12 -63 2 -63 34 0 33 -18 85 -26 77 -4 -3 -9
-21 -13 -38 -8 -39 -26 -48 -41 -20 -6 12 -22 87 -35 167 -20 115 -23 154 -15
184 10 39 32 65 43 53 4 -3 16 6 28 20 23 30 37 33 62 14z m-6243 -46 c15 -29
12 -68 -6 -75 -24 -9 -72 -7 -79 4 -3 5 3 15 15 22 12 8 20 23 20 40 0 21 5
28 20 28 10 0 24 -9 30 -19z m2135 -71 c5 -32 4 -42 -4 -35 -6 6 -13 33 -17
60 -7 62 10 41 21 -25z m284 22 c86 -36 181 -98 181 -117 0 -12 -13 -15 -57
-15 -102 0 -243 43 -243 74 0 7 -11 23 -25 36 -69 64 14 77 144 22z m317 -28
c59 -16 163 -99 145 -117 -5 -5 -46 -8 -96 -5 l-86 4 -64 64 c-36 36 -65 68
-65 71 0 11 106 0 166 -17z m280 -24 c32 -11 88 -38 124 -60 63 -38 100 -50
100 -32 0 5 -16 27 -36 50 l-36 42 84 0 c46 -1 94 -6 109 -13 29 -14 128 -89
128 -98 1 -4 -11 -9 -26 -12 -39 -7 -441 12 -483 23 -35 10 -71 51 -85 98 -6
20 -3 22 28 22 19 0 60 -9 93 -20z m3325 -41 c20 -35 91 -291 85 -305 -3 -9
-15 -14 -28 -12 -20 3 -26 16 -51 113 -35 138 -46 230 -27 223 8 -2 17 -11 21
-19z m-5543 -25 l39 -26 7 -86 c3 -47 13 -99 21 -116 11 -20 12 -33 5 -40 -15
-15 -157 -11 -175 4 -36 30 9 290 50 290 7 0 31 -12 53 -26z m6838 15 c10 -17
-8 -28 -69 -40 -77 -16 -95 0 -35 30 47 23 93 27 104 10z m838 -16 c3 -16 15
-96 26 -180 32 -239 70 -367 189 -636 97 -218 110 -299 56 -353 -21 -21 -33
-24 -98 -24 -89 0 -123 -18 -179 -99 -61 -88 -74 -132 -59 -204 7 -34 21 -78
32 -99 25 -49 24 -67 -5 -78 -13 -4 -43 -35 -67 -67 -25 -32 -61 -66 -81 -76
-55 -27 -161 -46 -295 -54 -119 -6 -123 -5 -160 19 -47 31 -71 72 -57 96 12
18 26 23 114 42 71 16 198 74 232 107 33 31 64 102 73 166 7 47 6 50 -35 92
l-43 43 11 94 c6 51 14 183 18 293 5 155 10 206 22 227 15 25 14 33 -16 135
-17 59 -43 153 -58 208 -14 55 -42 139 -62 188 -28 68 -33 90 -24 99 23 23 68
-39 95 -132 65 -216 142 -425 160 -428 27 -5 22 23 -32 185 -56 167 -97 342
-88 366 4 10 18 17 34 17 15 0 48 10 73 21 46 21 171 57 202 58 10 1 19 -9 22
-26z m-9508 -42 c5 -25 12 -30 38 -33 41 -4 44 -29 16 -138 -30 -118 -39 -170
-29 -175 12 -8 25 23 38 95 26 140 58 203 81 160 14 -26 10 -69 -19 -207 -28
-137 -43 -275 -31 -287 15 -15 25 22 64 239 38 205 52 245 87 245 31 0 34 -27
10 -94 -26 -76 -42 -185 -30 -208 5 -10 19 -22 30 -28 20 -11 20 -11 -2 -48
-13 -20 -53 -80 -90 -132 -78 -112 -105 -162 -129 -244 -10 -34 -27 -87 -39
-118 -16 -43 -25 -107 -36 -260 -17 -220 -31 -292 -68 -326 -43 -40 -131 -45
-246 -13 -79 22 -154 -5 -190 -69 l-21 -37 23 -34 c12 -19 53 -55 91 -80 97
-65 97 -67 40 -151 -92 -133 -176 -181 -321 -182 -97 -1 -125 14 -162 87 -29
59 -23 100 24 159 53 65 93 137 112 198 16 54 18 86 11 220 -3 63 -2 67 45
138 26 41 92 128 146 195 154 192 305 420 342 518 11 27 48 158 83 291 61 227
87 316 101 339 12 18 26 9 31 -20z m6515 -8 c13 -13 -16 -71 -41 -83 -69 -33
-169 -56 -196 -46 -14 5 -13 11 10 40 49 65 27 63 -49 -4 -111 -96 -234 -102
-184 -8 6 11 9 21 7 23 -2 2 -42 -22 -88 -53 -76 -51 -94 -59 -164 -70 -44 -7
-81 -10 -84 -7 -3 3 8 24 24 48 48 70 125 101 338 137 99 17 182 33 185 36 10
11 231 -2 242 -13z m4486 -19 c68 -39 135 -139 119 -179 -8 -21 -32 -8 -57 31
-11 19 -50 55 -85 80 -71 51 -94 81 -73 95 17 11 42 4 96 -27z m-7630 10 c37
-8 72 -19 76 -24 5 -4 1 -22 -7 -39 -21 -40 -5 -41 49 -3 39 26 45 27 191 30
151 3 214 -4 221 -25 2 -6 -23 -26 -56 -43 -33 -18 -83 -52 -112 -77 -47 -40
-53 -43 -68 -28 -10 10 -16 33 -16 67 0 30 -5 53 -12 55 -6 2 -43 -17 -81 -42
-38 -25 -85 -48 -105 -52 -33 -5 -38 -3 -54 26 -15 26 -24 31 -55 31 -27 0
-40 6 -48 19 -13 24 -13 121 -1 121 6 0 40 -7 78 -16z m-2629 -36 c2 -20 -9
-38 -48 -77 -98 -98 -109 -36 -13 70 40 44 56 46 61 7z m10126 -42 c84 -61
186 -155 186 -172 0 -21 -26 -28 -58 -15 -62 26 -236 231 -196 231 4 0 34 -20
68 -44z m-6730 28 c29 -11 17 -32 -36 -63 -29 -17 -75 -50 -102 -73 -47 -42
-50 -43 -120 -43 -65 0 -71 2 -74 22 -2 15 5 27 25 39 15 10 49 37 74 60 40
36 54 43 105 49 33 3 66 8 74 9 27 6 38 6 54 0z m1646 -13 c0 -5 -30 -32 -67
-60 -38 -28 -81 -61 -96 -73 -23 -18 -41 -23 -90 -23 -59 0 -62 1 -62 24 0 18
13 35 43 58 l44 33 -30 0 c-18 0 -49 -14 -78 -35 -142 -102 -170 -115 -266
-115 -73 0 -83 15 -34 54 21 17 55 46 75 63 l36 32 -36 1 c-40 0 -90 -29 -154
-90 -56 -53 -74 -60 -154 -60 -103 0 -107 27 -12 84 31 19 65 44 75 55 23 25
57 29 371 45 317 17 435 18 435 7z m-3102 -58 c2 -31 -5 -83 -17 -125 -11 -40
-22 -96 -26 -123 -13 -103 -25 -82 -25 46 0 108 -3 130 -19 150 -33 43 -35 65
-4 88 17 14 38 21 57 19 30 -3 31 -5 34 -55z m1737 41 c24 -11 39 -13 52 -5
47 25 204 22 205 -4 1 -5 -21 -20 -47 -33 -27 -13 -79 -48 -118 -78 -65 -51
-71 -54 -110 -48 -23 4 -50 11 -60 16 -16 8 -14 13 18 50 33 39 43 58 30 58
-15 0 -82 -41 -100 -60 -34 -37 -70 -50 -143 -50 -85 0 -109 17 -65 47 59 41
158 97 192 109 49 18 107 17 146 -2z m531 -17 c-11 -7 -49 -34 -85 -61 -92
-68 -132 -87 -199 -93 -44 -4 -61 -2 -70 10 -10 12 -4 23 42 64 85 78 123 93
236 92 78 0 92 -2 76 -12z m-4430 -31 c8 -20 -12 -53 -41 -72 -20 -13 -28 -14
-40 -4 -21 18 -19 37 10 65 27 28 63 33 71 11z m-156 -42 c0 -22 -39 -74 -55
-74 -30 0 -28 57 2 92 18 20 53 8 53 -18z m10434 0 c3 -9 6 -23 6 -32 -1 -14
-5 -12 -20 7 -11 13 -20 27 -20 32 0 15 28 10 34 -7z m-3232 -209 c5 -28 9
-97 11 -155 1 -82 -2 -115 -16 -152 -10 -27 -22 -48 -27 -48 -12 0 -20 65 -27
227 -5 118 -3 156 7 168 24 29 44 13 52 -40z m-7127 25 c10 -17 -25 -78 -60
-105 -60 -45 -61 13 -2 78 35 38 51 45 62 27z m7221 -11 c21 -34 -11 -156 -39
-146 -13 4 -17 110 -5 140 8 19 33 23 44 6z m-209 -11 c4 -7 11 -87 15 -178 3
-91 9 -223 13 -295 9 -150 -4 -276 -34 -333 -11 -20 -22 -45 -25 -55 -7 -22
-29 -31 -60 -23 -17 4 -34 25 -57 72 -35 69 -51 84 -94 84 -37 0 -106 -68
-145 -142 -39 -74 -67 -108 -90 -108 -44 0 -91 -69 -105 -153 -5 -31 -13 -41
-48 -59 -35 -19 -58 -23 -143 -23 -106 0 -154 14 -154 44 1 9 40 62 89 118 97
113 153 209 174 299 24 100 65 171 194 336 22 29 67 101 97 160 61 115 86 146
86 109 0 -17 4 -21 19 -16 12 3 21 0 24 -10 4 -8 11 -93 17 -187 12 -210 18
-265 32 -300 18 -48 31 -32 25 30 -25 239 -19 485 13 525 35 42 43 12 51 -195
7 -178 20 -322 36 -408 l7 -35 7 35 c3 19 4 177 1 351 -3 173 -2 327 2 342 7
29 38 37 53 15z m3533 -28 c31 -16 54 -111 47 -192 -3 -37 -9 -73 -12 -78 -10
-16 -72 -12 -79 5 -3 8 1 49 10 90 12 56 13 83 5 112 -20 70 -13 85 29 63z
m100 -344 c0 -19 -61 -56 -103 -63 -41 -6 -75 20 -56 43 25 31 159 47 159 20z
m-1201 -79 c48 -145 63 -275 37 -325 -17 -33 -54 -68 -62 -59 -4 4 -1 35 7 69
19 87 16 261 -5 317 -9 24 -16 50 -16 58 0 30 19 0 39 -60z m-3349 -610 c0 -7
-18 -34 -40 -61 -22 -26 -40 -57 -40 -67 0 -59 156 -74 399 -39 l155 23 19
-24 c30 -37 19 -115 -21 -149 -37 -31 -147 -74 -252 -99 -104 -25 -343 -56
-365 -47 -16 6 -17 18 -13 122 5 114 5 116 -18 126 -13 6 -24 19 -24 28 0 25
56 91 125 150 61 52 75 59 75 37z m2860 -375 c0 -34 -58 -110 -104 -137 -75
-44 -174 -75 -242 -75 -63 0 -205 25 -236 41 -26 14 -70 95 -66 121 3 20 8 23
43 20 22 -2 76 -12 120 -23 44 -10 114 -19 155 -19 64 1 92 7 190 45 131 50
140 52 140 27z m-9694 -197 c10 -25 -44 -103 -99 -145 -98 -73 -258 -127 -353
-117 -122 12 -188 52 -182 110 3 27 7 33 32 35 16 2 56 -7 90 -19 120 -45 253
-23 356 56 61 48 132 95 142 95 5 0 11 -7 14 -15z" style="fill:#ffffff; stroke:none"/>
<path d="M5761 11703 c-6 -21 -15 -69 -21 -108 -31 -212 -85 -395 -166 -566
-64 -138 -72 -159 -55 -159 51 0 206 368 245 580 22 119 32 275 18 284 -7 4
-15 -8 -21 -31z" style="fill:#ffffff; stroke:none"/>
<path d="M5281 10676 c-15 -17 -11 -48 5 -53 14 -5 28 47 16 59 -5 5 -14 3
-21 -6z"/>
<path d="M6561 10252 c-14 -26 -14 -67 0 -93 8 -16 13 -18 25 -8 18 15 18 79
0 104 -13 18 -14 18 -25 -3z"/>
<path d="M680 8102 c-124 -42 -172 -81 -215 -174 -37 -80 -32 -115 22 -150 35
-24 45 -38 63 -96 12 -37 42 -96 66 -132 49 -73 49 -74 -40 -83 -86 -9 -91
-20 -30 -75 27 -26 75 -60 105 -77 72 -40 168 -42 243 -4 71 36 73 54 5 43
-98 -16 -179 -4 -179 26 0 4 13 13 28 19 62 26 147 93 287 228 102 99 146 147
143 160 -3 17 -17 18 -168 18 l-165 0 -64 34 c-62 32 -68 33 -160 30 l-96 -4
2 35 c1 28 11 44 47 77 69 62 126 78 276 78 125 0 125 0 198 -37 39 -21 80
-38 90 -38 27 1 -61 75 -127 107 -49 24 -70 27 -166 30 -86 2 -122 -1 -165
-15z m-18 -439 c50 -54 63 -103 28 -103 -13 0 -31 16 -50 47 -48 75 -33 114
22 56z m226 -19 c29 -8 28 -29 -3 -59 -32 -33 -62 -32 -77 1 -11 23 -10 29 11
45 25 20 34 22 69 13z"/>
<path d="M203 6540 c-27 -11 -33 -60 -8 -60 24 0 29 -28 10 -50 -25 -28 -16
-64 18 -68 23 -3 30 2 43 34 24 56 23 122 0 140 -22 16 -32 16 -63 4z"/>
<path d="M412 6453 c-49 -24 -73 -65 -83 -141 -13 -103 -11 -165 7 -190 19
-27 50 -29 64 -3 15 28 12 93 -5 115 -8 11 -15 29 -15 41 0 66 107 57 124 -10
9 -37 32 -30 50 15 23 59 21 100 -5 100 -31 0 -59 19 -59 40 0 18 -25 50 -38
50 -4 0 -22 -8 -40 -17z"/>
<path d="M480 6159 c-16 -23 -30 -48 -30 -55 0 -19 29 -44 50 -44 21 0 50 25
50 43 0 23 -21 86 -30 92 -5 3 -23 -13 -40 -36z"/>
<path d="M5194 8116 c-7 -19 8 -68 23 -73 16 -6 23 21 14 53 -8 32 -28 43 -37
20z"/>
<path d="M2670 8089 c0 -47 19 -50 32 -4 8 32 3 45 -18 45 -10 0 -14 -12 -14
-41z"/>
<path d="M7430 7763 c0 -21 14 -166 30 -323 17 -157 35 -348 41 -425 13 -164
16 -178 31 -151 13 23 6 243 -15 476 -9 96 -21 226 -27 289 -11 114 -24 161
-47 169 -9 2 -13 -8 -13 -35z"/>
<path d="M5777 6892 c-23 -25 -21 -58 4 -83 27 -27 35 -17 43 49 6 47 5 52
-12 52 -10 0 -26 -8 -35 -18z"/>
<path d="M6157 6763 c-11 -10 -8 -83 3 -83 11 0 40 53 40 75 0 15 -31 21 -43
8z"/>
<path d="M6975 5340 c-7 -11 15 -48 33 -55 36 -13 43 26 10 49 -26 18 -35 20
-43 6z"/>
<path d="M7007 5118 c-46 -62 -84 -153 -67 -163 11 -7 51 49 89 122 36 72 36
73 17 73 -8 0 -26 -15 -39 -32z"/>
<path d="M6860 4800 c-12 -8 -11 -13 11 -37 14 -15 36 -43 48 -60 22 -32 54
-43 66 -23 11 18 -35 100 -66 115 -33 17 -39 18 -59 5z"/>
<path d="M6034 4726 c-3 -9 3 -30 14 -48 26 -42 90 -104 98 -95 18 17 -38 110
-86 144 -17 12 -21 12 -26 -1z"/>
<path d="M10998 4563 c-19 -21 -24 -53 -9 -53 16 0 33 29 29 51 -3 21 -3 21
-20 2z"/>
<path d="M5759 4428 c-47 -38 -80 -118 -59 -143 29 -35 56 -5 79 89 13 52 5
74 -20 54z"/>
<path d="M10796 4310 c-32 -39 -34 -63 -4 -58 17 2 24 13 30 42 5 21 7 41 4
43 -2 2 -15 -10 -30 -27z"/>
<path d="M7114 4234 c3 -9 6 -17 6 -20 0 -2 13 -10 28 -18 16 -8 48 -31 71
-50 45 -38 78 -46 87 -22 10 27 -16 55 -87 90 -78 39 -115 46 -105 20z"/>
<path d="M10892 4118 c2 -13 15 -27 35 -35 41 -16 49 -3 18 31 -30 32 -58 35
-53 4z"/>
<path d="M7363 3973 c-7 -2 -13 -9 -13 -15 0 -6 -22 -35 -50 -65 -46 -50 -62
-83 -42 -83 34 0 169 140 156 161 -6 10 -31 11 -51 2z"/>
<path d="M11105 3894 c-38 -42 -72 -100 -62 -110 13 -14 37 7 62 53 14 26 32
58 41 71 27 36 -4 27 -41 -14z"/>
<path d="M11040 3628 c0 -28 39 -108 52 -108 7 0 9 16 5 40 -9 66 -57 123 -57
68z"/>
<path d="M6109 3843 c-51 -54 -69 -84 -69 -115 0 -33 15 -44 37 -26 24 19 103
144 103 162 0 28 -35 17 -71 -21z"/>
<path d="M7030 3621 c0 -4 17 -29 38 -55 29 -36 43 -46 62 -44 20 2 25 8 25
33 0 25 -7 33 -45 52 -47 23 -80 29 -80 14z"/>
<path d="M6773 3604 c-9 -23 26 -83 56 -98 61 -31 70 22 13 77 -41 40 -59 46
-69 21z"/>
<path d="M7109 3347 c-82 -62 -104 -87 -76 -87 20 0 157 100 175 128 27 42
-13 25 -99 -41z"/>
<path d="M6604 3300 c-72 -47 -88 -64 -80 -85 5 -14 9 -14 37 1 34 17 119 100
119 115 0 16 -13 10 -76 -31z"/>
<path d="M7295 3330 c-56 -22 -54 -71 2 -53 20 7 29 17 31 36 4 29 -1 31 -33
17z"/>
<path d="M11421 3406 c-30 -32 -23 -79 12 -74 17 2 23 11 25 35 2 18 -1 40 -5
48 -8 13 -12 12 -32 -9z"/>
<path d="M11252 3356 c-24 -31 -26 -56 -5 -63 16 -6 35 33 31 65 l-3 27 -23
-29z"/>
<path d="M11480 3185 c0 -23 46 -65 70 -65 29 0 26 34 -6 59 -31 25 -64 27
-64 6z"/>
<path d="M11301 3146 c-9 -11 -6 -18 15 -35 45 -35 67 -20 33 23 -23 30 -32
32 -48 12z"/>
<path d="M11122 3104 c2 -24 8 -29 31 -29 37 0 36 16 -2 39 l-33 19 4 -29z"/>
<path d="M7230 3120 c0 -5 12 -17 28 -27 15 -9 39 -27 53 -41 18 -16 36 -23
55 -20 45 5 35 29 -26 65 -52 32 -110 44 -110 23z"/>
<path d="M4940 3111 c0 -13 54 -51 72 -51 7 0 -2 14 -20 30 -33 30 -52 38 -52
21z"/>
<path d="M7070 3047 c0 -30 73 -64 100 -47 13 8 12 12 -6 30 -27 28 -94 39
-94 17z"/>
<path d="M7433 2830 c-39 -32 -74 -64 -78 -70 -11 -17 10 -33 34 -25 27 8 107
89 127 126 23 46 -2 36 -83 -31z"/>
<path d="M6314 2758 c-27 -24 -59 -54 -71 -68 -22 -25 -31 -60 -15 -60 13 0
169 138 176 155 12 31 -42 15 -90 -27z"/>
<path d="M7190 2567 c0 -16 64 -77 80 -77 17 0 11 46 -7 63 -27 24 -73 33 -73
14z"/>
<path d="M6920 2552 c0 -30 114 -98 139 -82 19 11 6 27 -52 60 -51 29 -87 38
-87 22z"/>
<path d="M11855 2655 c8 -87 29 -162 55 -195 17 -22 20 -23 20 -6 0 37 -51
234 -66 252 -14 17 -14 12 -9 -51z"/>
<path d="M8546 2530 c10 -91 24 -127 20 -49 -2 37 -8 75 -14 85 -9 15 -10 6
-6 -36z"/>
<path d="M3122 2320 c0 -19 2 -27 5 -17 2 9 2 25 0 35 -3 9 -5 1 -5 -18z"/>
<path d="M10593 2330 c8 -108 55 -270 77 -270 15 0 -54 317 -73 335 -6 7 -8
-15 -4 -65z"/>
<path d="M10667 2366 c-8 -20 9 -87 27 -105 15 -14 16 -12 16 26 0 68 -28 119
-43 79z"/>
<path d="M10770 2292 c0 -65 69 -262 91 -262 14 0 11 22 -16 104 -14 42 -25
92 -25 111 0 42 -19 85 -37 85 -8 0 -13 -13 -13 -38z"/>
<path d="M10694 1979 c8 -52 22 -79 41 -79 19 0 19 -1 -6 65 -24 66 -45 74
-35 14z"/>
<path d="M1297 2273 c-52 -149 -85 -353 -58 -353 10 0 14 17 51 217 11 61 27
130 35 153 17 49 18 60 7 60 -5 0 -21 -35 -35 -77z"/>
<path d="M1335 1915 c-3 -14 -7 -36 -10 -50 -3 -14 -1 -25 3 -25 5 0 14 23 19
50 6 28 6 50 2 50 -5 0 -11 -11 -14 -25z"/>
<path d="M8420 1633 c0 -89 16 -263 26 -296 3 -10 11 -16 17 -14 9 3 11 51 8
178 -4 180 -10 219 -36 219 -12 0 -15 -16 -15 -87z"/>
<path d="M8233 1295 c0 -33 2 -45 4 -27 2 18 2 45 0 60 -2 15 -4 0 -4 -33z"/>
<path d="M8126 1083 c-5 -18 7 -90 18 -100 3 -4 6 21 6 55 0 59 -13 82 -24 45z"/>
<path d="M3710 1313 c0 -43 13 -72 24 -54 9 13 -3 79 -15 87 -5 3 -9 -12 -9
-33z"/>
</g>
</svg>
