<svg viewBox="-55 0 512 512.04033" width="85%" height="85%" style='fill: black;' xmlns="http://www.w3.org/2000/svg"><path d="m500.167969 100.238281-19.976563-12.84375c-3.902344-2.507812-9.097656-1.378906-11.605468 2.519531-2.507813 3.902344-1.378907 9.09375 2.523437 11.601563l2.875 1.847656-16.144531 3.476563c-8.539063-32.683594-25.660156-62.492188-49.582032-86.339844l-3-13.957031c-1.015624-4.488281-5.457031-7.320313-9.953124-6.351563-4.5.964844-7.378907 5.375-6.457032 9.886719l2.53125 11.777344-47.589844 44.566406c3.429688 4.84375 5.933594 10.277344 7.386719 16.03125l49.0625-45.957031c19.707031 20.90625 33.890625 46.402344 41.253907 74.175781l-104.839844 21.722656c10.378906-9.507812 16.289062-22.9375 16.285156-37.015625.015625-4.367187-.578125-8.71875-1.761719-12.925781l-15.109375 14.101563-34.496094 32.316406-14.773437 13.847656-.585937.085938c-2.902344-4.804688-7.167969-8.632813-12.257813-10.996094l9.484375-8.898438 47.84375-44.820312 12.421875-11.667969c-10.769531-15.324219-29.15625-23.398437-47.726563-20.957031-18.570312 2.441406-34.25 14.996094-40.6875 32.585937-6.441406 17.585938-2.582031 37.296875 10.019532 51.15625-3.15625-.433593-6.363282-.320312-9.484375.335938l-65.886719 13.679687c-7.449219 1.519532-13.992188 5.9375-18.179688 12.28125-4.1875 6.347656-5.679687 14.097656-4.148437 21.542969 2.71875 13.328125 14.433594 22.902344 28.035156 22.914063 1.972657.019531 3.941407-.179688 5.875-.585938l60.769531-12.589844c2.601563 10.40625 8.644532 33.238282 13.765626 48.179688 1.722656 4.78125 1.101562 10.09375-1.679688 14.351562-1.191406 1.851563-2.878906 3.335938-4.867188 4.28125-.117187.105469-.265624.164063-.421874.167969-1.453126.65625-3.019532 1.023437-4.617188 1.089844-20.832031-.226563-41.589844-2.589844-61.941406-7.050781-23.207032-5.25-46.96875-7.644532-70.757813-7.132813-40.625 3.1875-66.308593 17.207031-76.378906 41.964844-35.421875 25.515625-54.976563 69.246093-54.976563 123.300781-.53125 5.425781 1.484376 10.785156 5.453126 14.519531 2.304687 1.84375 5.195312 2.796875 8.144531 2.6875 1.726562-.003906 3.445312-.230469 5.117187-.671875 1.773438-.402344 3.367188-1.375 4.535156-2.769531l16.703126-19.976563c6.734374-8.011718 11.25-17.648437 13.09375-27.949218 1.089843-6.464844 2.515624-14.4375 4.53125-22.914063 2.347656 7.386719 5.121093 14.351563 7.636718 20.730469-.976562.738281-1.78125 1.683594-2.347656 2.769531l-32.652344 60.769531c-7.191406 13.335938-12.691406 27.519532-16.367187 42.21875-1.878907 7.523438-.191407 15.492188 4.578125 21.609376 4.773437 6.113281 12.089844 9.691406 19.847656 9.699218h22.492188c12.785156-.027344 23.140624-10.382812 23.167968-23.167968.039063-11.515626-5.070312-22.445313-13.933594-29.796876l22.410157-38.1875v.25c4.003906 28.480469 9.664062 56.703126 16.953125 84.523438.914062 3.753906 4.28125 6.390625 8.144531 6.378906h41.964844c9.261719-.027344 16.761719-7.527344 16.789062-16.789062v-8.394532c-.011719-16.75-12.367187-30.929687-28.957031-33.234374-7.710938-13.515626-9.003906-29.757813-3.527344-44.320313l12.339844-36.929687 21.066406 9.402343c27.855469 12.375 57.769532 19.460938 88.214844 20.898438l-18.800781 56.402343c-2.105469 6.394532-3.183594 13.078126-3.1875 19.808594v16.367188c.023437 9.261718 7.523437 16.761718 16.785156 16.789062h33.574219c9.257812-.027344 16.757812-7.527344 16.785156-16.789062v-8.394532c.003906-11.289062-5.675781-21.824218-15.105469-28.03125l18.714844-50.027343 43.648437 38.277343c7.292969 6.367188 11.484376 15.578126 11.496094 25.261719v22.914063c.027344 9.261718 7.527344 16.761718 16.789063 16.789062h33.574219c9.257812-.027344 16.757812-7.527344 16.785156-16.789062v-8.394532c.015625-12.121093-6.535156-23.300781-17.121094-29.207031-.523438-6.257812-2.082031-12.386719-4.617188-18.128906-2.597656-5.40625-5.746093-10.523437-9.402343-15.277344l-2.601563-3.691406c-10.261718-15.085937-17.238281-32.15625-20.480468-50.109375-3.007813-16.667969-2.867188-33.75.421874-50.363281l3.355469-15.527344 3.609375-17.039063c5.089844-23.136718 4.660156-47.144531-1.257812-70.082031l46.980468 16.023438 2.53125 11.761719c.832032 3.863281 4.246094 6.625 8.195313 6.628906.601563 0 1.195313-.0625 1.78125-.1875 4.527344-.976563 7.410156-5.441406 6.433594-9.972656l-3-13.953126c7-18.488281 11.074219-37.953124 12.074219-57.695312l.125-.03125 9.652343-2.011719c13.25-2.863281 22.714844-14.566406 22.746094-28.121093-.046875-1.941407-.242187-3.878907-.585937-5.789063-.890626-4.230469-2.695313-8.210937-5.289063-11.667969l-.023437-.027344 6.988281-1.503906c3.324219-.714844 5.890625-3.359375 6.5-6.703125.605469-3.34375-.859375-6.726562-3.71875-8.5625zm-227.304688 61.449219v.085938c-.25.585937-.585937 1.175781-.839843 1.675781-1.667969 3.019531-4.589844 5.140625-7.972657 5.792969l-65.890625 13.679687c-3.097656.636719-6.320312.035156-8.980468-1.675781-2.648438-1.738282-4.492188-4.464844-5.121094-7.570313-.632813-3.105469.003906-6.332031 1.765625-8.964843 1.710937-2.628907 4.398437-4.472657 7.46875-5.121094l65.890625-13.597656c.800781-.164063 1.613281-.246094 2.433594-.25 2.570312-.007813 5.070312.816406 7.132812 2.347656.203125.21875.429688.417968.671875.589844 1.648437 1.429687 2.871094 3.289062 3.527344 5.371093.160156.375.273437.769531.335937 1.175781v.082032c.410156 2.128906.265625 4.324218-.421875 6.378906zm-235.9375 207.152344c-1.3125 7.421875-4.554687 14.367187-9.402343 20.144531l-10.238282 12.253906c.585938-24.929687 6.378906-63.625 33.152344-92.160156 0 1.34375 0 2.769531.082031 4.195313-6.015625 18.128906-10.5625 36.707031-13.59375 55.566406zm330.785157-62.785156c-55.648438-.417969-84.605469-21.988282-97.113282-35.25 5.808594-1.246094 11.070313-4.300782 15.023438-8.730469 12.085937 11.5 37.6875 27.699219 85.699218 27.109375zm70.117187-95.058594-55.765625-19.007813c-1.34375-3.1875-2.769531-6.460937-4.363281-9.566406l69.078125-14.269531.03125-.007813c-1.171875 14.605469-4.191406 29.003907-8.980469 42.851563zm-74.0625-42.761719c-.199219-.019531-.402344.011719-.589844.085937-.488281.089844-.964843.230469-1.425781.417969-.09375-.011719-.183594.019531-.25.085938-.367188.097656-.710938.269531-1.007812.503906-.152344.0625-.269532.183594-.335938.332031-.046875 0-.085938.039063-.085938.085938-.167968 0-.25.167968-.417968.335937-.351563.117188-.648438.355469-.839844.671875l-.335938.335938c-.183593.15625-.328124.359375-.417968.585937-.421875.492188-.734375 1.0625-.925782 1.679688-.167968.167969-.167968.417969-.25.585937-.164062.371094-.25.773438-.253906 1.175782-.25 1.019531-.25 2.085937 0 3.105468.089844.488282.230469.96875.421875 1.425782.160157.4375.355469.859374.585938 1.261718.085937 0 .085937 0 .085937.082032.671875 1.09375 1.257813 2.183593 1.84375 3.359374l-69.414062-23.671874c.070312-.5.101562-1.003907.085937-1.507813l154.773438-32.046875c1.277343 7.859375 2.003906 15.792969 2.179687 23.753906zm106.34375-22.074219-6.128906 1.257813-.109375.023437c-.304688-7.960937-1.113282-15.894531-2.421875-23.753906l.097656-.019531 3.695313-.757813c6.300781-1.375 12.527343 2.601563 13.933593 8.898438.1875.882812.300781 1.78125.335938 2.683594.054687 5.636718-3.882813 10.523437-9.402344 11.667968zm0 0"/></svg>