<svg height="512pt" viewBox="-24 0 512 512.00471" width="512pt" xmlns="http://www.w3.org/2000/svg"><path d="m327.886719 261.242188 27.179687-4.855469c-2.328125-7.902344-5.347656-15.585938-9.015625-22.964844-4.125-8.632813-6.257812-18.082031-6.25-27.648437l-18.507812-30.113282c-4.105469-.882812-8.003907-2.542968-11.484375-4.890625-6.761719 22.351563-4.152344 46.492188 7.238281 66.875 4.507813 7.425781 8.144531 15.34375 10.839844 23.597657zm0 0"/><path d="m343.636719 47.460938c14.179687-.625 28.195312 3.257812 40.035156 11.089843 3.132813-4.703125 5.53125-8.296875 7.382813-11.066406-3.796876-1.910156-7.546876-3.785156-8.121094-4.070313-6.898438-3.441406-14.328125-5.6875-21.976563-6.644531-2.882812-.363281-5.785156-.542969-8.695312-.539062-21.195313-.378907-41.296875 9.40625-54.074219 26.324219-5.382812 7.789062-8.738281 16.796874-9.757812 26.207031-.433594 5.515625-.40625 11.058593.082031 16.566406.511719 6.179687.546875 12.386719.105469 18.570313-.53125 5.425781-1.664063 10.777343-3.371094 15.957031 7.480468-.890625 14.558594-3.859375 20.433594-8.574219l-.257813-.492188c-.566406-1.105468-.980469-1.976562-1.113281-2.328124-5.019532-12.800782-14.359375-36.632813-2.484375-56.394532 9.121093-14.5 24.707031-23.675781 41.8125-24.605468zm0 0"/><path d="m.00390625 485.207031 5.27734375 16.863281 133-41.503906c-2.703125-5.339844-4-11.277344-3.777344-17.257812zm0 0"/><path d="m271.988281 428.847656c-.6875-3.378906-.6875-6.859375 0-10.238281-.390625-.050781-.777343-.128906-1.160156-.234375l-48.542969-20.105469c-5.039062 16.597657-5.039062 34.320313 0 50.917969l48.542969-20.109375c.382813-.105469.769531-.179687 1.160156-.230469zm0 0"/><path d="m361.90625 225.660156c4.425781 8.839844 7.984375 18.085938 10.628906 27.609375l42.816406-7.648437-53.914062-21.042969c.160156.335937.316406.773437.46875 1.082031zm0 0"/><path d="m342.09375 150.074219c0-4.875-5.929688-8.828125-13.242188-8.828125s-13.242187 3.953125-13.242187 8.828125 5.929687 8.828125 13.242187 8.828125 13.242188-3.953125 13.242188-8.828125zm0 0"/><path d="m442.191406 227.710938c1.769532-4.519532-.445312-9.621094-4.957031-11.414063l-62.507813-24.363281c-2.089843-.8125-3.792968-2.394532-4.757812-4.421875l-14.667969-23.960938c-3.507812 4.941407-8.433593 8.699219-14.125 10.777344l14.878907 24.179687c.277343.453126.515624.929688.710937 1.425782l1.625 2.558594c.964844 1.621093 2.4375 2.878906 4.183594 3.578124l68.179687 26.617188c4.53125 1.753906 9.628906-.464844 11.4375-4.976562zm0 0"/><path d="m372.523438 106.867188 2.914062 1.457031-4.5625-36.722657c-7.8125-4.710937-16.855469-6.984374-25.96875-6.527343-11.375.515625-21.792969 6.511719-27.953125 16.085937-6.5 10.816406-2.015625 26.035156 3.796875 40.867188l.214844.390625c14.519531-1.765625 29.234375.820312 42.285156 7.421875l-3.238281-12.933594c-.835938-3.34375.351562-6.871094 3.039062-9.03125 2.691407-2.15625 6.390625-2.550781 9.476563-1.007812zm0 0"/><path d="m324.4375 423.730469c0 9.75-7.90625 17.652343-17.65625 17.652343s-17.652344-7.902343-17.652344-17.652343c0-9.753907 7.902344-17.65625 17.652344-17.65625s17.65625 7.902343 17.65625 17.65625zm0 0"/><path d="m335 444.730469c-2.042969 2.742187-4.472656 5.171875-7.214844 7.21875.242188.304687.460938.632812.65625.96875l20.109375 48.546875c15.238281-8.230469 27.742188-20.730469 35.96875-35.972656l-48.542969-20.109376c-.339843-.191406-.667968-.410156-.976562-.652343zm0 0"/><path d="m311.902344 458.519531c-3.378906.691407-6.863282.691407-10.238282 0-.050781.394531-.125.78125-.230468 1.164063l-20.109375 48.542968c16.597656 5.039063 34.316406 5.039063 50.914062 0l-20.105469-48.542968c-.105468-.382813-.183593-.769532-.230468-1.164063zm0 0"/><path d="m342.734375 418.378906c-.378906.105469-.765625.183594-1.160156.234375.691406 3.378907.691406 6.859375 0 10.238281.394531.046876.78125.125 1.160156.226563l48.546875 20.109375c5.035156-16.597656 5.035156-34.316406 0-50.914062zm0 0"/><path d="m361.476562 308.796875c-4.738281.863281-9.296874-2.230469-10.238281-6.953125-.945312-4.726562 2.074219-9.332031 6.78125-10.355469l100.519531-20.089843c-1.4375-4.949219-3.394531-9.734376-5.839843-14.273438l-227.714844 40.425781c-.175781.03125-.324219.117188-.5.15625l-29.195313-199.550781 17.640626-31.019531c3.324218-5.808594 3.058593-13-.683594-18.550781l-29.917969-44.667969c-1.859375-2.777344-5.128906-4.269531-8.449219-3.8476565-3.316406.4218755-6.109375 2.6835935-7.21875 5.8398435l-17.785156 50.742188c-2.230469 6.308594-.683594 13.339844 3.992188 18.128906l24.917968 25.695312 31.273438 213.714844-2.867188 6.375-83.128906-208.242187 10.257812-34.085938c1.957032-6.40625.097657-13.363281-4.792968-17.941406l-39.117188-36.882813c-2.429687-2.292968-5.953125-3.019531-9.09375-1.867187-3.140625 1.148437-5.359375 3.976563-5.734375 7.296875l-6.035156 53.421875c-.773437 6.648437 2.300781 13.160156 7.921875 16.789063l30.089844 19.546874 89.5625 224.355469-2.550782 5.679688-117.179687-169.695313.460937-35.839844c.109376-6.695312-3.601562-12.871093-9.5625-15.921874l-47.769531-24.652344c-2.972656-1.53125-6.554687-1.253906-9.253906.71875-2.699219 1.96875-4.050781 5.296875-3.496094 8.59375l8.933594 53c1.085937 6.609375 5.835937 12.023437 12.246094 13.960937l34.082031 10.417969 122.730469 177.734375c.105469.15625.289062.210937.40625.359375l-31.527344 70.109375c-2.351563 5.222656-2.023437 11.257813.875 16.191406 2.898437 4.9375 8.011719 8.160157 13.714844 8.648438l41.386719 3.550781c-.214844-.496094-.441407-.984375-.644532-1.484375l-.035156-.054687-.015625-.078126c-10.761719-25.90625-10.761719-55.027343 0-80.933593l.015625-.078125.027344-.042969c10.804687-25.863281 31.367187-46.425781 57.230468-57.226563l.042969-.03125.078125-.015624c25.902344-10.757813 55.027344-10.757813 80.933594 0l.074219.015624.042969.03125c25.867187 10.800782 46.429687 31.363282 57.230468 57.230469l.03125.039063.011719.078125c10.761719 25.90625 10.761719 55.027343 0 80.933593l-.011719.078126-.035156.054687c-2.542969 6.074219-5.644531 11.898437-9.269531 17.398437l37.605469 3.230469c7.414062-23.804687 38.738281-130.074219 29.359374-196.300781zm0 0"/><path d="m281.324219 339.230469 20.109375 48.546875c.101562.378906.179687.765625.226562 1.160156 3.378906-.691406 6.863282-.691406 10.242188 0 .046875-.394531.121094-.78125.226562-1.160156l20.109375-48.546875c-16.601562-5.035157-34.320312-5.035157-50.917969 0zm0 0"/><path d="m335 402.726562c.308594-.242187.632812-.460937.972656-.65625l48.542969-20.109374c-8.226563-15.238282-20.730469-27.742188-35.96875-35.96875l-20.109375 48.542968c-.179688.351563-.382812.6875-.609375 1.011719 2.722656 2.035156 5.136719 4.453125 7.171875 7.179687zm0 0"/><path d="m229.042969 381.960938 48.546875 20.109374c.335937.195313.660156.414063.96875.65625 2.035156-2.726562 4.449218-5.144531 7.171875-7.179687-.226563-.324219-.433594-.660156-.609375-1.011719l-20.109375-48.542968c-15.238281 8.226562-27.738281 20.730468-35.96875 35.96875zm0 0"/><path d="m285.777344 451.949219c-2.738282-2.046875-5.167969-4.476563-7.214844-7.21875-.308594.242187-.632812.460937-.96875.65625l-48.546875 20.109375c8.230469 15.238281 20.730469 27.742187 35.96875 35.972656l20.109375-48.546875c.195312-.339844.414062-.664063.652344-.972656zm0 0"/></svg>