<svg viewBox="-55 0 512 512.04033"  width="85%" height="85%" style='fill: white;' xmlns="http://www.w3.org/2000/svg">
<g>
<path d="m272.277344 415.523438-3.597656-41.121094c-8.648438 1.96875-17.421876 3.324218-26.257813 4.050781l3.476563 39.371094c8.519531-2.6875 17.523437-3.472657 26.378906-2.300781zm0 0"/><path d="m174.9375 414.707031c4.4375.414063 8.820312 1.285157 13.074219 2.597657l3.402343-38.851563c-8.8125-.730469-17.5625-2.085937-26.183593-4.054687l-3.582031 40.597656c4.40625-.550782 8.863281-.648438 13.289062-.289063zm0 0"/><path d="m155.121094 352.890625c1.492187.578125 3.140625 1.160156 4.945312 1.734375 13.433594 4.113281 27.351563 6.441406 41.394532 6.925781 9.507812.503907 21.242187.511719 30.921874 0 14.035157-.460937 27.945313-2.777343 41.371094-6.886719 2.902344-.910156 5.75-1.988281 8.527344-3.230468.667969-.300782 1.261719-.746094 1.742188-1.304688-.367188-.089844-.707032-.238281-1.074219-.328125-3.972657-.960937-7.886719-2.15625-11.71875-3.578125-20.816407-7.734375-38.804688-21.582031-51.605469-39.726562-4.171875-5.820313-7.746094-12.046875-10.671875-18.585938l-.019531-.03125-.019532-.042968-.007812-.019532c-1.832031-4.097656-3.394531-8.3125-4.679688-12.617187-.160156-.519531-.402343-.972657-.554687-1.5h-33.113281l-20.539063 68.464843c-1.339843 4.359376.878907 9.015626 5.101563 10.726563zm0 0"/><path d="m151.5 503.644531c5.738281 6.839844 15.03125 9.550781 23.546875 6.867188 8.515625-2.683594 14.574219-10.234375 15.351563-19.132813l4.523437-51.726562-.929687-.570313c-6.242188-3.816406-13.28125-6.140625-20.566407-6.789062-1.355469-.117188-2.71875-.175781-4.082031-.175781-5.960938 0-11.871094 1.121093-17.421875 3.304687l-.945313.378906-4.550781 51.730469c-.53125 5.835938 1.296875 11.636719 5.074219 16.113281zm21.320312-62.222656c4.875 0 8.828126 3.953125 8.828126 8.828125s-3.953126 8.828125-8.828126 8.828125-8.828124-3.953125-8.828124-8.828125 3.953124-8.828125 8.828124-8.828125zm0 0"/><path d="m31.621094 203.925781.027344-.015625 4.769531-1.792968 36.5-13.816407.007812-.007812-6.257812-16.507813-8.261719 3.125-41.285156 15.625 6.246094 16.515625zm0 0"/><path d="m62.628906 211.097656-16.488281 6.214844 5.796875 15.238281c1.835938-1.574219 3.878906-2.886719 6.070312-3.902343l9.667969-4.226563zm0 0"/><path d="m127.855469 211.988281c-1.710938 4.300781-5.09375 7.722657-9.371094 9.476563l-53.355469 23.335937c-2.894531 1.277344-4.890625 4-5.230468 7.148438-.34375 3.148437 1.019531 6.238281 3.574218 8.105469 2.554688 1.871093 5.910156 2.238281 8.808594.960937l33.4375-14.648437c.242188-.101563.484375-.199219.734375-.28125l25.75-11.28125c4.171875-1.835938 7.476563-5.210938 9.214844-9.425782l7.34375-17.808594-9.796875-22.6875zm0 0"/><path d="m239.007812 440.160156 4.511719 51.730469c.683594 7.855469 5.511719 14.746094 12.65625 18.082031 7.144531 3.332032 15.527344 2.601563 21.984375-1.921875 6.460938-4.523437 10.019532-12.144531 9.332032-20l-4.527344-51.730469-.964844-.375c-5.546875-2.1875-11.457031-3.308593-17.421875-3.3125-1.351563 0-2.714844.0625-4.066406.179688-7.308594.644531-14.367188 2.976562-20.621094 6.808594zm22.089844 1.261719c4.875 0 8.824219 3.953125 8.824219 8.828125s-3.949219 8.828125-8.824219 8.828125c-4.878906 0-8.828125-3.953125-8.828125-8.828125s3.949219-8.828125 8.828125-8.828125zm0 0"/><path d="m282.121094 154.289062c-45.988282 14.410157-73.335938 61.578126-63 108.648438 2.691406 11.984375 7.753906 23.3125 14.878906 33.316406 10.75 15.269532 25.875 26.921875 43.378906 33.417969 10.328125 3.835937 21.253906 5.808594 32.269532 5.820313 51.191406 0 92.6875-41.5 92.6875-92.6875 0-51.191407-41.496094-92.691407-92.6875-92.691407-5.886719 0-11.757813.542969-17.542969 1.617188-3.300781.691406-6.644531 1.503906-9.984375 2.558593zm-38.6875 75.273438c-3.058594-.003906-5.894532-1.589844-7.503906-4.191406-1.605469-2.597656-1.75-5.847656-.386719-8.582032 6.003906-12.214843 14.195312-23.226562 24.175781-32.484374 2.308594-2.207032 5.632812-2.996094 8.691406-2.054688 3.054688.9375 5.363282 3.457031 6.035156 6.582031.671876 3.125-.398437 6.371094-2.796874 8.480469-8.386719 7.804688-15.269532 17.078125-20.3125 27.367188-1.492188 2.996093-4.554688 4.886718-7.902344 4.882812zm114.765625 13.242188c0 26.8125-21.738281 48.550781-48.550781 48.550781-26.816407 0-48.550782-21.738281-48.550782-48.550781 0-26.816407 21.734375-48.554688 48.550782-48.554688 26.800781.035156 48.519531 21.75 48.550781 48.554688zm-61.792969-66.207032c0 4.875-3.953125 8.824219-8.828125 8.824219s-8.828125-3.949219-8.828125-8.824219 3.953125-8.828125 8.828125-8.828125 8.828125 3.953125 8.828125 8.828125zm0 0"/><path d="m340.542969 242.804688c0 17.0625-13.832031 30.894531-30.894531 30.894531s-30.898438-13.832031-30.898438-30.894531c0-17.066407 13.835938-30.898438 30.898438-30.898438s30.894531 13.832031 30.894531 30.898438zm0 0"/><path d="m150.222656 166.40625 16.230469 37.585938.007813.027343.011718.015625 2.808594 6.605469c2.34375 5.46875 3.550781 11.359375 3.539062 17.3125v28.089844h27.300782c-.53125-4.394531-.804688-8.8125-.816406-13.238281-.128907-37.492188 18.898437-72.449219 50.453124-92.691407h-59.988281c-4.046875.015625-8.035156.933594-11.679687 2.683594l-26.308594 12.765625c-.535156.25-1.054688.53125-1.558594.84375zm40.253906-7.464844c4.875 0 8.828126 3.953125 8.828126 8.828125s-3.953126 8.828125-8.828126 8.828125-8.828124-3.953125-8.828124-8.828125 3.953124-8.828125 8.828124-8.828125zm0 26.480469c4.875 0 8.828126 3.953125 8.828126 8.828125s-3.953126 8.828125-8.828126 8.828125-8.828124-3.953125-8.828124-8.828125 3.953124-8.828125 8.828124-8.828125zm0 0"/><path d="m43.902344 161.519531-27.375-72.351562-14.503906-13.390625-2.0039068 19.632812 27.3749998 72.359375zm0 0"/><path d="m152.820312 30.585938c-.46875 5.226562 1.410157 10.390624 5.128907 14.09375l20.238281 20.234374c-1.347656 2.617188-2.34375 5.394532-2.96875 8.269532-.105469.375-.105469.375-8.992188 44.832031l17.308594 3.464844s8.652344-43.257813 8.828125-44.148438c1.320313-4.871093 3.824219-9.34375 7.292969-13.015625 10.203125-9.097656 24.832031-11.277344 37.242188-5.542968 7.914062 2.273437 12.96875 10.007812 11.871093 18.171874-1.109375 4.15625-2.761719 8.148438-4.921875 11.867188-2.011718 3.671875-3.738281 7.492188-5.164062 11.425781-8.15625-.828125-16.394532.199219-24.097656 3l3.179687-12.71875 14.027344-7.011719c4.359375-2.179687 6.128906-7.484374 3.945312-11.84375-2.179687-4.363281-7.484375-6.128906-11.84375-3.949218l-17.65625 8.828125c-2.300781 1.152343-3.988281 3.253906-4.609375 5.753906l-8.828125 35.308594c-.882812 3.539062.496094 7.253906 3.476563 9.355469 2.980468 2.101562 6.945312 2.152343 9.980468.132812 21.371094-14.25 34.886719-8.460938 35.292969-8.277344 2.675781 1.339844 5.847657 1.230469 8.425781-.289062 2.578126-1.515625 4.210938-4.238282 4.339844-7.226563.699219-5.113281 2.476563-10.015625 5.214844-14.390625 2.9375-5.15625 5.140625-10.695312 6.542969-16.460937 2.910156-16.492188-6.648438-32.640625-22.507813-38.019531-18.335937-7.96875-39.601562-4.832032-54.855468 8.089843l-18.386719-18.269531c21.09375-14.832031 48.046875-18.574219 72.382812-10.058594 13.683594 4.019532 25.21875 13.292969 32.085938 25.785156 7.792969 16.253907 2.386719 37.078126-2.351563 51.308594-5.269531 17.152344-1.085937 35.808594 11 49.074219 1.867188 2.597656 4.992188 3.988281 8.175782 3.621094 3.179687-.363281 5.914062-2.417969 7.144531-5.375s.765625-6.347657-1.21875-8.859375c-8.535157-8.632813-11.734375-21.207032-8.351563-32.867188 5.707032-17.15625 12.085938-42.507812 1.515625-64.539062-8.804687-16.914063-24.117187-29.515625-42.410156-34.898438-29.613281-10.351562-62.402344-5.765625-88.042969 12.308594-4.265625 2.960938-6.988281 7.667969-7.433594 12.835938zm0 0"/></g></svg>