<?xml version="1.0" encoding="UTF-8"?>
<svg version="1.1" viewBox="0 0 370 341.83" xmlns="http://www.w3.org/2000/svg" xmlns:cc="http://creativecommons.org/ns#" xmlns:dc="http://purl.org/dc/elements/1.1/" xmlns:rdf="http://www.w3.org/1999/02/22-rdf-syntax-ns#" width="45" height="45">
<metadata>
<rdf:RDF>
<cc:Work rdf:about="">
<dc:format>image/svg+xml</dc:format>
<dc:type rdf:resource="http://purl.org/dc/dcmitype/StillImage"/>
<dc:title>Hoplite_Greek_warrior</dc:title>
<cc:license rdf:resource="http://creativecommons.org/publicdomain/zero/1.0/"/>
<dc:date>03/10/2016</dc:date>
<dc:creator>
<cc:Agent>
<dc:title>edited by Paul Sherman</dc:title>
</cc:Agent>
</dc:creator>
<dc:rights>
<cc:Agent>
<dc:title>pd</dc:title>
</cc:Agent>
</dc:rights>
<dc:publisher>
<cc:Agent>
<dc:title>wpclipart</dc:title>
</cc:Agent>
</dc:publisher>
</cc:Work>
<cc:License rdf:about="http://creativecommons.org/publicdomain/zero/1.0/">
<cc:permits rdf:resource="http://creativecommons.org/ns#Reproduction"/>
<cc:permits rdf:resource="http://creativecommons.org/ns#Distribution"/>
<cc:permits rdf:resource="http://creativecommons.org/ns#DerivativeWorks"/>
</cc:License>
</rdf:RDF>
</metadata>
<path d="m4 337.13c0-2.888 4.2305-9.1196 6.1911-9.1196 1.1675 0 6.4021-3.2273 11.632-7.1718 8.9112-6.7204 9.7371-7.7904 13.121-17 1.9862-5.4055 4.0153-12.528 4.5091-15.828 1.2997-8.6857 6.4934-18.97 13.642-27.012 3.4309-3.8598 6.8993-8.2112 7.7075-9.6698 0.80823-1.4586 2.6756-2.8328 4.1497-3.0539 4.2027-0.63038 9.1679-6.9235 11.76-14.905 1.305-4.0188 3.804-10.543 5.5534-14.499 1.7494-3.9557 2.8614-7.5115 2.4712-7.9018-0.39026-0.39025-3.0292 0.33645-5.8643 1.6149-12.772 5.7592-18.082 2.259-17.054-11.241 3.9057-51.29 10.298-72.058 32.617-105.97 9.4492-14.357 28.441-34.413 39.565-41.78 9.9667-6.6011 14.503-9.7894 20.84-14.648 7.4698-5.7267 14.178-5.6228 16.986 0.26315 1.5777 3.3069 2.0228 3.5481 3.0757 1.6667 0.67708-1.2099 2.0083-2.1998 2.9582-2.1998 1.8045 0 6.9736-4.9992 6.0211-5.8232-0.30107-0.26044-4.3736-1.6943-9.0501-3.1863-7.5975-2.424-8.977-2.5147-12.957-0.85163-2.4499 1.0236-5.5237 1.8203-6.8306 1.7704-1.3069-0.04995-14.376-6.0521-29.043-13.338l-26.667-13.247 9.3333 0.61398c8.6083 0.56629 51.123 8.9506 53.811 10.612 0.64628 0.39942 1.8673 2.3976 2.7135 4.4403 1.2397 2.9929 3.5147 4.4248 11.716 7.3747 5.5979 2.0133 10.411 3.4279 10.695 3.1434s-0.19649-3.3516-1.0688-6.8159c-1.2757-5.0662-2.331-6.5584-5.3934-7.626-6.8662-2.3936-3.942-5.1214 9.144-8.5299 8.8131-2.2955 18.163-1.0249 29.014 3.9427 12.86 5.8876 22.587 21.107 23.931 37.444 0.0568 0.69108 9.6822 4.6551 21.39 8.8089 17.91 6.3546 21.573 7.2658 23.093 5.7455 0.9938-0.9938 3.3043-2.1827 5.1345-2.6421 4.1046-1.0302 17.525 1.543 20.383 3.9082 1.1568 0.95736 3.7922 2.4615 5.8564 3.3426 2.8645 1.2226 3.5568 2.2203 2.9242 4.2134-0.64404 2.0292-0.0549 2.8057 2.6424 3.4827 4.8794 1.2247 3.1057 2.336-1.9545 1.2246-3.218-0.70678-4.0691-1.5352-3.762-3.662 0.3014-2.0875-0.72555-3.1566-4.2698-4.4453-2.5667-0.93324-4.0967-1.7424-3.4-1.7982 0.70116-0.05615 0.61626-0.75185-0.19018-1.5583-1.0536-1.0536-2.2906-1.0106-4.4688 0.15511-2.5999 1.3914-2.8989 1.3171-2.185-0.54314 1.0968-2.8583-0.80971-2.744-3.4819 0.20867-2.6656 2.9454-0.81115 7.3733 1.937 4.6251 2.2283-2.2283 6.001-2.0965 6.898 0.24098 0.44542 1.1607 1.794 1.6177 3.476 1.1778 1.5637-0.40892 2.7482-0.07697 2.7482 0.77016 0 0.81886-0.9 1.4888-2 1.4888s-2 0.53427-2 1.1873c0 0.653 4.6739 2.4484 10.387 3.9899 5.7126 1.5414 15.725 4.6072 22.25 6.8127 11.481 3.8808 15.248 4.7835 13.762 3.298-0.39168-0.39168-6.6417-2.7723-13.889-5.2903-7.2472-2.518-11.977-4.5576-10.51-4.5326 1.4667 0.02507 9.2667 2.2557 17.333 4.957 12.141 4.0655 14.667 5.3707 14.667 7.578 0 3.7283-4.1865 3.0809-25.46-3.9372-25.447-8.395-24.486-8.3026-34.336-3.2991-8.4699 4.3026-8.4785 4.3129-11.496 13.771-4.3253 13.558-10.959 24.721-19.479 32.778-6.9031 6.5286-7.7438 6.9474-12.319 6.1369-2.7009-0.47844-10.611-1.7579-17.577-2.8433-6.9667-1.0854-13.745-2.3155-15.064-2.7336-4.2365-1.3432-6.2678 1.7656-5.3811 8.2354 1.0821 7.8949-1.4863 16.136-6.9959 22.447l-4.559 5.2222v-4.0232c0-2.2127 0.5486-5.7627 1.2191-7.8888 0.67051-2.1261 1.5662-5.8688 1.9903-8.3171 0.76068-4.3909 0.63264-4.3183-9.4089 5.3333-16.705 16.056-17.931 17.118-19.76 17.118-2.517 0-3.5666 3.6406-1.3004 4.5102 1.0476 0.40198 1.7959 2.1016 1.663 3.777-0.13293 1.6754 1.8926 6.0461 4.5012 9.7128 2.6086 3.6667 5.3132 8.4667 6.0101 10.667 0.81305 2.5665 3.624 5.5566 7.8433 8.3433 7.0416 4.6508 8.5918 8.7036 3.6005 9.4129-2.8526 0.4054-2.7581 0.71099 2.2872 7.3934 9.4545 12.522 11.634 22.402 7.1831 32.56-1.1946 2.7264-2.0842 6.6181-1.977 8.6481 0.1469 2.7807-0.60606 3.9955-3.0534 4.9259-2.2056 0.83856-4.4568 3.9278-7.0129 9.6234-2.0705 4.6136-6.6945 11.997-10.276 16.407-3.5811 4.4104-7.6895 10.627-9.1297 13.815l-2.6186 5.7958 5.0663 4.6406c7.8455 7.1862 13.477 8.7203 33.173 9.0374 24.37 0.39234 42.222 2.0687 41.601 3.9064-0.34284 1.0149-8.3369 1.564-25.052 1.7206-13.502 0.12653-34.449 0.56392-46.549 0.97197s-23.2 0.78121-24.667 0.82923c-10.058 0.32926-10.933-3.5488-3.8202-16.921 4.2358-7.9628 5.1469-11.419 7.2304-27.433 1.7075-13.123 3.3359-20.311 5.7391-25.333 3.9354-8.2239 7.8266-13.011 10.576-13.011 1.0803 0 2.2772-1.1971 2.6598-2.6602 0.55736-2.1314-0.47219-3.1768-5.1788-5.2588-3.231-1.4292-9.1434-5.6901-13.139-9.4687l-7.2642-6.8702-9.7348 0.0492c-5.3542 0.0271-11.685 0.45317-14.068 0.94697-3.443 0.71337-4.3333 0.46389-4.3333-1.2143 0-1.6947-1.0396-1.9667-5.2606-1.3763-5.4251 0.75881-12.438 6.4846-32.616 26.629-4.4679 4.4606-10.123 9.487-12.568 11.17-3.1619 2.1769-4.2512 3.7987-3.7748 5.6203 0.43577 1.6664-0.80581 4.135-3.5556 7.0696-2.3238 2.48-5.6577 6.3959-7.4087 8.7021-1.7509 2.3061-5.4938 5.6514-8.3176 7.4339-5.7779 3.6474-13.166 16.544-13.166 22.983 0 2.138-1.1786 4.898-2.6667 6.2447-1.4667 1.3273-2.6667 3.3822-2.6667 4.5665 0 1.9463 3.9088 2.1038 40.664 1.6394 42.81-0.54096 55.336 0.14552 55.336 3.0326 0 1.357-7.8338 1.6968-37.667 1.6338-21.534-0.0455-43.128 0.59792-50.418 1.5022-8.4409 1.047-14.245 1.1534-17.17 0.31453-2.4403-0.69988-5.3871-0.7684-6.5817-0.15304-3.1975 1.6471-25.496 2.7405-25.496 1.2502zm23.369-4.8621c-0.41052-0.41052-1.4864-8.5e-4 -2.3908 0.91037-1.307 1.3168-1.1539 1.47 0.74639 0.7464 1.315-0.5007 2.055-1.2462 1.6444-1.6568zm163.05-0.28787c13.194-0.0281 13.951-0.16702 10.247-1.8797-2.2-1.0172-5.7045-2.2286-7.7879-2.6921-2.4173-0.53783-3.5405-1.4874-3.1042-2.6245 0.37604-0.97993 0.0107-2.4548-0.81209-3.2775-2.0123-2.0123-7.2432-1.9017-8.0794 0.17085-0.41408 1.0262-0.71296 0.80025-0.77778-0.58797-0.0579-1.2401 0.49694-2.6268 1.233-3.0817 0.73603-0.45488 0.9912-2.2097 0.56707-3.8996-0.66551-2.6516 0.19468-7.67 2.9306-17.097 0.37244-1.2833 0.13173-2.3333-0.53498-2.3333-0.66668 0-1.9487 2.4584-2.8489 5.4632-2.1988 7.3391-3.2338 5.821-1.452-2.1298 0.78316-3.4946 1.1035-6.6742 0.71196-7.0658-0.39158-0.39159-0.71196 0.0171-0.71196 0.908 0 0.89097-1.2 4.1037-2.6667 7.1393-1.4667 3.0356-2.6667 6.6306-2.6667 7.9887 0 3.4132-5.0504 13.005-7.3026 13.869-1.0168 0.39018-1.8575 1.711-1.8682 2.935-0.0107 1.2241-0.41205 3.826-0.89198 5.7819-0.74012 3.0163-0.39671 3.6334 2.2617 4.0642 1.7239 0.27936 4.5234 0.0291 6.2212-0.55634 1.6977-0.58533 9.4977-1.0779 17.333-1.0946zm-14.746-19.303c0.35047-1.8333 1.0841-3.3333 1.6302-3.3333 0.54614 0 0.70625 1.5 0.35578 3.3333-0.35046 1.8333-1.084 3.3333-1.6302 3.3333-0.54615 0-0.70625-1.5-0.35579-3.3333zm-153.92 19.086c1.6018-0.86911 4.9849-1.9248 7.518-2.346 4.2761-0.71103 5.0578-1.6714 10.923-13.42 3.4746-6.9597 7.178-13.554 8.2296-14.654 2.2035-2.3048 7.7902-13.562 7.082-14.271-1.7992-1.7992-23.507 28.565-23.507 32.881 0 1.0098-0.87516 1.3388-2.2042 0.82882-1.4491-0.55605-4.386 0.99383-8.5725 4.524-3.5026 2.9534-7.1607 5.412-8.1291 5.4636-0.96844 0.0515-0.56079 0.60936 0.90588 1.2396 3.6821 1.5823 4.4269 1.5586 7.7543-0.24686zm21.156-7.3402c0.50076-4.5395 1.5994-9.5409 2.4414-11.114 0.84199-1.5733 1.2271-3.1643 0.85582-3.5355-0.96729-0.96728-11.436 21.328-10.628 22.635 0.36968 0.59816 1.9655 0.90324 3.5463 0.67798 2.4702-0.35203 3.0021-1.5696 3.7847-8.6633zm6.4229-20.57c0-0.73333-0.6-0.96252-1.3333-0.50929-0.73333 0.45322-1.3333 1.424-1.3333 2.1574s0.6 0.96252 1.3333 0.50929c0.73333-0.45322 1.3333-1.424 1.3333-2.1574zm154.82-26.448c2.1614-4.7332 4.9049-9.6832 6.0966-11 2.8229-3.1192 0.89145-3.032-8.2023 0.37038-6.8352 2.5574-7.6521 3.332-10.898 10.333-2.3666 5.104-3.5949 10.174-3.7719 15.569-0.14436 4.4-0.74684 9.2-1.3388 10.667-2.5704 6.3684 14.569-18.174 18.115-25.939zm-159.49 15.77c2.9535-5.6367 5.2598-8.4984 6.8511-8.5006 3.0041-4e-3 9.2016-11.967 10.245-19.775 0.40831-3.055 1.1765-7.0036 1.7072-8.7747 0.67746-2.2611-1.3163-0.73888-6.6945 5.1112-7.3168 7.9589-14.059 19.601-14.087 24.324-0.0072 1.218-1.1759 5.9509-2.5972 10.518-3.0426 9.7759-1.5819 8.8496 4.5753-2.9015zm132.81-0.16391c1.5724-3.1167 3.9614-7.836 5.309-10.487 3.0021-5.9068 5.0126-22.513 2.7256-22.513-1.9336 0-6.4033 7.1955-8.2824 13.333-0.78579 2.5667-1.6876 8.785-2.0039 13.818-0.31635 5.0335-0.90378 9.6835-1.3054 10.333-0.40162 0.64983-0.4088 1.1815-0.016 1.1815 0.39284 0 2.0007-2.55 3.5731-5.6667zm-110.34-6.1522c3.3693-3.1279 7.5476-9.4656 7.5476-11.448 0-0.40308-0.89827-0.73288-1.9962-0.73288-2.9955 0-11.608 8.3164-15.163 14.642l-3.1357 5.5792 4.4807-2.2627c2.4644-1.2445 6.1843-3.8442 8.2664-5.7771zm4.6504-14.293c6.2242-1.3581 6.8684-1.7454 6.1252-3.6821-0.92627-2.4138 2.8309-11.539 4.7509-11.539 1.0187 0 1.0389 0.76498 0.06804 2.579-2.2449 4.1947-1.6548 4.4126 3.7398 1.3806 2.8161-1.5827 6.1517-4.624 7.4125-6.7583 1.2608-2.1344 6.3068-7.1303 11.213-11.102 18.737-15.168 19.328-16.314 11.588-22.489-2.5666-2.0479-4.6666-3.0979-4.6666-2.3333 0 4.275-10.14-0.51399-11.924-5.6316-1.187-3.405-1.6918-3.737-3.4562-2.2727-1.5512 1.2874-2.4464 1.3345-3.592 0.18893-1.1456-1.1456-0.71609-2.4289 1.7232-5.1493l3.249-3.6235-3.3333 2.0795c-4.5534 2.8406-8.3044 9.8622-14.12 26.433-2.7216 7.7543-6.1827 15.114-7.7358 16.45l-2.8105 2.4169 6.6667-1.6676-3.3333 2.7206c-1.8333 1.4963-3.7043 2.7339-4.1576 2.7502-0.45336 0.0163-1.8388 3.7796-3.0787 8.363-1.2399 4.5833-3.1438 10.658-4.2309 13.498l-1.9765 5.165 4.158-3.4987c2.2869-1.9243 5.7617-3.8486 7.7219-4.2764zm120.3-2.6428c2.2652-2.7294 8.4848-5.9121 11.553-5.9121 2.1743 0 2.3732-1.0353 1.9205-10-0.37003-7.3277-0.0641-10 1.1445-10 1.1729 0 1.4072 1.5148 0.81108 5.243-1.8118 11.331 4.2297 15.952 8.8288 6.753 4.811-9.6224 1.508-22.028-9.1939-34.53l-4.8642-5.6828-2.8808 3.6128c-2.094 2.6261-3.6179 3.3789-5.5795 2.7563-1.8092-0.5742-3.4999 0.0287-5.1291 1.829-1.3367 1.477-3.6874 2.7046-5.2237 2.7279-1.5363 0.0233-3.958 0.92333-5.3815 2-1.4235 1.0767-3.7858 1.9576-5.2494 1.9576-6.4556 0 8.5539 10.696 22.393 15.958 3.2712 1.2437 6.0538 7.2108 4.2184 9.0461-0.48381 0.48383-1.2258-0.44412-1.649-2.0621-0.95015-3.6333-3.125-3.8774-3.125-0.35071 0 1.4251-1.1281 3.3812-2.507 4.347-1.6915 1.1848-2.6705 3.8117-3.0096 8.0756-0.53221 6.6918 0.10987 7.6213 2.9229 4.2317zm7.585-34.675c-5.3292-4.1519-8.5192-8.186-7.3561-9.3026 0.2006-0.19256 3.8427 2.8933 8.0936 6.8575 8.7899 8.1971 8.3818 9.5498-0.7375 2.445zm-54.167-13.713c0.0868-2.6715 0.6658-6.6573 1.2867-8.8573 0.8235-2.9176 0.95806-1.9255 0.49727 3.6667-0.58451 7.0937-0.42305 7.6667 2.1604 7.6667 2.6748 0 2.7525-0.43411 1.8495-10.333-1.0132-11.107-1.4892-12.572-3.1908-9.819-0.76591 1.2393-1.3678 1.3277-2.0062 0.29472-1.485-2.4028-4.2363-1.691-5.8912 1.5243l-1.5441 3 0.76355-3c0.54972-2.1599 0.17829-3-1.3263-3-1.1494 0-2.1081 0.75-2.1304 1.6667-0.0225 0.92496-0.64535 0.62828-1.3996-0.66666-1.8256-3.1344-5.2265-2.9687-5.2265 0.25464 0 1.4234-0.6 2.9588-1.3333 3.412-1.6473 1.0181-1.6668 0.38402-0.11374-3.7008 1.1768-3.0953-0.60125-5.7923-4.4084-6.6866-1.4986-0.35202-7.3802 19.731-6.2862 21.465 0.44458 0.70453 2.0083 1.5065 3.475 1.7822 1.5754 0.2961 2.8465 1.765 3.1061 3.5895 0.33119 2.3276 0.98802 2.8453 2.6667 2.1015 1.225-0.54273 3.9825-1.0386 6.1279-1.1019 4.0485-0.11947 4.2141-0.39227 10.419-17.158 2.1509-5.8118 2.233-3.7872 0.2856 7.0428-2.3214 12.91-2.319 13.396 0.0616 12.482 1.2245-0.46988 2.0612-2.6509 2.1577-5.6248zm-15.561-0.0768c0.41452-0.67069 0.19209-1.4207-0.49427-1.6667-0.68636-0.24598 0.15732-3.4472 1.8748-7.1139l3.1228-6.6667-0.40688 6c-0.46521 6.86-1.7431 10.667-3.5807 10.667-0.69815 0-0.93022-0.54876-0.51571-1.2195zm-5.8155-4.1139c-0.0403-1.8333 0.50833-4.2333 1.2192-5.3333 1.0668-1.6507 1.2797-1.5343 1.2192 0.66667-0.0403 1.4667-0.58895 3.8667-1.2192 5.3333-1.0495 2.4422-1.1521 2.3861-1.2192-0.66667zm-1.4475-9.9213c0-0.32339 0.6-0.9588 1.3333-1.412 0.73333-0.45323 1.3333-0.18864 1.3333 0.58797 0 0.77662-0.6 1.412-1.3333 1.412-0.73334 0-1.3333-0.26459-1.3333-0.58797zm53.585 15.122c-0.22808-2.6395-1.2379-7.4395-2.2441-10.667-1.713-5.4942-1.8463-5.613-2.0942-1.8676-0.26181 3.9562-0.27374 3.9488-1.0892-0.66667-0.63646-3.6024-1.5474-4.7689-3.9944-5.115-2.9905-0.42295-3.119-0.15875-2.2693 4.6667 0.49536 2.8133 1.7994 8.3022 2.8979 12.198 1.8369 6.5139 2.2868 7.0492 5.6027 6.6667 3.2656-0.37679 3.5663-0.86823 3.1907-5.2151zm-2.9186 1.3458c0-0.31039-0.55812-2.5104-1.2402-4.8889-0.68215-2.3785-0.75715-4.3245-0.16667-4.3245 1.2417 0 3.0933 8.0914 2.0828 9.1018-0.37175 0.37176-0.67592 0.42196-0.67592 0.1116zm-11.26 1.245c3.9307-1.4214 4.1815-1.8631 3.2166-5.6667-0.57556-2.2688-1.4357-6.4137-1.9115-9.2108-1.3131-7.7194-3.9256-5.2906-4.8653 4.5231l-0.81992 8.5625 0.044-10c0.0372-8.4653-0.29733-10-2.1801-10-1.2232 0-2.31 0.3-2.4151 0.66667-0.34216 1.1941 1.7674 19.082 2.4647 20.899 0.82601 2.1526 1.1117 2.1625 6.4667 0.22612zm24.593-3.266c0-0.44415-1.5-2.5902-3.3333-4.769-1.8333-2.1788-3.3143-4.6654-3.2911-5.5258 0.0232-0.8604 1.2733 0.0856 2.7779 2.1023 1.5046 2.0167 3.7656 3.6667 5.0244 3.6667 1.2588 0 3.0088 0.72 3.8888 1.6 3.2356 3.2357 1.6509-1.7123-2.464-7.6931-3.1453-4.5715-4.8936-5.9069-7.7333-5.9069-4.8657 0-6.9723 2.2229-5.5251 5.8302 0.62588 1.56 1.4805 4.4448 1.8991 6.4107 0.6984 3.2795 1.4728 3.7698 7.7567 4.9109 0.55 0.0999 1-0.18181 1-0.62594zm11.134-5.5358c0.34332-0.55552-1.1213-2.7555-3.2546-4.8889-4.3883-4.3883-4.9546-3.667-1.5914 2.0265 2.3043 3.9009 3.6961 4.723 4.846 2.8624zm-85.582-10.565c3.0914-5.6327 5.8304-9.6124 6.0866-8.8437s-1.4537 4.8952-3.7998 9.1701c-3.3221 6.0532-3.8497 7.9112-2.3854 8.3993 1.0341 0.34471 2.1802 0.39623 2.5469 0.11454 1.5222-1.1696 6.2512-17.968 5.1732-18.377-0.64526-0.24448-1.1732-1.2945-1.1732-2.3334 0-1.0389-0.96961-1.8889-2.1547-1.8889-2.3294 0-13.05 7.4375-16.98 11.78-2.3475 2.594-2.3327 2.7209 0.49341 4.2334 2.5679 1.3743 3.3654 1.031 6.7231-2.8939 5.1454-6.0146 4.9895-3.0274-0.16859 3.2303-3.7526 4.5526-4.2395 7.6499-1.2026 7.6499 0.6711 0 3.7495-4.6086 6.8409-10.241zm97.115 6.2734c0-0.75105-0.51627-1.3655-1.1473-1.3655s-3.3466-1.4925-6.0346-3.3166c-5.2287-3.5483-11.485-5.6681-11.485-3.8914 0 0.5946 1.7743 2.9096 3.9429 5.1446 2.9 2.9887 5.3686 4.1602 9.3333 4.429 3.0275 0.2053 5.3904-0.23306 5.3904-1zm-139.75-0.94302c-0.9625-0.38516-2.1125-0.3378-2.5556 0.1052-0.44306 0.44306 0.34444 0.75818 1.75 0.70029 1.5533-0.064 1.8692-0.37992 0.80556-0.80555zm11.108-5.8657c4.7841-2.2604 10.483-5.6113 12.664-7.4466 2.181-1.8352 4.7183-3.0757 5.6385-2.7566 0.92013 0.31904-2.0499 2.92-6.6001 5.7799-4.5502 2.8599-8.3002 5.6722-8.3333 6.2495-0.08296 1.4446 15.28-9.0256 22.589-15.395 3.2903-2.8673 5.9903-5.9617 6-6.8765 0.01-0.91482 4.1384-6.2522 9.175-11.861 10.168-11.323 16.749-19.681 16.806-21.344 0.0204-0.60121 1.888-3.7833 4.1502-7.0713 9.9399-14.447 19.172-37.373 24.631-61.169 0.50478-2.2 1.1926-3.2534 1.5286-2.3409 0.33597 0.91251-0.36239 5.9381-1.5519 11.168s-1.8932 9.7785-1.5637 10.108c0.77842 0.77842 1.5582-1.9675 4.2412-14.935 2.3279-11.251 2.9012-35.181 0.96766-40.391-0.68016-1.8329-0.91766 3.909-0.59286 14.333 0.29802 9.5652 0.0209 17.393-0.6158 17.394-0.63671 0.0016-0.95903-4.1828-0.71627-9.2988 0.52571-11.078-1.8596-28.001-4.2916-30.449-2.0208-2.0333-7.9077-0.95723-10.258 1.8751-1.2198 1.4698-1.0991 1.8692 0.56507 1.8692 4.1035 0 5.5462 5.4484 5.4724 20.667-0.1212 25.034-7.7433 48.461-25.507 78.398-8.7224 14.7-17.863 26.236-29.156 36.801-16.341 15.286-36.618 25.496-39.945 20.113-1.5624-2.528-3.5406 0.29328-2.6883 3.8339 0.89899 3.7343 4.064 6.8545 6.953 6.8545 0.95788 0 5.6559-1.8494 10.44-4.1098zm99.309-3.2229c0-0.36634-0.93232-6.2163-2.0718-13-1.5721-9.3589-2.7686-12.925-4.9605-14.786-3.6807-3.1238-4.1446-1.5776-2.3841 7.9459 0.77904 4.2142 1.4164 10.552 1.4164 14.084 0 6.2464 0.1092 6.4218 4 6.4218 2.2 0 4-0.29974 4-0.66608zm11.685-0.54511c0.19317-0.0672-0.55683-2.2954-1.6667-4.9516-2.476-5.9258-2.4966-5.5166 0.31544-6.2514 1.792-0.46832 1.6519-0.64565-0.60428-0.76444-2.1351-0.1124-3.6626-1.7938-5.5917-6.1547-2.7512-6.2196-6.4756-8.4802-4.9425-3 0.46159 1.65 1.5424 7.3707 2.4017 12.713l1.5624 9.7126 4.0872-0.59046c2.2479-0.32476 4.2452-0.64544 4.4384-0.71263zm-34.994-8.7585c1.0813-10.359 0.34048-24.03-1.3022-24.03-1.6389 0-6.767 15.426-9.3184 28.03-0.79866 3.9456-0.70447 4.0303 4.4832 4.0303h5.299zm12.641 4.9697c-4e-3 -7.0271-3.971-26.159-5.6452-27.222-2.8827-1.8298-3.6863-1.2448-3.6863 2.6839 0 2.0873-0.38984 9.2873-0.86632 16l-0.86634 12.205h5.533c5.1475 0 5.5329-0.25542 5.5312-3.6667zm27.245 0.66666c-0.96853-3.1035-2.9306-4.9592-5.2435-4.9592-0.73333 0-0.50647 0.52372 0.50416 1.1638 1.0106 0.64012 1.448 1.7941 0.97195 2.5643-0.47604 0.77024 0.19709 2.0191 1.4958 2.7752 3.257 1.8961 3.3297 1.8466 2.2715-1.5442zm-52.677-6c1.2752-5.5527 2.7394-10.913 6.2238-22.784 0.79806-2.7189 0.50793-3.0596-2.2712-2.6667-2.5254 0.35705-4.3247 2.8006-8.6767 11.784-3.0198 6.2333-5.9175 13.283-6.4393 15.667-0.94671 4.3243-0.93758 4.3333 4.3801 4.3333 5.2641 0 5.3464-0.0768 6.7833-6.3333zm-65.241 1.794c10.828-5.2234 22.878-14.554 33.824-26.19 12.566-13.358 15.61-17.732 26-37.363 9.5239-17.994 15.103-33.28 18.238-49.966 2.4134-12.848 2.1351-30.287-0.52583-32.947-3.6176-3.6176-19.679 5.5491-35.034 19.995-11.65 10.961-22.799 24.105-21.806 25.711 0.40098 0.64879 3.4996-0.2935 6.8859-2.094 7.6381-4.0612 13.286-4.1832 17.34-0.37453 3.7717 3.5434 3.962 9.0432 0.5711 16.509-2.9089 6.4042-10.377 13.084-23.36 20.895-5.2021 3.1297-10.808 7.1295-12.458 8.8884-3.4837 3.7139-3.9892 10.144-0.89095 11.333 6.8492 2.6283 14.198-1.7857 19.202-11.533 4.0274-7.8451 8.389-14.166 10.281-14.899 1.6516-0.64012-5.7003 11.644-12.954 21.644-2.288 3.1545-5.6568 6.3045-7.4861 7-13.974 5.3129-18.858-7.2786-6.8785-17.732 3.1493-2.748 6.2454-4.998 6.8801-5 2.6638-8e-3 19.476-12.371 22.864-16.812 4.1123-5.3915 5.968-15.329 3.433-18.383-3.3271-4.0089-7.9965-3.7192-18.059 1.1205-5.3659 2.5809-10.086 5.5531-10.49 6.6049-1.3251 3.4531 3.1025 3.4896 9.6245 0.0793 3.5233-1.8423 7.3734-2.9785 8.5556-2.5248 2.8939 1.1105 4.0447 5.2271 2.3476 8.3982-1.596 2.9821-9.62 9.362-15.37 12.221-7.321 3.64-19.096 16.357-20.1 21.708-1.3089 6.9771 0.15246 11.229 4.6606 13.56 9.6445 4.9874 16.883 1.0164 26.006-14.266 7.1003-11.895 9.6813-14.52 22.374-22.76 4.2167-2.7373 7.6667-5.5216 7.6667-6.1875 0-0.66586 0.35601-2.3097 0.79113-3.653s-0.5238-0.49238-2.1309 1.891c-4.4121 6.543-5.3465 5.1969-1.6198-2.3333 4.1879-8.4622 6.1917-8.6065 5.2644-0.37913-0.78689 6.9814-4.3506 10.964-16.447 18.379-5.0577 3.1006-7.9555 6.3861-12.887 14.611-3.4992 5.8363-7.6374 11.969-9.1961 13.628-6.3087 6.7153-18.026 7.2139-23.849 1.015-2.4816-2.6416-3.111-4.6661-2.9071-9.3515 0.40574-9.3225 6.8044-17.945 19.648-26.478 11.854-7.875 17.397-13.165 16.061-15.327-1.2373-2.002-4.9655-1.7838-8.1973 0.47988-1.5013 1.0516-5.3118 2.1016-8.4677 2.3333-5.6856 0.41756-5.7912 0.51891-11.55 11.088-5.9286 10.881-12.547 29.164-15.052 41.578-1.9442 9.6358-3.3423 31.39-2.2874 35.593 1.0844 4.3206 3.0287 4.3696 11.485 0.29002zm41.341-73.322c0-1.1514 10.832-6.4174 11.607-5.6427 0.37487 0.37487-1.6333 1.7351-4.4625 3.0227-2.8293 1.2876-5.5941 2.5728-6.1441 2.8559-0.55 0.28312-1 0.17695-1-0.23592zm10.951 68.871c0.5904-2.2784 3.168-8.0206 5.7279-12.76 2.56-4.7398 4.6545-8.9849 4.6545-9.4334 0-0.44856-1.35-0.81525-3-0.81485-2.0493 4.8e-4 -6.1118 3.403-12.819 10.737-5.4004 5.9047-9.6004 10.862-9.3333 11.016 7.0626 4.0771 11.409 6.1026 12.424 5.79 0.69964-0.21535 1.7551-2.2557 2.3455-4.5341zm-8.5512-12.543c17.236-18.617 32.486-43.021 40.928-65.496 4.5088-12.003 1.1226-7.6387-3.8802 5.0013-7.9019 19.965-22.62 42.685-39.915 61.616-3.5569 3.8934-6.0752 7.079-5.5963 7.079s4.2874-3.6903 8.4631-8.2006zm59.523-9.0084c0.41096-0.66495-0.45362-0.89496-1.9213-0.51116-3.1133 0.81414-3.5069 1.7201-0.7472 1.7201 1.0567 0 2.2575-0.54404 2.6685-1.209zm-6.8697-2.7929c0.3838-1.4677 0.19524-2.3579-0.41903-1.9782s-1.519 0.0396-2.0105-0.75572c-0.49152-0.79529-1.733-1.1239-2.7588-0.73027-1.0258 0.39366-1.8743-0.0155-1.8856-0.90909-0.0133-1.0276-0.49548-0.88973-1.3129 0.37517-1.1326 1.7526-1.295 1.7388-1.3129-0.11106-0.0107-1.1611-0.77041-2.1963-1.6871-2.3004-0.91666-0.10414-4.6667-0.76836-8.3333-1.4761-10.624-2.0505-12.247-1.78-15.333 2.5543l-2.8483 4 6.4241-0.15775c5.6985-0.13998 5.9723-0.27277 2.4241-1.1756l-4-1.0178 4.4096-0.15776c5.8575-0.20955 16.414 2.5099 15.498 3.9923-0.39947 0.64636 0.84704 0.577 2.77-0.1541 4.6217-1.7572 6.3633-1.6797 5.1827 0.23061-0.64824 1.0489-0.2372 1.281 1.2546 0.70851 1.2203-0.46827 2.2187-0.27023 2.2187 0.44008 0 2.2103 0.98911 1.4185 1.7202-1.377zm3.8632 0.42436c-0.9625-0.38516-2.1125-0.3378-2.5556 0.1052-0.44305 0.44307 0.34446 0.75819 1.75 0.7003 1.5533-0.064 1.8692-0.37992 0.80556-0.80555zm11.681-9.8045c4.4381-3.6934 8.0692-7.5434 8.0692-8.5556 0-2.768-3.0312-3.3111-5.6667-1.0152-2.3765 2.0702-3.0056 1.2445-2.4659-3.2367 0.1008-0.83752-0.87805-1.4375-2.1754-1.3333-1.7516 0.14065-2.277-0.66854-2.0412-3.1439l0.31759-3.3333-3.3176 3.741c-3.6714 4.14-3.9204 4.0181-2.0172-0.98755 0.99239-2.6102 2.2368-3.4201 5.2546-3.4201 4.0157 0 6.7185 2.02 3.9414 2.9456-2.1332 0.71108 2.4157 5.0599 5.2655 5.0339 1.899-0.0173 1.9407-0.20848 0.27547-1.2616-1.6612-1.0505-1.5821-1.3872 0.51456-2.1918 3.1516-1.2094 6.6633 0.95829 7.1845 4.4349 0.28072 1.8724-2.0471 4.9062-7.6667 9.9916-8.0746 7.3071-9.3458 9.0473-6.609 9.0473 2.6577 0 9.2538-5.5104 8.3488-6.9746-0.54701-0.88508-0.25896-1.0484 0.7497-0.42502 0.96726 0.5978 2.9685-0.23749 4.8869-2.0398 1.9678-1.8487 2.6997-3.3916 1.8561-3.913-2.2522-1.3919 0.0647-5.3096 3.1735-5.3664 2.3141-0.0423 2.0639-0.39749-1.3159-1.8683-2.2953-0.99888-4.5807-2.4754-5.0787-3.2812-1.3136-2.1255 1.3138-1.8003 3.1294 0.38735 2.7732 3.3415 7.7557 3.3499 10.653 0.0179l2.6668-3.0672-2.8729-0.91183c-1.7149-0.54429-3.0758-0.30308-3.3763 0.59844-0.61206 1.8362-4.2812 2.028-4.2812 0.22384 0-0.70753 1.2-1.9286 2.6667-2.7136 3.1469-1.6842 3.496-4.7298 0.66667-5.8155-2.2776-0.87396-2.7441-4.8511-0.56891-4.8511 0.78711 0 1.234-1.0237 0.993-2.2749-0.56461-2.9318-4.9309-4.0938-16.004-4.2589-4.9023-0.0731-10.602-0.77717-12.667-1.5646-2.0644-0.78744-6.3035-1.91-9.4201-2.4945-5.0262-0.9427-5.6667-0.78087-5.6667 1.4317 0 1.4538-0.94076 2.4945-2.2548 2.4945-1.9625 0-1.9192 0.2477 0.33333 1.9102 2.1185 1.5636 2.2756 2.227 0.86599 3.6555-1.4182 1.4373-1.9441 1.3943-2.9796-0.24357-0.97343-1.5397-1.262-1.193-1.2778 1.5352-0.0107 1.9382-0.92042 3.8694-2.0204 4.2915-3.1188 1.1968-2.3701 4.4093 1 4.2904 2.3963-0.0845 2.9913 0.60819 2.9566 3.4426l-0.0433 3.5485 3.0721-3.3148c2.4924-2.6893 3.8844-3.1593 7.3767-2.4905 3.5101 0.67216 3.8646 0.55 1.9204-0.66177-1.3113-0.81735-4.0113-1.1572-6-0.75513-2.0395 0.41229-5.0689-0.1104-6.9491-1.1991-3.0787-1.7826-2.6712-1.8664 5.3333-1.0968 4.7667 0.45825 10.767 1.5982 13.333 2.5332 4.4851 1.6339 4.524 1.7037 1 1.794-2.3598 0.0604-3.6667 0.82033-3.6667 2.132 0 2.6311-7.9624 18.444-8.8436 17.563-0.36796-0.36795 0.906-3.7771 2.831-7.5759 1.925-3.7988 3.2289-7.9085 2.8976-9.1326-0.48606-1.7959-0.78842-1.6464-1.5659 0.77435-1.2268 3.8196-5.2602 4.1348-4.2662 0.33333 1.4113-5.3968-1.2654-2.4271-5.4367 6.0318l-4.2894 8.6984 3.4234 1.3016c1.8828 0.71585 4.3141 1.3016 5.4028 1.3016s3.8709 0.97812 6.1827 2.1736l4.2033 2.1736 4.3773-5.1736c2.4075-2.8455 4.3863-4.5573 4.3972-3.8041 0.0107 0.75324-1.7802 3.3403-3.9802 5.749-3.5851 3.9252-5.0469 6.8815-3.4026 6.8815 0.3286 0 4.2286-3.0219 8.6667-6.7153zm-15.931-5.137c0-0.65208 1.2297-2.6021 2.7326-4.3333l2.7326-3.1477-2.1002 4.3333c-2.0666 4.2641-3.365 5.4786-3.365 3.1477zm20-14.814c-1.7778-1.1489-1.7778-1.2925 0-1.2925 1.1 0 2.9 0.58161 4 1.2925 1.7778 1.1489 1.7778 1.2925 0 1.2925-1.1 0-2.9-0.58161-4-1.2925zm9.7811-4.7563c-1.1113-2.896 1.7099-5.6194 3.7293-3.6 1.7067 1.7067 0.6494 5.6896-1.5104 5.6896-0.77936 0-1.7779-0.94033-2.2189-2.0896zm-35.114 25.423c-2.5667-0.98842-5.5367-1.8428-6.6-1.8986-3.0795-0.16158 0.16497 2.2614 3.9333 2.9374 6.3315 1.1358 7.3169 0.75196 2.6667-1.0388zm-9.3333-1.8304c0-1.4089-13.452-2.8898-15.333-1.688-0.73333 0.46841 2.2667 1.2008 6.6667 1.6275s8.15 0.87672 8.3333 1c0.18334 0.12334 0.33334-0.29952 0.33334-0.93954zm-9.5e-4 -4.503c5.2e-4 -0.55-0.56972-1-1.2672-1s-0.12067-2.55 1.2818-5.6667c2.5224-5.6054 2.5217-5.6713-0.0652-6.0927-1.4383-0.23433-2.6151-1.0494-2.6151-1.8112 0-0.81169 1.38-1.0388 3.3333-0.54853 1.9222 0.48244 3.3333 0.26141 3.3333-0.52212 0-0.74731-1.65-1.3342-3.6667-1.3043-3.0636 0.0455-4.4648 1.4162-8.5191 8.3333l-4.8524 8.2788 3.5191 0.76c4.7209 1.0196 9.517 0.80456 9.5181-0.42667zm49.334-2.3333c0-0.73333-0.63541-1.3333-1.412-1.3333-0.77661 0-1.0412 0.6-0.58797 1.3333s1.0886 1.3333 1.412 1.3333c0.32338 0 0.58797-0.6 0.58797-1.3333zm-46.667-2.7454c0-0.77661-0.6-1.0412-1.3333-0.58797-0.73333 0.45322-1.3333 1.0886-1.3333 1.412 0 0.32339 0.6 0.58798 1.3333 0.58798s1.3333-0.63542 1.3333-1.412zm39.333-2.588c-0.45323-0.73334-1.0886-1.3333-1.412-1.3333s-0.58797 0.6-0.58797 1.3333c0 0.73333 0.63541 1.3333 1.412 1.3333 0.77662 0 1.0412-0.6 0.58798-1.3333zm-36.667-2.0787c0-0.32338-0.6-0.58797-1.3333-0.58797-0.73334 0-1.3333 0.63541-1.3333 1.412 0 0.77661 0.6 1.0412 1.3333 0.58797 0.73333-0.45323 1.3333-1.0886 1.3333-1.412zm109-13.207c7.5021-6.745 15.199-20.226 18.262-31.986 1.2358-4.7443 3.3415-8.9323 5.4944-10.928 2.1685-2.0097 3.1829-4.0376 2.6779-5.3536-0.4471-1.1651-0.12906-2.9424 0.70668-3.9494 0.98244-1.1838 1.0291-1.831 0.13206-1.831-0.76315 0-2.4866-0.38831-3.8299-0.86291-1.9983-0.70601-2.1394-0.53631-0.77572 0.93333 2.3471 2.5296 2.0824 3.3581-1.0728 3.3581-2.1879 0-2.5855-0.61369-1.9746-3.0476 0.60936-2.4279 0.21233-3.0476-1.9526-3.0476-2.2696 0-2.5856 0.60438-1.9176 3.6667 0.61594 2.8234 0.47317 3.2067-0.62084 1.6667-1.0003-1.4081-1.4761-1.5068-1.6079-0.33333-0.32442 2.8903-0.57884 3.5711-2.8649 7.6667-1.228 2.2-6.4523 8.5-11.61 14-5.1572 5.5-9.3865 10.6-9.3984 11.333-0.012 0.73333-0.53293 2.1401-1.1578 3.1261-0.88744 1.4002-2.436 0.80057-7.0729-2.7388-8.3668-6.3866-14.294-8.7295-15.853-6.2667-0.65437 1.0337-1.199 2.8355-1.2102 4.004-0.0179 1.8552-3.3246 12.226-5.9811 18.758-0.73609 1.81 0.39897 2.4953 6.1964 3.7411 25.549 5.4904 27.305 5.3957 35.43-1.9098zm-55.334 2.9527c-1.6574-2.0794-3.5297-13.656-3.0728-19 0.37171-4.347 2.5529-9.2995 3.624-8.2284 0.36667 0.36667-0.0196 1.949-0.85841 3.5163-0.8388 1.5673-1.2782 4.1687-0.97635 5.7809 0.46526 2.4853 0.70463 2.2799 1.5733-1.35 0.56351-2.3547 1.6399-4.1547 2.3919-4 2.5062 0.51549 7.8827-15.306 8.5071-25.035 0.93977-14.642-4.4772-30.171-6.8136-19.533-0.47828 2.1776-1.6406 4.2551-2.5829 4.6167-1.3323 0.51125-1.421 2.2702-0.3989 7.9093 1.3055 7.2026 0.21864 18.801-1.5011 16.018-0.59466-0.96216-2.0237-0.52785-4.2277 1.2849l-3.3294 2.7383 3.6667-0.67442c4.2149-0.77526 4.4041-0.0569 1.6936 6.4304-1.5918 3.8098-2.4935 4.557-4.6667 3.8673-1.5542-0.49327-2.6936-0.25289-2.6936 0.56827 0 0.78275-1.5 1.4232-3.3333 1.4232-1.8333 0-3.1833 0.45-3 1 0.18333 0.55-0.26667 1-1 1-0.73334 0-1.2023-0.39309-1.0422-0.87353 0.62556-1.8767-3.7676-2.3051-4.4843-0.43733-0.41737 1.0876-1.2758 1.9775-1.9077 1.9775s-0.80348-0.9-0.38137-2c0.57968-1.5106-0.23596-2-3.3333-2-3.0974 0-3.913 0.48939-3.3333 2 0.47142 1.2285-1e-3 2-1.227 2-1.097 0-1.9112-1.027-1.8093-2.2822 0.10186-1.2552-0.86271-2.4988-2.1435-2.7635-1.6593-0.34294-2.0974 0.12144-1.524 1.6156 0.53996 1.4071 0.0487 2.0969-1.4935 2.0969-1.6031 0-2.0974-0.76781-1.6343-2.5386 0.52713-2.0158-0.19597-2.6697-3.5112-3.1753-2.2962-0.3502-4.2505-0.55784-4.3427-0.46143-0.0923 0.0964-0.5604 1.4551-1.0404 3.0193-0.91418 2.9794-1.2969 2.815 12.5 5.3708 1.8106 0.3354 4.1757 1.3243 5.2559 2.1975 1.5385 1.2437 1.7471 1.2266 0.96272-0.079-0.72616-1.2087 0.30264-1.6667 3.7441-1.6667 2.6099 0 4.7454 0.66995 4.7454 1.4888 0 0.86906 1.3875 1.2235 3.3333 0.85156 1.8333-0.35046 3.3333-0.10897 3.3333 0.53664 0 1.4532 6.8435-0.0562 8.6667-1.9114 0.89415-0.90988 0.81469-1.0656-0.2412-0.47278-0.866 0.48621-1.9514 0.27424-2.412-0.47106-0.46061-0.74529 0.3029-1.3551 1.6967-1.3551 2.0833 0 2.5496 1.0191 2.6208 5.7282 0.12893 8.5286 2.7192 16.938 5.2171 16.938 1.5091 0 1.7327-0.47571 0.78347-1.6667zm-48.331-25c0-0.73333 0.9-1.3333 2-1.3333s2 0.6 2 1.3333c0 0.73334-0.9 1.3333-2 1.3333s-2-0.6-2-1.3333zm50.211-3.2654c-0.49456-1.2888-0.10066-1.6862 1.183-1.1936 1.0584 0.40616 1.5925 1.2756 1.1867 1.9321-1.0219 1.6535-1.5103 1.5013-2.3698-0.73848zm2.7644-4.8415c0.47148-1.8029 1.0759-2.4073 1.4087-1.4087 0.32064 0.96192-0.0509 2.3829-0.82574 3.1577-0.98943 0.98942-1.163 0.46885-0.58299-1.749zm-1.5142-7.2264c1.1075-6.6143 1.8791-7.6789 1.8522-2.5556-0.0107 2.1389-0.63349 4.7889-1.3828 5.8889-0.97617 1.433-1.1092 0.48808-0.46937-3.3333zm4.9978-8.3583c0.0159-6.2309 0.4845-9.2319 1.3122-8.4042 0.8277 0.82772 0.81886 4.2885-0.0248 9.6917l-1.3122 8.4042 0.0248-9.6917zm-3.6813-0.12939c-0.57436-0.92934-0.68421-2.0498-0.24412-2.4899 1.1933-1.1933 2.4944 0.56174 1.8498 2.4953-0.45162 1.3549-0.76569 1.3538-1.6057-0.0053zm-0.61389-5.5123c-0.10987-1.1-0.53288-3.5-0.93999-5.3333-0.6398-2.8812-0.535-3.0116 0.77259-0.96166 0.83202 1.3044 1.255 3.7044 0.93997 5.3333-0.31504 1.6289-0.66269 2.0617-0.77257 0.96166zm5.9576 49.676c-0.92467-0.92465-3.4543 0.95407-3.4543 2.5655 0 0.88413 0.76504 0.78297 2.0322-0.2687 1.1177-0.92762 1.7576-1.9612 1.422-2.2968zm-5.0625 0.12547c-0.26088-1.4636 0.62638-2.2813 2.6555-2.4473 3.2173-0.26319 7.4853-3.3546 4.6314-3.3546-0.83672 0-1.9317 0.66406-2.4333 1.4757-0.63589 1.0289-1.2493 0.92993-2.026-0.32684-0.88676-1.4348-1.5241-1.2598-3.1243 0.85765-2.3495 3.1091-2.688 5.9935-0.70326 5.9935 0.76548 0 1.2155-0.98912 1-2.198zm5.3926-7.578c2.1174 0.55373 2.8822 0.15366 2.8822-1.5077 0-1.8191-0.78248-2.0896-4-1.3829-4.3684 0.95946-4.7138 0.49168-2.5802-3.4949 0.78089-1.4591 1.1776-3.3697 0.8816-4.2457-0.71855-2.1264-4.9681 6.1888-4.9681 9.7213 0 2.2851 0.43617 2.5464 2.4511 1.468 1.3481-0.72148 3.7481-0.97261 5.3333-0.55807zm4.7373-8.1209c-0.40036-1.0433-1.5319-2.2054-2.5145-2.5825-2.2173-0.85085-3.7972 2.7271-1.599 3.6213 3.111 1.2656 4.8311 0.83121 4.1135-1.0388zm37.248-14.066c5.6266-6.213 10.23-11.961 10.23-12.774 0-0.81275 1.4794-4.4 3.2876-7.9716s3.1416-6.6399 2.9632-6.8184-8.1079-3.1115-17.621-6.5179c-9.5131-3.4064-19.526-7.0059-22.25-7.9988l-4.9537-1.8054-0.81378 4.9245c-1.785 10.802-5.9768 16.047-7.6651 9.5912-0.38355-1.4667-1.394-2.6667-2.2454-2.6667-1.0394 0-1.1899 0.98572-0.45816 3 1.3791 3.7963 1.2747 21.409-0.16603 28-0.91392 4.1807-0.7367 5 1.0814 5 2.4068 0 2.9232-2.0465 0.84112-3.3333-0.73333-0.45323-1.3333-1.3297-1.3333-1.9477s6.15 2.0591 13.667 5.9492c7.5167 3.8901 14.013 6.9812 14.436 6.869 0.42336-0.11212 5.3734-5.2872 11-11.5zm-35.123 6.2963c0.0112-0.55-1.1796-1-2.6462-1-2.9082 0-3.6938 3.4217-1 4.3556 1.6051 0.5565 3.6039-1.283 3.6462-3.3556zm-29.031-0.0159c-0.21139-1.2389 0.58285-4.1229 1.765-6.4089 1.1821-2.286 1.9551-4.3271 1.7177-4.5358-0.5224-0.4593-15.197-4.706-16.262-4.706-0.41412 0-0.40759 0.9 0.0145 2 0.42212 1.1 0.19959 2-0.49449 2-1.6749 0-4.5993-6.5287-3.6282-8.0999 0.41925-0.67838-0.13227-1.2334-1.2256-1.2334-1.0933 0-3.2873 1.8249-4.8755 4.0553-2.2347 3.1384-3.2911 3.7204-4.6722 2.5741-2.1006-1.7434-7.2769 0.44158-7.3066 3.0842-0.0107 0.89087-0.34588 2.8393-0.74636 4.3298-0.64855 2.4138 0.34805 2.9605 9.1146 5 5.4135 1.2594 12.314 2.2899 15.334 2.2899 3.0204 0 5.8829 0.63322 6.3612 1.4072 1.3543 2.1913 5.3337 0.76583 4.9034-1.7564zm8.4561-1.1003c0.49272-0.79723 0.20315-2.1422-0.64349-2.9889-1.1636-1.1636-1.8463-1.0538-2.7968 0.44951-0.69156 1.0939-1.2666 2.4389-1.2778 2.9889-0.0315 1.5401 3.7086 1.1838 4.718-0.44951zm3.6125-20.6c-0.47493-9.9551-1.3928-12.617-4.351-12.617-3.4177 0-4.7468 5.2727-2.7633 10.962 1.0792 3.0958 1.0987 4.4813 0.068 4.8249-2.0675 0.68917 2.9382 4.2423 5.362 3.8061 1.513-0.27229 1.9232-1.9709 1.6843-6.9767zm-11.397 3.8554c0.48811-1.4643-8.104-4.4722-12.775-4.4722-1.5649 0-2.8453 0.6-2.8453 1.3333 0 0.73333 0.9 1.3333 2 1.3333s2 0.6 2 1.3333c0 0.73333 0.63541 1.3333 1.412 1.3333 0.77662 0 1.0758-0.54405 0.66483-1.209-0.41096-0.66494 0.46297-0.89252 1.9421-0.50573 1.4791 0.3868 3.0349 1.2625 3.4574 1.946 0.92235 1.4924 3.5098 0.81024 4.1441-1.0925zm103.03-7.6039c-0.0112-0.84423-0.60204-2.435-1.3129-3.535-1.1036-1.7076-1.2955-1.6576-1.3129 0.34215-0.0107 1.2882-1.5204 3.6464-3.3538 5.2404-4.8278 4.1977-4.0887 5.4398 1.3333 2.2407 2.5667-1.5144 4.6575-3.4441 4.6462-4.2884zm-131.63 2.0385c1.2937-1.1115 2.0366-3.0151 1.651-4.2302-0.45462-1.4323 0.46052-2.831 2.6023-3.9772 1.8169-0.97239 2.949-2.3416 2.5157-3.0427-0.45398-0.73456-1.3229-0.50815-2.0505 0.53428-0.83729 1.1996-1.0699-0.56783-0.69044-5.246 0.484-5.9669 0.17272-7.2688-2.0182-8.4414-3.1979-1.7115-4.4467-0.78704-1.8491 1.3688 1.6266 1.35 1.4332 2.101-1.3011 5.0514-2.5492 2.7506-3.2118 4.9159-3.2118 10.495 0 3.8663-0.40196 8.0771-0.89325 9.3574-0.97891 2.551 0.86536 1.8937 5.2454-1.8695zm6.057-0.9421c-0.41052-0.41052-1.1561 0.32948-1.6568 1.6444-0.72357 1.9003-0.57043 2.0534 0.7464 0.74639 0.91123-0.90445 1.3209-1.9803 0.91037-2.3908zm23.72 2.3686c-0.53989-0.55-3.4899-1.7206-6.5555-2.6013l-5.5739-1.6013 6.6667 0.67915c6.2053 0.63215 6.4876 0.53535 4.0785-1.3987-1.4235-1.1428-4.2735-2.0779-6.3333-2.0779-3.3322 0-3.7474-0.47778-3.7656-4.3333-0.0107-2.3833-0.63924-5.2333-1.3956-6.3333-1.0004-1.455-1.2674 0.08965-0.97957 5.6685 0.27903 5.4094-0.0893 7.6679-1.2507 7.6667-1.2142-0.0013-1.4289-2.081-0.81813-7.9246 0.79568-7.6127 0.7166-7.8936-2.0204-7.1778-2.2923 0.59944-2.8485 1.7561-2.8485 5.9227 0 2.8478 0.61142 5.1778 1.3587 5.1778 0.78353 0 1.0046 1.4111 0.52212 3.3333-0.79328 3.1607-0.53564 3.3402 4.9746 3.4662 3.1962 0.07309 7.3112 0.61329 9.1446 1.2004 4.4762 1.4335 5.9786 1.5379 4.7961 0.33333zm-19.153-13.667c0-2.5667 0.2744-3.6167 0.60978-2.3333 0.33536 1.2833 0.33536 3.3833 0 4.6667-0.33538 1.2833-0.60978 0.23333-0.60978-2.3333zm11.024 2.6667c-0.45322-0.73333-1.0886-1.3333-1.412-1.3333-0.32339 0-0.58798 0.6-0.58798 1.3333 0 0.73333 0.63542 1.3333 1.412 1.3333s1.0412-0.6 0.58797-1.3333zm7.3564-3.1555c0.0133-1.5645 1.5127-4.2575 3.3333-5.9844 4.0196-3.8127 4.401-10.669 0.97489-17.526-2.5486-5.101-11.786-10.63-17.801-10.654-3.517-0.01396-12.006 4.8758-12.708 7.3196-0.21048 0.73333 1.6312 3.6882 4.0927 6.5664 4.1955 4.9057 4.6158 5.0926 6.7207 2.9877 1.2349-1.2349 2.7581-1.9284 3.3848-1.5411 0.62671 0.38733 1.3283-1.1966 1.5592-3.5199 0.74792-7.5277 9.0698-8.7786 10.157-1.5266 0.40898 2.7285-2.9013 5.0408-5.1908 3.6258-2.0946-1.2945-1.3951-4.9475 0.78699-4.1101 1.1 0.42211 2 0.2505 2-0.38136 0-1.7419-3.3506-2.6596-5.3034-1.4526-1.1588 0.71618-1.4171 2.3231-0.78396 4.8766 2.0029 8.0778 2.332 12.575 1.0362 14.16-0.92397 1.1304-0.73463 3.1731 0.60269 6.5015 1.5099 3.758 2.5327 4.7008 4.5326 4.1778 1.5252-0.39886 2.592-1.84 2.6057-3.5199zm87.31-2.1778c3.8016-1.9382 4.4654-2.6667 2.4296-2.6667-1.5405 0-4.2174 1.18-5.9486 2.6223-4.04 3.3656-3.0208 3.3785 3.519 0.04436zm-74.293-2.6924c1.3637-2.1836 1.3091-2.6409-0.3151-2.6409-1.699 0-4.7249 3.7595-4.7249 5.8705 0 1.5085 3.4693-0.71459 5.04-3.2296zm15.682 1.4478c-0.48339-0.78212-1.5169-1.422-2.2968-1.422-0.88414 0-0.78298 0.76504 0.26869 2.0322 1.8287 2.2035 3.4631 1.7117 2.0281-0.61018zm-0.1312-4.6464c-1.4223-1.04-2.8696-1.6074-3.2162-1.2608-0.73381 0.73381 2.7045 3.1014 4.5475 3.1314 0.69016 0.0112 0.0911-0.83053-1.3312-1.8706zm-39.524-1.0423c1.9948-1.9948 2.0781-5.9471 0.1505-7.1385-0.79724-0.49271-2.1472-0.18527-3 0.68322-1.183 1.2048-1.0765 1.4775 0.4495 1.1505 1.1-0.23572 2 0.46321 2 1.5532 0 4.6561-5.0958 2.7743-12.117-4.4747-6.5295-6.7414-7.2971-7.1807-8.5279-4.8808-1.1209 2.0944-0.61056 3.0501 2.9796 5.5794 2.3827 1.6786 5.826 4.4191 7.6518 6.0899 3.6425 3.3333 7.9267 3.9248 10.414 1.4379zm25.6-2.4c0-1.4815-0.88889-2.6667-2-2.6667-1.1111 0-2 1.1852-2 2.6667 0 1.4815 0.8889 2.6667 2 2.6667 1.1111 0 2-1.1852 2-2.6667zm17.333-1.1907c0-1.6948-3.4816-2.8093-8.7757-2.8093-5.4421 0-6.102 2.2556-0.89095 3.045 6.803 1.0306 9.6667 0.96074 9.6667-0.23568zm-17.333-6.1427c0-2.0741-0.75556-3.3333-2-3.3333-1.9999 0-2.7884 4.1005-1.1111 5.7778 1.8128 1.8128 3.1111 0.79271 3.1111-2.4444zm17.333-1.4518c0-2.289-5.8402-2.4958-11.801-0.41781-6.428 2.2408-5.0349 3.2498 3.7986 2.7511 5.7871-0.3267 8.0024-0.97264 8.0024-2.3333zm-71.194-6.8538c-0.44307-0.44306-0.75819 0.34444-0.7003 1.75 0.064 1.5533 0.37992 1.8692 0.80555 0.80556 0.38516-0.9625 0.3378-2.1125-0.1052-2.5556zm50.278-0.47729c-1.7704-1.7704-3.7324 0.65472-2.3454 2.899 0.6451 1.0438 1.3016 1.0438 2.3454 0 1.0438-1.0438 1.0438-1.8552 0-2.899zm16.416 2.7828c2.2457 0 3.1667-0.75268 3.1667-2.588 0-3.8564-1.5432-4.1543-7.5612-1.46-7.2832 3.2608-9.1073 6.115-3.1462 4.9228 2.4057-0.48114 5.799-0.8748 7.5407-0.8748zm-20.224-6.7588c-1.2538-2.0287-3.2571-1.409-2.4282 0.75114 0.4205 1.0958 1.3115 1.6543 1.9799 1.2412s0.87017-1.3097 0.44825-1.9923zm11.39 0.99907c0-0.65574 0.82295-0.87645 1.8288-0.49048 2.7089 1.0395 7.916-6.4152 5.7415-8.2198-1.8587-1.5426-9.2355 3.4408-11.581 7.8238-1.0978 2.0513-0.86547 2.4461 1.3416 2.2798 1.4681-0.11059 2.6693-0.73759 2.6693-1.3933zm-16-3.6155c0-1.5962-3.7608-3.3084-4.8577-2.2116-1.1676 1.1676 0.81287 3.5868 2.9364 3.5868 1.0567 0 1.9213-0.61883 1.9213-1.3752zm18.249-11.213c-1.1117-3.3396-4.5174-1.6981-8.0158 3.8635-5.3037 8.4315-3.1748 10.561 3.3164 3.3166 2.8431-3.1728 4.9579-6.4039 4.6995-7.1801zm-24.484 8.0535c0.45568-1.1875-0.0735-1.7525-1.4517-1.5502-1.1928 0.17507-2.4013 1.0159-2.6855 1.8685-0.74294 2.2288 3.2785 1.9194 4.1372-0.3183zm-44.852-0.91432c3.9994-1.5444 4.0382-1.5262-27.325-12.771-3.16-1.133-6.8474-3.2427-8.1941-4.6883-1.601-1.7185-3.7613-2.4776-6.2408-2.1929-3.2431 0.37229-1.9777 1.3042 8.7381 6.4353 6.8917 3.3 16.186 7.9061 20.653 10.236 4.4675 2.3297 8.2337 4.2797 8.3692 4.3333 0.1356 0.05368 1.9356-0.55465 4-1.3519zm33.753-0.62923c0-0.32339-0.6-0.58798-1.3333-0.58798-0.73334 0-1.3333 0.63541-1.3333 1.412s0.6 1.0412 1.3333 0.58798c0.73333-0.45322 1.3333-1.0886 1.3333-1.412zm5.3333 0.82405c0-0.69006-0.6-1.6255-1.3333-2.0787-0.73333-0.45322-1.3333 0.11136-1.3333 1.2546 0 1.1433 0.6 2.0787 1.3333 2.0787s1.3333-0.56459 1.3333-1.2546zm17.396-2.2434c0.73148-1.9239 2.8294-4.6775 4.662-6.1191l3.3321-2.621-3.4319-2.6996c-1.8876-1.4848-3.6134-2.4812-3.8353-2.2142-0.83881 1.0094-4.7896 13.704-4.7896 15.39 0 3.0552 2.6758 1.912 4.0626-1.7356zm-3.7596-8.6125c1.4476-0.99258-1.1196-7.8894-2.9367-7.8894-0.81139 0-1.311 3.6554-1.2302 9 0.12906 8.5373 0.2106 8.7601 1.5847 4.3333 0.79672-2.5667 1.9587-5.0164 2.5822-5.444zm-20.113 1.4156c-1.0342-2.9665-0.98031-3.9737 0.21277-3.9799 0.87852-0.0045-0.12133-0.90452-2.2218-2-7.5191-3.9215-8.0116-2.1714-1.9266 6.845 4.3979 6.5165 6.3585 6.0855 3.9356-0.86508zm13.029-2.6383c0.0693-4.4102-1.7588-9.3264-2.9604-7.9614-0.30405 0.34543-0.25061 4.5281 0.1188 9.2947 0.70088 9.0446 2.6933 8.1097 2.8416-1.3333zm-6.4674 7c0.89012-10.461 0.44721-13.567-2.0269-14.213-3.5981-0.93939-3.9276-0.2428-2.2124 4.6775 0.81812 2.3469 1.4875 5.6775 1.4875 7.4014 0 2.7555 2.5318 4.7193 2.7518 2.1344zm-36.106-2.8093c-0.0727-3.0489-4.121-4.6316-19.31-7.5491-9.4222-1.8098-17.373-3.0493-17.667-2.7545-0.29487 0.29487 0.55909 0.85469 1.8977 1.2441 14.439 4.1999 25.69 7.9401 28.367 9.4298 3.0828 1.7157 6.7583 1.513 6.7134-0.37028zm100.69 34.549c-2.9333-1.3881-4.7333-2.5278-4-2.5328 1.8185-0.0124 12.34 4.9124 10.667 4.9927-0.73334 0.03516-3.7333-1.0718-6.6667-2.4599zm-12-4.073c-1.6808-0.72229-1.9273-1.1459-0.66667-1.1459 1.1 0 3.2 0.51566 4.6667 1.1459 1.6808 0.72229 1.9273 1.1459 0.66667 1.1459-1.1 0-3.2-0.51566-4.6667-1.1459z" stroke-width="1.3333"
style="fill:#ffffff; stroke:none"/>
</svg>
