<?xml version="1.0" encoding="iso-8859-1"?>
<!-- Generator: Adobe Illustrator 19.0.0, SVG Export Plug-In . SVG Version: 6.00 Build 0)  -->
<svg viewBox="-55 -50 512 512.04033" width="40px" height="40px" style='fill: white;' xmlns="http://www.w3.org/2000/svg" >
<g>
	<g>
		<path d="M279.632,331.013V487.6c0,13.476,10.923,24.4,24.4,24.4s24.4-10.924,24.4-24.4V359.974
			C309.412,355.221,292.549,344.971,279.632,331.013z"/>
	</g>
</g>
<g>
	<g>
		<path d="M363.372,136.481c-4.182-21.952-23.437-38.045-45.783-38.307c-39.957-0.47-47.914-0.507-91.123,0
			c-17.957,0.211-34.496,10.879-42.135,27.131l-26.454,56.279l-40.179-9.891V84.199h6.738c3.154,0,5.446-3.006,4.615-6.047
			l-16.82-61.537c-1.278-4.677-7.95-4.684-9.231,0l-16.82,61.537c-0.832,3.044,1.463,6.047,4.615,6.047h6.738v82.83
			c-9.76-0.78-18.926,5.573-21.342,15.388c-2.684,10.904,3.98,21.919,14.884,24.604l6.458,1.59v293.309
			c0,5.568,4.513,10.081,10.081,10.081s10.081-4.513,10.081-10.081V213.573l46.635,11.48c9.421,2.318,19.147-2.339,23.262-11.094
			l32.702-70.515c0,189.055,0,99.771,0,344.156c0,13.476,10.924,24.4,24.4,24.4c13.476,0,24.4-10.924,24.4-24.4V317.465
			c-10.363-15.997-15.898-34.6-15.898-53.837c0-54.762,44.559-99.302,99.302-99.302c5.6,0,11.091,0.474,16.44,1.368L363.372,136.481
			z"/>
	</g>
</g>
<g>
	<g>
		<circle cx="274.365" cy="42.141" r="42.141"/>
	</g>
</g>
<g>
	<g>
		<path d="M378.403,270.181L378.403,270.181c-2.308,9.15-9.335,16.417-18.342,19.071v58.201
			c40.788-3.633,73.185-36.347,76.339-77.272H378.403z"/>
	</g>
</g>
<g>
	<g>
		<path d="M326.596,270.181h-57.998c3.154,40.924,35.552,73.638,76.34,77.272v-58.201
			C335.932,286.597,328.904,279.331,326.596,270.181z"/>
	</g>
</g>
<g>
	<g>
		<path d="M360.062,179.803v58.201h-0.001c8.333,2.456,14.968,8.863,17.742,17.055h58.445
			C432.205,215.077,400.179,183.377,360.062,179.803z"/>
	</g>
</g>
<g>
	<g>
		<path d="M268.751,255.059h58.445c2.773-8.192,9.409-14.599,17.742-17.055v-58.201
			C304.821,183.377,272.794,215.077,268.751,255.059z"/>
	</g>
</g>
<g>
</g>
<g>
</g>
<g>
</g>
<g>
</g>
<g>
</g>
<g>
</g>
<g>
</g>
<g>
</g>
<g>
</g>
<g>
</g>
<g>
</g>
<g>
</g>
<g>
</g>
<g>
</g>
<g>
</g>
</svg>
