<?xml version="1.0" encoding="iso-8859-1"?>
<!-- Generator: Adobe Illustrator 19.0.0, SVG Export Plug-In . SVG Version: 6.00 Build 0)  -->
<svg version="1.1" id="Capa_1" xmlns="http://www.w3.org/2000/svg" xmlns:xlink="http://www.w3.org/1999/xlink" x="0px" y="0px"
	 viewBox="0 0 512.002 512.002" style="enable-background:new 0 0 512.002 512.002;" xml:space="preserve">
<g>
	<g>
		<path d="M509.901,367.545L400.903,226.88c-1.617-2.088-3.744-3.416-6.357-3.756c-0.882-0.17-8.995-1.935-14.553-9.951
			c-5.599-8.074-6.998-19.969-4.16-35.353c0.681-3.691-0.763-7.454-3.739-9.742c-2.977-2.289-6.982-2.716-10.376-1.11
			c-18.477,8.752-30.768,22.74-35.542,40.45c-0.594,2.202-1.054,4.449-1.399,6.73c-21.201,2.27-40.753,12.603-54.632,29.13
			l-6.808,8.107c-8.307,9.892-17.656,18.568-27.793,25.963l-58.632-60.818c-10.476-10.867-15.271-26.247-12.829-41.141l1.374-8.38
			l28.469-18.004l5.413,3.667c13.955,9.453,32.625,8.378,45.405-2.61l7.21-6.199l9.536,4.819c2.585,1.306,5.607,1.429,8.29,0.333
			c2.681-1.094,4.756-3.297,5.688-6.039l9.589-28.198l15.495-32.231c0.321-0.625,0.583-1.285,0.768-1.975
			c9.134-34.086-11.168-69.249-45.254-78.383c-33.702-9.035-68.442,10.725-78.048,44.12l-9.918,19.588
			c-6.521,12.88-18.909,22.031-33.136,24.481c-0.381,0.065-0.757,0.153-1.126,0.262L7.183,127.907
			c-4.256,1.252-7.178,5.158-7.178,9.593v128.505c0,3.653,1.992,7.016,5.196,8.771c1.5,0.821,3.153,1.229,4.804,1.229
			c1.875,0,3.748-0.527,5.386-1.574l55.174-35.266c5.087,9.794,13.512,17.722,24.159,22.129l93.354,39.505
			c-20.656,6.1-42.684,7.94-64.864,5.01L11.315,291.022c-2.851-0.375-5.734,0.496-7.901,2.394c-2.166,1.899-3.408,4.64-3.408,7.52
			v201.065c0,5.523,4.478,10,10,10h245.996c5.522,0,10-4.477,10-10c0-5.523-4.478-10-10-10h-68.659h-5.381
			c-9.812,0-18.756-4.979-23.925-13.319l-19.405-31.312c-2.908-4.694-9.071-6.141-13.768-3.232
			c-4.694,2.909-6.142,9.073-3.232,13.768l19.405,31.313c0.592,0.955,1.218,1.88,1.866,2.783H20.006V312.345l100.589,13.292
			c29.299,3.873,59.347,0.263,86.896-10.438c5.596-2.173,11.063-4.646,16.394-7.375l85.829,47.214l-74.98,67.283
			c-5.297-4.82-9.7-8.746-13.11-11.684c-2.829-2.438-5.003-4.226-6.645-5.464c-8.078-6.094-13.312-2.976-15.713-0.576
			c-3.905,3.905-3.906,10.236-0.002,14.142c1.039,1.04,2.25,1.803,3.542,2.289c4.978,3.652,25.354,21.857,68.418,62.831
			c4.943,4.703,7.778,11.316,7.778,18.143c0,5.523,4.478,10,10,10s10-4.477,10-10c0-12.277-5.1-24.171-13.992-32.632
			c-9.658-9.19-22.911-21.735-35.498-33.438l75.61-67.848c10.242,11.785,25.252,18.92,41.658,18.92h21.396l54.592,33.521
			c1.574,0.966,3.385,1.478,5.232,1.478h32.667c3.629,0,6.974-1.966,8.738-5.137l21.333-38.332
			C512.682,375.034,512.354,370.71,509.901,367.545z M269.416,101.154c-3.107-0.8-7.291-2.498-10.917-6.128
			c-1.954-1.958-3.592-4.304-4.915-7.027c-0.032-0.073-0.068-0.144-0.102-0.216c-1.449-3.044-2.5-6.56-3.164-10.524l27.095,7.26
			L269.416,101.154z M250.89,21.508c20.113,5.39,33.244,23.96,32.592,43.932l-82.786-22.183
			C210.117,25.635,230.774,16.12,250.89,21.508z M192.596,61.793l37.036,9.924c0.115,2.055,0.287,4.063,0.536,6.005l-40.057-11.021
			L192.596,61.793z M214.517,290.27l-112.072-47.426C91.951,238.501,85.172,228.357,85.172,217v-40.994c0-5.523-4.478-10-10-10
			s-10,4.477-10,10V217c0,0.62,0.012,1.237,0.036,1.852l-45.203,28.893V144.981l118.945-34.998
			c16.406-2.982,31.063-12.174,40.955-25.348l57.72,15.88c1.909,3.183,4.15,6.066,6.723,8.643
			c5.876,5.884,12.376,9.047,17.842,10.748l-1.95,5.735L255.012,123c-3.61-1.825-7.963-1.295-11.03,1.342l-12.276,10.556
			c-5.954,5.119-14.65,5.618-21.15,1.216l-10.833-7.338c-3.292-2.23-7.593-2.297-10.953-0.172l-18.982,12.005l0.817-4.982
			c0.894-5.45-2.8-10.593-8.25-11.487c-5.448-0.894-10.593,2.799-11.486,8.25l-6.521,39.763
			c-3.459,21.092,3.332,42.871,18.167,58.259l55.788,57.868C217.052,288.963,215.787,289.622,214.517,290.27z M416.998,281.942
			c0.41,0,0.811-0.032,1.208-0.08l6.012,7.758c-13.321-1.106-21.91-4.244-27.422-7.678H416.998z M345.485,212.627
			c1.674-6.204,4.697-11.675,9.04-16.376c0.609,11.263,3.74,20.903,9.375,28.806c7.618,10.684,17.635,15.086,23.319,16.817
			l3.331,4.299c-13.137-0.057-26.128,3.109-37.742,9.161C344.745,240.528,342.058,225.336,345.485,212.627z M310.022,332.382
			l-66.255-36.447c12.954-8.942,24.727-19.59,34.885-31.689l6.808-8.106c10.065-11.987,24.069-19.659,39.333-21.821
			c1.535,10.765,5.417,21.81,11.493,32.47c-1.021,0.919-2.026,1.858-3.002,2.834C316.585,286.324,308.293,309.334,310.022,332.382z
			 M366.777,367.003c-13.136,0.001-24.868-7.166-30.943-18.373c-0.059-0.119-0.122-0.234-0.186-0.351
			c-0.014-0.027-0.029-0.054-0.043-0.082c-0.034-0.061-0.062-0.124-0.098-0.185c-0.916-1.773-1.697-3.639-2.317-5.594
			c-0.446-1.406-1.18-2.638-2.108-3.667c-3.295-15.698-0.173-31.962,8.443-45.224l35.529,73.476H366.777z M474.786,402.003h-23.963
			l-52.096-31.989l-44.519-92.067c4.051-2.984,8.442-5.431,13.056-7.307c-0.11,0.837-0.128,1.69-0.021,2.544
			c0.188,1.505,5.332,36.861,67.673,36.861c1.562,0,3.034-0.368,4.35-1.006l50.783,65.537L474.786,402.003z"/>
	</g>
</g>
<g>
	<g>
		<path d="M121.808,420.227l-0.305-0.492c-2.908-4.693-9.07-6.14-13.768-3.233c-4.694,2.909-6.142,9.073-3.232,13.768l0.305,0.492
			c1.893,3.055,5.162,4.734,8.51,4.734c1.797,0,3.617-0.485,5.258-1.501C123.27,431.086,124.718,424.922,121.808,420.227z"/>
	</g>
</g>
<g>
	<g>
		<path d="M458.998,371.004c-6.065,0-11,4.935-11,11c0,6.065,4.934,11,11,11c6.065,0,11-4.935,11-11
			C469.998,375.939,465.063,371.004,458.998,371.004z"/>
	</g>
</g>
<g>
</g>
<g>
</g>
<g>
</g>
<g>
</g>
<g>
</g>
<g>
</g>
<g>
</g>
<g>
</g>
<g>
</g>
<g>
</g>
<g>
</g>
<g>
</g>
<g>
</g>
<g>
</g>
<g>
</g>
</svg>
